<svg enable-background="new 0 0 1178 277" viewBox="0 0 1178 277" xmlns="http://www.w3.org/2000/svg"><path d="m736.9 201.2c2.5 0 4.6-2.1 4.6-4.6s-2.1-4.6-4.6-4.6c-2.6 0-4.6 2.1-4.6 4.6s2.1 4.6 4.6 4.6z" fill="none"/><path d="m762.8 252c2.5 0 4.6-2 4.6-4.6 0-2.5-2.1-4.6-4.6-4.6s-4.6 2.1-4.6 4.6 2.1 4.6 4.6 4.6z" fill="none"/><path d="m711.1 252c2.5 0 4.5-2 4.6-4.6 0-2.5-2.1-4.6-4.6-4.6s-4.6 2.1-4.6 4.6 2.1 4.6 4.6 4.6z" fill="none"/><path d="m736.9 99.3c2.5 0 4.6-2.1 4.6-4.6s-2-4.6-4.6-4.6-4.6 2.1-4.6 4.6c0 2.6 2.1 4.6 4.6 4.6z" fill="none"/><path d="m729.4 120.2c0-2.5-2.1-4.6-4.6-4.6-2.6 0-4.6 2-4.6 4.6 0 2.5 2.1 4.6 4.6 4.6s4.6-2.1 4.6-4.6z" fill="none"/><path d="m711.1 99.3c2.5 0 4.6-2.1 4.6-4.6s-2.1-4.6-4.6-4.6-4.6 2.1-4.6 4.6c0 2.6 2 4.6 4.6 4.6z" fill="none"/><path d="m729.4 222c0-2.5-2.1-4.6-4.6-4.6-2.6 0-4.6 2.1-4.6 4.6s2.1 4.6 4.6 4.6 4.6-2.1 4.6-4.6z" fill="none"/><path d="m729.4 69.3c0-2.6-2.1-4.6-4.6-4.6s-4.6 2.1-4.6 4.6 2.1 4.6 4.6 4.6c2.6 0 4.6-2.1 4.6-4.6z" fill="none"/><path d="m736.9 252c2.6 0 4.6-2 4.6-4.6 0-2.5-2.1-4.6-4.6-4.6-2.6 0-4.6 2.1-4.6 4.6s2.1 4.6 4.6 4.6z" fill="none"/><path d="m711.1 48.4c2.5 0 4.6-2.1 4.6-4.6s-2.1-4.6-4.6-4.6-4.6 2-4.6 4.6c0 2.5 2.1 4.6 4.6 4.6z" fill="none"/><path d="m840.4 252c2.6 0 4.6-2 4.6-4.6 0-2.5-2.1-4.6-4.6-4.6s-4.6 2.1-4.6 4.6 2.1 4.6 4.6 4.6z" fill="none"/><path d="m788.7 252c2.5 0 4.6-2 4.6-4.6 0-2.5-2.1-4.6-4.6-4.6s-4.6 2.1-4.6 4.6 2.1 4.6 4.6 4.6z" fill="none"/><path d="m711.1 201.2c2.5 0 4.6-2.1 4.6-4.6s-2.1-4.6-4.6-4.6-4.6 2.1-4.6 4.6 2 4.5 4.6 4.6z" fill="none"/><path d="m737 48.4c2.5 0 4.6-2.1 4.6-4.6s-2-4.6-4.6-4.6-4.6 2-4.6 4.6c0 2.5 2.1 4.6 4.6 4.6z" fill="none"/><path d="m729.4 171.1c0-2.5-2.1-4.6-4.6-4.6-2.6 0-4.6 2-4.6 4.6 0 2.5 2.1 4.6 4.6 4.6s4.6-2.1 4.6-4.6z" fill="none"/><path d="m736.9 150.2c2.5 0 4.6-2.1 4.6-4.6s-2.1-4.6-4.6-4.6c-2.6 0-4.6 2.1-4.6 4.6 0 2.6 2.1 4.6 4.6 4.6z" fill="none"/><path d="m866.3 252c2.6 0 4.6-2 4.6-4.6 0-2.5-2.1-4.6-4.6-4.6s-4.6 2.1-4.6 4.6 2.1 4.6 4.6 4.6z" fill="none"/><path d="m711.1 150.2c2.5 0 4.6-2.1 4.6-4.6s-2.1-4.6-4.6-4.6-4.6 2.1-4.6 4.6c0 2.6 2 4.6 4.6 4.6z" fill="none"/><path d="m814.6 252c2.5 0 4.6-2 4.6-4.6 0-2.5-2.1-4.6-4.6-4.6-2.6 0-4.6 2.1-4.6 4.6s2.1 4.6 4.6 4.6z" fill="none"/><g fill="#0072bc"><path d="m18.4 9.9c-3.6 0-6.5 3-6.5 6.5 0 3.6 2.9 6.5 6.5 6.5s6.5-2.9 6.5-6.5-2.9-6.5-6.5-6.5z"/><path d="m42 9.9c-3.6 0-6.5 3-6.5 6.5 0 3.6 2.9 6.5 6.5 6.5s6.5-2.9 6.5-6.5-2.9-6.5-6.5-6.5z"/><path d="m59.1 16.4c0 3.1 2.2 5.7 5.1 6.3v-12.6c-2.9.6-5.1 3.3-5.1 6.3z"/><path d="m5.6 46c.5.1 1.1.2 1.7.2 3.6 0 6.5-2.9 6.5-6.5s-2.9-6.5-6.5-6.5c-.6 0-1.2.1-1.7.2z"/><path d="m30.9 33.2c-3.6 0-6.5 3-6.5 6.5 0 3.6 2.9 6.5 6.5 6.5s6.5-2.9 6.5-6.5-2.9-6.5-6.5-6.5z"/><path d="m54.5 33.2c-3.6 0-6.5 3-6.5 6.5 0 3.6 2.9 6.5 6.5 6.5s6.5-2.9 6.5-6.5-2.9-6.5-6.5-6.5z"/><path d="m11.9 63c0 3.6 2.9 6.5 6.5 6.5s6.5-2.9 6.5-6.5-2.9-6.5-6.5-6.5-6.5 2.9-6.5 6.5z"/><path d="m42 56.5c-3.6 0-6.5 2.9-6.5 6.5s2.9 6.5 6.5 6.5 6.5-2.9 6.5-6.5-2.9-6.5-6.5-6.5z"/><path d="m59.1 63c0 3.1 2.2 5.7 5.1 6.3v-12.6c-2.9.6-5.1 3.2-5.1 6.3z"/><path d="m7.3 79.8c-.6 0-1.2.1-1.7.2v12.5c.5.1 1.1.2 1.7.2 3.6 0 6.5-2.9 6.5-6.5 0-3.5-2.9-6.4-6.5-6.4z"/><path d="m30.9 79.8c-3.6 0-6.5 2.9-6.5 6.5s2.9 6.5 6.5 6.5 6.5-2.9 6.5-6.5-2.9-6.5-6.5-6.5z"/><path d="m54.5 79.8c-3.6 0-6.5 2.9-6.5 6.5s2.9 6.5 6.5 6.5 6.5-2.9 6.5-6.5-2.9-6.5-6.5-6.5z"/><path d="m18.4 103.1c-3.6 0-6.5 2.9-6.5 6.5s2.9 6.5 6.5 6.5 6.5-2.9 6.5-6.5-2.9-6.5-6.5-6.5z"/><path d="m42 116.1c3.6 0 6.5-2.9 6.5-6.5s-2.9-6.5-6.5-6.5-6.5 2.9-6.5 6.5 2.9 6.5 6.5 6.5z"/><path d="m59.1 109.6c0 3.6 2.9 6.5 6.5 6.5 3.3 0 6-2.4 6.4-5.6h-7.8v-7.2c-2.9.6-5.1 3.2-5.1 6.3z"/><path d="m89.2 116.1c3.3 0 6-2.4 6.4-5.6h-12.8c.4 3.2 3.1 5.6 6.4 5.6z"/><path d="m7.3 139.4c3.6 0 6.5-2.9 6.5-6.5s-2.9-6.5-6.5-6.5c-.6 0-1.2.1-1.7.2v12.5c.5.2 1.1.3 1.7.3z"/><path d="m30.9 126.4c-3.6 0-6.5 2.9-6.5 6.5s2.9 6.5 6.5 6.5 6.5-2.9 6.5-6.5-2.9-6.5-6.5-6.5z"/><path d="m54.5 139.4c3.6 0 6.5-2.9 6.5-6.5s-2.9-6.5-6.5-6.5-6.5 2.9-6.5 6.5 2.9 6.5 6.5 6.5z"/><path d="m78.1 139.4c3.6 0 6.5-2.9 6.5-6.5s-2.9-6.5-6.5-6.5-6.5 2.9-6.5 6.5 2.9 6.5 6.5 6.5z"/><path d="m101.7 126.4c-3.6 0-6.5 2.9-6.5 6.5s2.9 6.5 6.5 6.5 6.5-2.9 6.5-6.5-2.9-6.5-6.5-6.5z"/><path d="m11.9 156.2c0 3.6 2.9 6.5 6.5 6.5s6.5-2.9 6.5-6.5-2.9-6.5-6.5-6.5-6.5 2.9-6.5 6.5z"/><path d="m42 162.7c3.6 0 6.5-2.9 6.5-6.5s-2.9-6.5-6.5-6.5-6.5 2.9-6.5 6.5 2.9 6.5 6.5 6.5z"/><path d="m64.2 162.6v-2.6h6.7c.8-1.1 1.2-2.4 1.2-3.8 0-3.6-2.9-6.5-6.5-6.5s-6.5 2.9-6.5 6.5c0 3.1 2.2 5.7 5.1 6.4z"/><path d="m89.2 149.7c-3.6 0-6.5 2.9-6.5 6.5 0 1.4.5 2.7 1.2 3.8h10.5c.8-1.1 1.2-2.4 1.2-3.8.1-3.6-2.8-6.5-6.4-6.5z"/><path d="m7.3 186c3.6 0 6.5-2.9 6.5-6.5s-2.9-6.5-6.5-6.5c-.6 0-1.2.1-1.7.2v12.5c.5.2 1.1.3 1.7.3z"/><path d="m30.9 186c3.6 0 6.5-2.9 6.5-6.5s-2.9-6.5-6.5-6.5-6.5 2.9-6.5 6.5 2.9 6.5 6.5 6.5z"/><path d="m54.5 186c3.6 0 6.5-2.9 6.5-6.5s-2.9-6.5-6.5-6.5-6.5 2.9-6.5 6.5 2.9 6.5 6.5 6.5z"/><path d="m11.9 202.7c0 3.6 2.9 6.5 6.5 6.5s6.5-2.9 6.5-6.5-2.9-6.5-6.5-6.5-6.5 2.9-6.5 6.5z"/><path d="m42 209.2c3.6 0 6.5-2.9 6.5-6.5s-2.9-6.5-6.5-6.5-6.5 2.9-6.5 6.5 2.9 6.5 6.5 6.5z"/><path d="m64.2 209.1v-12.7c-2.9.6-5.1 3.2-5.1 6.3s2.2 5.7 5.1 6.4z"/><path d="m7.3 232.5c3.6 0 6.5-2.9 6.5-6.5s-2.9-6.5-6.5-6.5c-.6 0-1.2.1-1.7.2v12.5c.5.2 1.1.3 1.7.3z"/><path d="m30.9 232.5c3.6 0 6.5-2.9 6.5-6.5s-2.9-6.5-6.5-6.5-6.5 3-6.5 6.5c0 3.6 2.9 6.5 6.5 6.5z"/><path d="m54.5 232.5c3.6 0 6.5-2.9 6.5-6.5s-2.9-6.5-6.5-6.5-6.5 3-6.5 6.5c0 3.6 2.9 6.5 6.5 6.5z"/><path d="m18.4 255.8c3.6 0 6.5-2.9 6.5-6.5s-2.9-6.5-6.5-6.5-6.5 2.9-6.5 6.5 2.9 6.5 6.5 6.5z"/><path d="m42 255.8c3.6 0 6.5-2.9 6.5-6.5s-2.9-6.5-6.5-6.5-6.5 2.9-6.5 6.5 2.9 6.5 6.5 6.5z"/><path d="m64.2 243c-2.9.6-5.1 3.2-5.1 6.3s2.2 5.7 5.1 6.3z"/><path d="m13.8 272.6c0-3.6-2.9-6.5-6.5-6.5-.6 0-1.2.1-1.7.2v8.8h7.7c.3-.7.5-1.6.5-2.5z"/><path d="m37.4 272.6c0-3.6-2.9-6.5-6.5-6.5s-6.5 2.9-6.5 6.5c0 .9.2 1.7.5 2.5h12c.3-.7.5-1.6.5-2.5z"/><path d="m61 272.6c0-3.6-2.9-6.5-6.5-6.5s-6.5 2.9-6.5 6.5c0 .9.2 1.7.5 2.5h12c.3-.7.5-1.6.5-2.5z"/><path d="m205.5 9.9c-3.6 0-6.5 3-6.5 6.5 0 3.6 2.9 6.5 6.5 6.5s6.5-2.9 6.5-6.5-2.9-6.5-6.5-6.5z"/><path d="m229.1 10c-3.6 0-6.5 2.9-6.5 6.5s2.9 6.5 6.5 6.5c.5 0 1-.1 1.5-.2v-12.6c-.5-.1-1-.2-1.5-.2z"/><path d="m181.9 9.9c-3.6 0-6.6 3-6.5 6.5 0 3.6 2.9 6.5 6.5 6.5s6.5-2.9 6.5-6.5-2.9-6.5-6.5-6.5z"/><path d="m172 46.1c3-.6 5.3-3.2 5.3-6.4s-2.3-5.8-5.3-6.4z"/><path d="m224.5 39.7c0-3.6-2.9-6.5-6.5-6.5s-6.5 3-6.5 6.5c0 3.6 2.9 6.5 6.5 6.5s6.5-2.9 6.5-6.5z"/><path d="m194.4 33.2c-3.6 0-6.5 3-6.5 6.5 0 3.6 2.9 6.5 6.5 6.5s6.5-2.9 6.5-6.5-2.9-6.5-6.5-6.5z"/><path d="m205.5 56.5c-3.6 0-6.5 2.9-6.5 6.5s2.9 6.5 6.5 6.5 6.5-2.9 6.5-6.5-2.9-6.5-6.5-6.5z"/><path d="m229.1 56.5c-3.6 0-6.5 2.9-6.5 6.5s2.9 6.5 6.5 6.5c.5 0 1-.1 1.5-.2v-12.6c-.5-.1-1-.2-1.5-.2z"/><path d="m175.4 63c0 3.6 2.9 6.5 6.5 6.5s6.5-2.9 6.5-6.5-2.9-6.5-6.5-6.5-6.6 2.9-6.5 6.5z"/><path d="m172 79.9v12.8c3-.6 5.3-3.2 5.3-6.4s-2.3-5.8-5.3-6.4z"/><path d="m224.5 86.3c0-3.6-2.9-6.5-6.5-6.5s-6.5 2.9-6.5 6.5 2.9 6.5 6.5 6.5 6.5-2.9 6.5-6.5z"/><path d="m194.4 79.8c-3.6 0-6.5 2.9-6.5 6.5s2.9 6.5 6.5 6.5 6.5-2.9 6.5-6.5-2.9-6.5-6.5-6.5z"/><path d="m111 116.1c3.3 0 6-2.4 6.4-5.6h-12.9c.5 3.2 3.2 5.6 6.5 5.6z"/><path d="m134.6 116.1c3.3 0 6-2.4 6.4-5.6h-12.9c.5 3.2 3.2 5.6 6.5 5.6z"/><path d="m158.3 116.1c3.3 0 6-2.4 6.4-5.6h-12.9c.5 3.2 3.2 5.6 6.5 5.6z"/><path d="m205.5 103.1c-3.6 0-6.5 2.9-6.5 6.5s2.9 6.5 6.5 6.5 6.5-2.9 6.5-6.5-2.9-6.5-6.5-6.5z"/><path d="m229.1 103.1c-3.6 0-6.5 2.9-6.5 6.5s2.9 6.5 6.5 6.5c.5 0 1-.1 1.5-.2v-12.6c-.5-.1-1-.2-1.5-.2z"/><path d="m181.9 103.1c-3.6 0-6.6 2.9-6.5 6.5 0 3.6 2.9 6.5 6.5 6.5s6.5-2.9 6.5-6.5-2.9-6.5-6.5-6.5z"/><path d="m117 132.9c0 3.6 2.9 6.5 6.5 6.5s6.5-2.9 6.5-6.5-2.9-6.5-6.5-6.5-6.5 2.9-6.5 6.5z"/><path d="m140.6 132.9c0 3.6 2.9 6.5 6.5 6.5s6.5-2.9 6.5-6.5-2.9-6.5-6.5-6.5-6.5 2.9-6.5 6.5z"/><path d="m170.8 126.4c-3.6 0-6.5 2.9-6.5 6.5s2.9 6.5 6.5 6.5 6.5-2.9 6.5-6.5-2.9-6.5-6.5-6.5z"/><path d="m224.5 132.9c0-3.6-2.9-6.5-6.5-6.5s-6.5 2.9-6.5 6.5 2.9 6.5 6.5 6.5 6.5-2.9 6.5-6.5z"/><path d="m194.4 139.4c3.6 0 6.5-2.9 6.5-6.5s-2.9-6.5-6.5-6.5-6.5 2.9-6.5 6.5 2.9 6.5 6.5 6.5z"/><path d="m111 149.7c-3.6 0-6.5 2.9-6.5 6.5 0 1.4.5 2.7 1.2 3.8h10.5c.8-1.1 1.2-2.4 1.2-3.8.1-3.6-2.8-6.5-6.4-6.5z"/><path d="m134.6 149.7c-3.6 0-6.5 2.9-6.5 6.5 0 1.4.5 2.7 1.2 3.8h10.5c.8-1.1 1.2-2.4 1.2-3.8.1-3.6-2.8-6.5-6.4-6.5z"/><path d="m158.3 149.7c-3.6 0-6.6 2.9-6.5 6.5 0 1.4.5 2.7 1.2 3.8h10.5c.8-1.1 1.2-2.4 1.2-3.8.1-3.6-2.8-6.5-6.4-6.5z"/><path d="m205.5 162.7c3.6 0 6.5-2.9 6.5-6.5s-2.9-6.5-6.5-6.5-6.5 2.9-6.5 6.5 2.9 6.5 6.5 6.5z"/><path d="m229.1 149.7c-3.6 0-6.5 2.9-6.5 6.5s2.9 6.5 6.5 6.5c.5 0 1-.1 1.5-.2v-12.6c-.5-.1-1-.2-1.5-.2z"/><path d="m181.9 149.7c-3.6 0-6.6 2.9-6.5 6.5 0 3.6 2.9 6.5 6.5 6.5s6.5-2.9 6.5-6.5-2.9-6.5-6.5-6.5z"/><path d="m177.3 179.5c0-3.2-2.3-5.8-5.3-6.4v12.8c3-.6 5.3-3.2 5.3-6.4z"/><path d="m218 186c3.6 0 6.5-2.9 6.5-6.5s-2.9-6.5-6.5-6.5-6.5 2.9-6.5 6.5 2.9 6.5 6.5 6.5z"/><path d="m194.4 186c3.6 0 6.5-2.9 6.5-6.5s-2.9-6.5-6.5-6.5-6.5 2.9-6.5 6.5 2.9 6.5 6.5 6.5z"/><path d="m205.5 209.2c3.6 0 6.5-2.9 6.5-6.5s-2.9-6.5-6.5-6.5-6.5 2.9-6.5 6.5 2.9 6.5 6.5 6.5z"/><path d="m229.1 209.2c.5 0 1-.1 1.5-.2v-12.6c-.5-.1-1-.2-1.5-.2-3.6 0-6.5 2.9-6.5 6.5s2.9 6.5 6.5 6.5z"/><path d="m181.9 209.2c3.6 0 6.5-2.9 6.5-6.5s-2.9-6.5-6.5-6.5-6.5 2.9-6.5 6.5 2.9 6.5 6.5 6.5z"/><path d="m177.3 226c0-3.2-2.3-5.8-5.3-6.4v12.8c3-.6 5.3-3.2 5.3-6.4z"/><path d="m218 232.5c3.6 0 6.5-2.9 6.5-6.5s-2.9-6.5-6.5-6.5-6.5 3-6.5 6.5c0 3.6 2.9 6.5 6.5 6.5z"/><path d="m194.4 232.5c3.6 0 6.5-2.9 6.5-6.5s-2.9-6.5-6.5-6.5-6.5 3-6.5 6.5c0 3.6 2.9 6.5 6.5 6.5z"/><path d="m205.5 255.8c3.6 0 6.5-2.9 6.5-6.5s-2.9-6.5-6.5-6.5-6.5 2.9-6.5 6.5 2.9 6.5 6.5 6.5z"/><path d="m230.6 243c-.5-.1-1-.2-1.5-.2-3.6 0-6.5 2.9-6.5 6.5s2.9 6.5 6.5 6.5c.5 0 1-.1 1.5-.2z"/><path d="m181.9 255.8c3.6 0 6.5-2.9 6.5-6.5s-2.9-6.5-6.5-6.5-6.6 2.9-6.5 6.5c0 3.6 2.9 6.5 6.5 6.5z"/><path d="m177.3 272.6c0-3.2-2.3-5.8-5.3-6.4v8.9h4.8c.3-.7.5-1.6.5-2.5z"/><path d="m224.5 272.6c0-3.6-2.9-6.5-6.5-6.5s-6.5 2.9-6.5 6.5c0 .9.2 1.7.5 2.5h12c.3-.7.5-1.6.5-2.5z"/><path d="m200.9 272.6c0-3.6-2.9-6.5-6.5-6.5s-6.5 2.9-6.5 6.5c0 .9.2 1.7.5 2.5h12c.3-.7.5-1.6.5-2.5z"/><path d="m253.9 80.9c0-1.3-1-2.3-2.3-2.3s-2.3 1-2.3 2.3v7c0 1.3 1 2.3 2.3 2.3.6 0 1.2-.2 1.6-.7.5-.4.7-1 .7-1.6z"/><path d="m253.9 66.9c0-1.3-1-2.3-2.3-2.3s-2.3 1-2.3 2.3v7c0 1.3 1 2.3 2.3 2.3.6 0 1.2-.3 1.6-.7.5-.4.7-1 .7-1.6z"/><path d="m253.9 94.9c0-1.2-1-2.3-2.3-2.3s-2.3 1-2.3 2.3v7c0 1.3 1 2.3 2.3 2.3.6.1 1.2-.2 1.6-.6.5-.5.7-1.1.7-1.7z"/><path d="m253.9 52.7c0-1.3-1-2.3-2.3-2.3s-2.3 1-2.3 2.3v7 .1c0 1.3 1 2.3 2.3 2.3.6 0 1.2-.2 1.6-.8.5-.4.7-1 .7-1.6z"/><path d="m253.9 24.8c0-1.2-1-2.3-2.3-2.3s-2.3 1-2.3 2.3v7c0 1.3 1 2.3 2.3 2.3.6.1 1.2-.2 1.6-.6.5-.4.7-1 .7-1.6z"/><path d="m253.9 109c0-1.2-1-2.3-2.3-2.3s-2.3 1-2.3 2.3v7c0 1.3 1 2.3 2.3 2.3.6 0 1.2-.3 1.6-.7s.7-1 .7-1.6z"/><path d="m251.7 232.9h-.1c-1.3 0-2.3 1-2.3 2.3v7c0 1.3 1 2.3 2.3 2.3.6 0 1.2-.2 1.7-.7.4-.4.7-1 .7-1.6v-7c0-1.3-1-2.3-2.3-2.3z"/><path d="m253.9 38.8c0-1.3-1-2.3-2.3-2.3s-2.3 1-2.3 2.3v7c0 1.3 1 2.3 2.3 2.3.6 0 1.2-.2 1.6-.7.5-.4.7-1 .7-1.6z"/><path d="m251.6 258.6c.6 0 1.2-.2 1.6-.6.5-.5.7-1.1.7-1.7v-7c0-1.3-1-2.3-2.3-2.3s-2.3 1-2.3 2.3v7c0 1.3 1 2.3 2.3 2.3z"/><path d="m249.3 10.8v7c0 1.3 1 2.3 2.3 2.3.6 0 1.2-.3 1.6-.7.5-.4.7-1 .7-1.6v-7c0-.4-.1-.9-.3-1.2h-3.9c-.3.4-.4.8-.4 1.2z"/><path d="m253.9 123c0-1.3-1-2.3-2.3-2.3s-2.3 1-2.3 2.3v7c0 1.3 1 2.3 2.3 2.3.6 0 1.2-.3 1.6-.7.5-.4.7-1 .7-1.6z"/><path d="m253.2 229.8c.4-.4.7-1 .7-1.6v-6.9c0-1.3-1-2.4-2.3-2.4s-2.3 1-2.3 2.3v7c0 1.2 1 2.3 2.3 2.3.6 0 1.2-.3 1.6-.7z"/><path d="m253.9 270.3v-7c0-1.3-1-2.3-2.3-2.3s-2.3 1-2.3 2.3v7c0 1.3 1 2.3 2.3 2.3.6 0 1.2-.3 1.6-.7.5-.4.7-1 .7-1.6z"/><path d="m253.9 193.1c0-1.3-1-2.3-2.3-2.3s-2.3 1-2.3 2.3v7c0 1.3 1 2.3 2.3 2.3.6.1 1.2-.2 1.6-.6.5-.5.7-1.1.7-1.7z"/><path d="m253.9 207.2c0-1.3-1-2.3-2.3-2.3s-2.3 1-2.3 2.3v7c0 1.3 1 2.3 2.3 2.3.6-.1 1.2-.3 1.6-.7.5-.4.7-1 .7-1.6z"/><path d="m253.9 137.1c0-1.4-1-2.4-2.3-2.4s-2.3 1-2.3 2.3v7c0 1.3 1 2.3 2.3 2.3.6 0 1.2-.2 1.6-.6.5-.4.7-1 .7-1.6z"/><path d="m253.9 151.1c0-1.2-1-2.3-2.3-2.3s-2.3 1-2.3 2.3v7c0 1.3 1 2.3 2.3 2.3.6-.1 1.2-.3 1.6-.7s.7-1 .7-1.6z"/><path d="m253.9 165.1c0-1.3-1-2.3-2.3-2.3s-2.3 1-2.3 2.3v7c0 1.2 1 2.3 2.3 2.3.6 0 1.2-.3 1.6-.7.5-.4.7-1 .7-1.6z"/><path d="m253.9 179c0-1.3-1-2.3-2.3-2.3s-2.3 1-2.3 2.3v7.1c0 1.2 1 2.3 2.3 2.3.6 0 1.2-.3 1.6-.8.4-.4.7-1 .7-1.6z"/><path d="m268.8 24.8c0-1.2-1-2.3-2.3-2.3s-2.3 1-2.3 2.3v7c0 1.3 1 2.3 2.3 2.3.6.1 1.2-.2 1.6-.6s.7-1 .7-1.6z"/><path d="m268.9 193.2v-.1c0-1.3-1-2.3-2.3-2.3h-.1c-1.3 0-2.3 1-2.3 2.3v7c0 1.3 1 2.3 2.3 2.3.6 0 1.2-.2 1.7-.6s.7-1 .7-1.6z"/><path d="m264.2 235.2v7c0 1.3 1 2.3 2.3 2.3.6 0 1.2-.2 1.6-.7.4-.4.7-1 .7-1.6v-7c0-1.3-1-2.3-2.3-2.3s-2.3 1-2.3 2.3z"/><path d="m268.8 221.2c0-1.3-1-2.3-2.3-2.3s-2.3 1-2.3 2.3v7c0 1.3 1 2.3 2.3 2.3.6-.1 1.2-.3 1.6-.8.5-.4.7-1 .7-1.6z"/><path d="m268.8 207.2c0-1.3-1-2.3-2.3-2.3s-2.3 1-2.3 2.3v7c0 1.3 1 2.3 2.3 2.3.6 0 1.2-.3 1.6-.7.5-.4.7-1 .7-1.6z"/><path d="m268.8 270.4v-7-.1c0-1.3-1-2.3-2.3-2.3s-2.3 1-2.3 2.3v7c0 1.3 1 2.3 2.3 2.3.6 0 1.2-.3 1.6-.6.4-.4.7-1 .7-1.6z"/><path d="m264.2 10.8v7c0 1.3 1 2.3 2.3 2.3.6 0 1.2-.3 1.6-.6.5-.5.7-1.1.7-1.7v-7c0-.4-.1-.9-.3-1.2h-3.9c-.3.4-.4.8-.4 1.2z"/><path d="m266.5 258.6c.6 0 1.2-.3 1.6-.7.5-.4.7-1 .7-1.6v-7c0-1.3-1-2.3-2.3-2.3s-2.3 1-2.3 2.3v7c0 1.3 1 2.3 2.3 2.3z"/><path d="m266.5 176.7c-1.3 0-2.3 1-2.3 2.3v7.1c0 1.3 1 2.3 2.3 2.3.6 0 1.2-.3 1.6-.7.5-.5.7-1.1.7-1.7v-7c0-1.3-1-2.3-2.3-2.3z"/><path d="m266.6 162.8c-1.4 0-2.4 1-2.4 2.3v7c0 1.3 1 2.3 2.3 2.3.6 0 1.2-.2 1.7-.6.5-.5.7-1.1.7-1.7v-7c0-1.2-1-2.3-2.3-2.3z"/><path d="m268.8 95c0-1.3-1-2.3-2.3-2.3s-2.3 1-2.3 2.3v7c0 1.3 1 2.3 2.3 2.3.6 0 1.2-.3 1.6-.7s.7-1 .7-1.6z"/><path d="m268.8 109c0-1.3-1-2.3-2.3-2.3s-2.3 1-2.3 2.3v7c0 1.2 1 2.3 2.3 2.3.6 0 1.2-.2 1.6-.6.5-.5.7-1.1.7-1.7z"/><path d="m268.8 123c0-1.3-1-2.3-2.3-2.3s-2.3 1-2.3 2.3v7c0 1.3 1 2.3 2.3 2.3.6 0 1.2-.3 1.6-.7s.7-1 .7-1.6z"/><path d="m268.8 137c0-1.3-1-2.3-2.3-2.3s-2.3 1-2.3 2.3v7c0 1.3 1 2.3 2.3 2.3.6 0 1.2-.2 1.6-.7.4-.4.7-1 .7-1.6z"/><path d="m268.8 52.9c0-1.3-1-2.3-2.3-2.3s-2.3 1-2.3 2.3v7c0 1.3 1 2.3 2.3 2.3.6 0 1.2-.3 1.6-.7s.7-1 .7-1.6z"/><path d="m268.8 38.8c0-1.3-1-2.3-2.3-2.3s-2.3 1-2.3 2.3v7c0 1.3 1 2.3 2.3 2.3.6 0 1.2-.2 1.6-.7.5-.4.7-1 .7-1.6z"/><path d="m268.8 80.9c0-1.3-1-2.3-2.3-2.3s-2.3 1-2.3 2.3v7c0 1.3 1 2.3 2.3 2.3.6 0 1.2-.2 1.6-.7.5-.4.7-1 .7-1.6z"/><path d="m268.8 66.9c0-1.3-1-2.3-2.3-2.3s-2.3 1-2.3 2.3v7c0 1.3 1 2.3 2.3 2.3.6 0 1.2-.3 1.6-.7s.7-1 .7-1.6z"/><path d="m264.2 151v7 .1c0 1.3 1 2.3 2.3 2.3.6 0 1.2-.2 1.6-.7.5-.5.7-1.1.7-1.7v-7c0-1.3-1-2.3-2.3-2.3s-2.3 1-2.3 2.3z"/><path d="m283.7 207.2c0-1.3-1-2.3-2.3-2.3s-2.3 1-2.3 2.3v7c0 1.3 1 2.3 2.3 2.3.6 0 1.2-.3 1.6-.6.5-.5.7-1.1.7-1.7z"/><path d="m283.7 193.1c0-1.2-1-2.3-2.3-2.3s-2.3 1-2.3 2.3v7c0 1.3 1 2.3 2.3 2.3.6 0 1.2-.2 1.6-.7.5-.4.7-1 .7-1.6z"/><path d="m279.1 235.2v7c0 1.3 1 2.3 2.3 2.3.6.1 1.2-.2 1.6-.5.5-.5.7-1.1.7-1.7v-7-.1c0-1.3-1-2.3-2.3-2.3s-2.3 1-2.3 2.3z"/><path d="m283.7 221.2c0-1.4-1-2.4-2.3-2.4s-2.3 1-2.3 2.3v7c0 1.3 1 2.4 2.3 2.4v-.1c.6 0 1.2-.3 1.6-.7.5-.4.7-1 .7-1.6z"/><path d="m279.1 172.1c0 1.3 1 2.3 2.3 2.3.6 0 1.2-.2 1.6-.6s.7-1 .7-1.6v-7c0-1.3-1-2.4-2.3-2.4s-2.3 1-2.3 2.3z"/><path d="m283.8 179c0-1.3-1-2.3-2.3-2.3h-.1c-1.3 0-2.3 1-2.3 2.3v7.1c0 1.3 1 2.3 2.3 2.3.6 0 1.2-.3 1.7-.8.5-.4.7-1 .7-1.6z"/><path d="m279.1 109v7c0 1.3 1 2.3 2.3 2.3.6 0 1.2-.3 1.6-.6.5-.5.7-1.1.7-1.7v-7c0-1.3-1-2.3-2.3-2.3s-2.3 1-2.3 2.3z"/><path d="m283.7 24.8c0-1.3-1-2.3-2.3-2.3s-2.3 1-2.3 2.3v7c0 1.3 1 2.3 2.3 2.3.6.1 1.2-.2 1.6-.6s.7-1 .7-1.6z"/><path d="m283.7 94.9c0-1.3-1-2.3-2.3-2.3s-2.3 1-2.3 2.3v7c0 1.3 1 2.3 2.3 2.3.6.1 1.2-.2 1.6-.6.5-.5.7-1.1.7-1.7z"/><path d="m283.7 66.9c0-1.2-1-2.3-2.3-2.3s-2.3 1-2.3 2.3v7c0 1.3 1 2.3 2.3 2.3.6 0 1.2-.3 1.6-.6.5-.5.7-1.1.7-1.7z"/><path d="m283.7 52.8c0-1.3-1-2.3-2.3-2.3s-2.3 1-2.3 2.3v7c0 1.3 1 2.3 2.3 2.3.6 0 1.2-.2 1.6-.7.5-.4.7-1 .7-1.6z"/><path d="m283.7 38.8c0-1.3-1-2.3-2.3-2.3s-2.3 1-2.3 2.3v7c0 1.2 1 2.3 2.3 2.3.6 0 1.2-.2 1.6-.7.5-.4.7-1 .7-1.6z"/><path d="m283.7 80.8c0-1.3-1-2.3-2.3-2.3s-2.3 1-2.3 2.3v7 .1c0 1.3 1 2.3 2.3 2.3.6 0 1.2-.2 1.6-.7.5-.5.7-1.1.7-1.7z"/><path d="m279.1 10.8v7c0 1.3 1 2.3 2.3 2.3.6 0 1.2-.3 1.6-.7.5-.4.7-1 .7-1.6v-7c0-.4-.1-.9-.3-1.2h-3.9c-.3.4-.4.8-.4 1.2z"/><path d="m281.5 120.7h-.1c-1.3 0-2.3 1-2.3 2.3v7c0 1.3 1 2.3 2.3 2.3.6 0 1.2-.2 1.7-.7.5-.4.7-1 .7-1.6v-7c0-1.3-1-2.3-2.3-2.3z"/><path d="m283.7 270.4v-7-.1c0-1.3-1-2.3-2.3-2.3s-2.3 1-2.3 2.3v7c0 1.2 1 2.3 2.3 2.3.6 0 1.2-.2 1.6-.5.5-.5.7-1.1.7-1.7z"/><path d="m281.4 160.3c.6.1 1.2-.2 1.6-.7.5-.4.7-1 .7-1.6v-7c0-1.3-1-2.3-2.3-2.3s-2.3 1-2.3 2.3v7c0 1.3 1 2.3 2.3 2.3z"/><path d="m281.4 258.6c.6 0 1.2-.3 1.6-.6.5-.5.7-1.1.7-1.7v-7c0-1.3-1-2.3-2.3-2.3s-2.3 1-2.3 2.3v7c0 1.3 1 2.3 2.3 2.3z"/><path d="m281.4 134.7c-1.3 0-2.3 1-2.3 2.3v7c0 1.3 1 2.3 2.3 2.3.6 0 1.2-.2 1.6-.7.5-.4.7-1 .7-1.6v-7c0-1.2-1-2.3-2.3-2.3z"/></g><path d="m298.7 10.7v.1" fill="none"/><path d="m298.7 165.1c0-1.3-1-2.3-2.3-2.3h-.1c-1.3 0-2.3 1-2.3 2.3v7c0 1.3 1 2.3 2.3 2.3.6 0 1.2-.3 1.7-.7s.7-1 .7-1.6z" fill="#0072bc"/><path d="m298.7 178.9c0-1.3-1-2.3-2.3-2.3h-.1c-1.3 0-2.3 1-2.3 2.3v7.1c0 1.3 1 2.4 2.3 2.4.6 0 1.2-.3 1.7-.9.4-.4.7-1 .7-1.6z" fill="#0072bc"/><path d="m294 130c0 1.3 1 2.3 2.3 2.3.6 0 1.2-.2 1.6-.6.5-.5.7-1.1.7-1.7v-7c0-1.3-1-2.3-2.3-2.3s-2.3 1-2.3 2.3z" fill="#0072bc"/><path d="m296.3 118.3c.6 0 1.2-.3 1.6-.7s.7-1 .7-1.6v-7c0-1.3-1-2.3-2.3-2.3s-2.3 1-2.3 2.3v7c0 1.3 1 2.3 2.3 2.3z" fill="#0072bc"/><path d="m294 144c0 1.3 1 2.3 2.3 2.3.6 0 1.2-.2 1.6-.7.4-.4.7-1 .7-1.6v-7c0-1.3-1-2.3-2.3-2.3s-2.3 1-2.3 2.3z" fill="#0072bc"/><path d="m298.6 270.3v-7c0-1.3-1-2.3-2.3-2.3s-2.3 1-2.3 2.3v7c0 1.3 1 2.3 2.3 2.3.6 0 1.2-.2 1.6-.6.5-.5.7-1.1.7-1.7z" fill="#0072bc"/><path d="m294 17.8c0 1.3 1 2.3 2.3 2.3.6 0 1.2-.3 1.7-.8.5-.4.7-1 .7-1.6v-6.9c0-.4-.1-.9-.3-1.2h-4c-.2.3-.3.8-.3 1.2v7z" fill="#0072bc"/><path d="m296.3 232.9c-1.3 0-2.3 1-2.3 2.3v7c0 1.2 1 2.3 2.3 2.3.6 0 1.2-.2 1.7-.7.4-.4.7-1 .7-1.6v-7c0-1.2-1-2.3-2.4-2.3z" fill="#0072bc"/><path d="m294 214.2c0 1.3 1 2.3 2.3 2.3.6 0 1.2-.3 1.6-.7.5-.4.7-1 .7-1.6v-7c0-1.3-1-2.3-2.3-2.3s-2.3 1-2.3 2.3z" fill="#0072bc"/><path d="m298.7 221.2c0-1.3-1-2.3-2.3-2.3h-.1c-1.3 0-2.3 1-2.3 2.3v7c0 1.3 1 2.3 2.3 2.3.6-.1 1.2-.3 1.7-.7.5-.5.7-1.1.7-1.7z" fill="#0072bc"/><path d="m294 158.1c0 1.3 1 2.3 2.3 2.3.6 0 1.2-.3 1.6-.7.5-.4.7-1 .7-1.6v-7c0-1.3-1-2.3-2.3-2.3s-2.3 1-2.3 2.3z" fill="#0072bc"/><path d="m294 45.8c0 1.3 1 2.3 2.3 2.3.6.1 1.2-.2 1.6-.7.4-.4.7-1 .7-1.6v-7c0-1.3-1-2.3-2.3-2.3s-2.3 1-2.3 2.3z" fill="#0072bc"/><path d="m294 87.9c0 1.3 1 2.3 2.3 2.3.6.1 1.2-.2 1.6-.6.5-.5.7-1.1.7-1.7v-7c0-1.2-1-2.3-2.3-2.3s-2.3 1-2.3 2.3z" fill="#0072bc"/><path d="m294 73.9c0 1.3 1 2.3 2.3 2.3.6 0 1.2-.2 1.6-.6s.7-1 .7-1.6v-7-.1c0-1.3-1-2.3-2.3-2.3s-2.3 1-2.3 2.3z" fill="#0072bc"/><path d="m296.3 202.5c.6 0 1.2-.3 1.6-.7s.7-1 .7-1.6v-7c0-1.3-1-2.3-2.3-2.3s-2.3 1-2.3 2.3v7c0 1.3 1 2.3 2.3 2.3z" fill="#0072bc"/><path d="m296.3 258.6c.6 0 1.2-.3 1.7-.8.4-.4.7-1 .7-1.6v-7c0-1.3-1-2.3-2.3-2.3h-.1c-1.3 0-2.3 1-2.3 2.3v7c0 1.3 1 2.4 2.3 2.4z" fill="#0072bc"/><path d="m294 59.9c0 1.2 1 2.3 2.3 2.3.6 0 1.2-.2 1.6-.6.5-.5.7-1.1.7-1.7v-7c0-1.2-1-2.3-2.3-2.3s-2.3 1-2.3 2.3z" fill="#0072bc"/><path d="m296.3 34.1c.6.1 1.2-.2 1.6-.6s.7-1 .7-1.6v-7.1c0-1.2-1-2.3-2.3-2.3s-2.3 1-2.3 2.3v7c0 1.3 1 2.3 2.3 2.3z" fill="#0072bc"/><path d="m298.7 95c0-1.3-1-2.3-2.3-2.3h-.1c-1.3 0-2.3 1-2.3 2.3v7c0 1.3 1 2.3 2.3 2.3.6 0 1.2-.3 1.7-.7.4-.4.7-1 .7-1.6z" fill="#0072bc"/><path d="m311.2 22.5c-1.3 0-2.3 1-2.3 2.3v7c0 1.3 1 2.3 2.3 2.3.6.1 1.2-.2 1.6-.6s.7-1 .7-1.6v-7.1c0-1.3-1-2.3-2.3-2.3z" fill="#0072bc"/><path d="m313.5 123.1c0-1.3-1-2.4-2.3-2.4s-2.3 1-2.3 2.3v7c0 1.3 1 2.3 2.3 2.3.7 0 1.3-.3 1.6-.6.5-.4.7-1 .7-1.6z" fill="#0072bc"/><path d="m308.9 45.8c0 1.3 1 2.3 2.3 2.3.6 0 1.2-.2 1.6-.7.5-.4.7-1 .7-1.6v-7c0-1.3-1-2.3-2.3-2.3s-2.3 1-2.3 2.3z" fill="#0072bc"/><path d="m313.5 114.4h-4.6v1.4.1c0 1.3 1 2.3 2.3 2.3.6.1 1.2-.2 1.6-.7.5-.5.7-1.1.7-1.7z" fill="#0072bc"/><path d="m311.2 162.8c-1.3 0-2.3 1-2.3 2.3v.8h4.6v-.8c0-1.2-1-2.3-2.3-2.3z" fill="#0072bc"/><path d="m308.9 221.2v7c0 1.3 1 2.3 2.3 2.3.7-.1 1.3-.3 1.6-.8.5-.4.7-1 .7-1.6v-6.9-.1z" fill="#0072bc"/><path d="m308.9 17.8c0 1.3 1 2.3 2.3 2.3.6 0 1.2-.2 1.6-.6.5-.5.7-1.1.7-1.7v-7c0-.4-.1-.9-.3-1.2h-3.9c-.2.3-.3.8-.3 1.2v7z" fill="#0072bc"/><path d="m311.2 244.5c.6 0 1.2-.2 1.6-.7.5-.4.7-1 .7-1.6v-7c0-1.3-1-2.3-2.3-2.3s-2.3 1-2.3 2.3v7c0 1.3 1 2.3 2.3 2.3z" fill="#0072bc"/><path d="m311.2 258.6c.6 0 1.2-.3 1.6-.6.4-.4.7-1 .7-1.6v-7c0-1.3-1-2.4-2.3-2.4s-2.3 1-2.3 2.3v7c0 1.3 1 2.3 2.3 2.3z" fill="#0072bc"/><path d="m313.5 137c0-1.3-1-2.3-2.3-2.3s-2.3 1-2.3 2.3v7c0 1.3 1 2.3 2.3 2.3.6 0 1.2-.2 1.6-.6.5-.5.7-1.1.7-1.7z" fill="#0072bc"/><path d="m313.5 59.8v-7c0-1.2-1-2.3-2.3-2.3s-2.3 1-2.3 2.3v7c0 .4.1.9.3 1.2h3.9c.3-.3.4-.8.4-1.2z" fill="#0072bc"/><path d="m311.2 160.3c.6.1 1.2-.2 1.6-.5.5-.5.7-1.1.7-1.7v-7-.1c0-1.3-1-2.3-2.3-2.3s-2.3 1-2.3 2.3v7 .1c0 1.2 1 2.2 2.3 2.2z" fill="#0072bc"/><path d="m312.8 271.9c.5-.4.7-1 .7-1.6v-7c0-1.3-1-2.3-2.3-2.3s-2.3 1-2.3 2.3v7c0 1.3 1 2.3 2.3 2.3.7 0 1.3-.2 1.6-.7z" fill="#0072bc"/><path d="m328.4 59.8v-7c0-1.3-1-2.3-2.3-2.3s-2.3 1-2.3 2.3v7c0 .4.1.9.3 1.2h3.9c.3-.3.4-.8.4-1.2z" fill="#0072bc"/><path d="m323.8 137v7c0 1.3 1 2.3 2.3 2.3.6 0 1.2-.3 1.6-.7.5-.4.7-1 .7-1.6v-7c0-1.3-1-2.3-2.3-2.3s-2.3 1-2.3 2.3z" fill="#0072bc"/><path d="m326.1 160.3c.6.1 1.2-.2 1.7-.6.5-.5.7-1.1.7-1.7v-7c0-1.3-1-2.3-2.3-2.3-.1 0-.1 0-.1 0-1.3 0-2.3 1-2.3 2.3v7c0 1.3 1 2.3 2.3 2.3z" fill="#0072bc"/><path d="m328.4 123c0-1.2-1-2.3-2.3-2.3s-2.3 1-2.3 2.3v7c0 1.3 1 2.3 2.3 2.3.6 0 1.2-.3 1.6-.7.5-.4.7-1 .7-1.6z" fill="#0072bc"/><path d="m328.5 165.1c0-1.3-1-2.3-2.3-2.3h-.1c-1.3 0-2.3 1-2.3 2.3v.8h4.7v-.7z" fill="#0072bc"/><path d="m326.1 244.5c.6 0 1.2-.2 1.6-.7.5-.4.7-1 .7-1.6v-7c0-1.3-1-2.3-2.3-2.3s-2.3 1-2.3 2.3v7c0 1.3 1 2.3 2.3 2.3z" fill="#0072bc"/><path d="m326.1 258.6c.6-.1 1.2-.3 1.6-.8.4-.4.7-1 .7-1.6v-7c0-1.3-1-2.3-2.3-2.3s-2.3 1-2.3 2.3v7c0 1.3 1 2.4 2.3 2.4z" fill="#0072bc"/><path d="m323.8 17.7c0 1.2 1 2.3 2.3 2.3.6.1 1.2-.2 1.6-.7.4-.4.7-1 .7-1.6v-7c0-.4-.1-.8-.3-1.1h-4c-.2.3-.3.7-.3 1.1z" fill="#0072bc"/><path d="m323.8 45.8c0 1.3 1 2.3 2.3 2.3.6 0 1.2-.2 1.6-.6.5-.5.7-1.1.7-1.7v-7c0-1.3-1-2.3-2.3-2.3s-2.3 1-2.3 2.3z" fill="#0072bc"/><path d="m323.8 115.9c0 1.3 1 2.3 2.3 2.3.6 0 1.2-.2 1.6-.7.4-.4.7-1 .7-1.6v-1.5h-4.6z" fill="#0072bc"/><path d="m326.1 22.5c-1.3 0-2.3 1-2.3 2.3v7c0 1.3 1 2.3 2.3 2.3v.1c.6 0 1.2-.3 1.6-.7s.7-1 .7-1.6v-7.1c0-1.2-1-2.3-2.3-2.3z" fill="#0072bc"/><path d="m328.4 270.3v-7c0-1.3-1-2.3-2.3-2.3s-2.3 1-2.3 2.3v7c0 1.2 1 2.3 2.3 2.3.6 0 1.2-.3 1.6-.7s.7-1 .7-1.6z" fill="#0072bc"/><path d="m323.8 221.2v7c0 1.2 1 2.3 2.3 2.3.6-.1 1.2-.3 1.6-.7.5-.5.7-1.1.7-1.7v-6.9-.1z" fill="#0072bc"/><path d="m341.1 22.5c-1.3 0-2.3 1-2.3 2.3v7c0 1.3 1 2.3 2.2 2.3.7.1 1.3-.2 1.7-.7.5-.4.7-1 .7-1.6v-7c0-1.3-1-2.3-2.3-2.3z" fill="#0072bc"/><path d="m338.7 45.8c0 1.2 1 2.3 2.3 2.3.6 0 1.2-.2 1.6-.7.4-.4.7-1 .7-1.6v-7c0-1.2-1-2.3-2.3-2.3s-2.3 1-2.3 2.3z" fill="#0072bc"/><path d="m341 258.6c.6 0 1.2-.3 1.6-.7.5-.4.7-1 .7-1.6v-7c0-1.3-1-2.3-2.3-2.3s-2.3 1-2.3 2.3v7c0 1.3 1 2.3 2.3 2.3z" fill="#0072bc"/><path d="m341 162.8h-.1c-1.2 0-2.2 1-2.2 2.3v.8h4.6v-.8c0-1.3-1-2.3-2.3-2.3z" fill="#0072bc"/><path d="m338.8 228c-.1 1.3.9 2.4 2.2 2.5h.1c.6 0 1.2-.3 1.6-.7.5-.5.7-1.1.7-1.7v-7h-4.6z" fill="#0072bc"/><path d="m338.7 17.8c0 1.3 1 2.3 2.3 2.3.6 0 1.2-.3 1.6-.7s.7-1 .7-1.6v-7c0-.4-.1-.9-.3-1.2h-4c-.2.3-.3.8-.3 1.2z" fill="#0072bc"/><path d="m343.4 123c0-1.3-1-2.3-2.3-2.3h-.1c-1.2 0-2.2 1-2.2 2.3v7c0 1.2 1 2.2 2.2 2.3.7 0 1.3-.3 1.7-.7s.7-1 .7-1.6z" fill="#0072bc"/><path d="m341 160.4c.6 0 1.2-.3 1.6-.7s.7-1 .7-1.6v-7c0-1.3-1-2.3-2.3-2.3s-2.3 1-2.3 2.3v7c0 1.3 1 2.3 2.3 2.3z" fill="#0072bc"/><path d="m343.3 137c0-1.3-1-2.3-2.3-2.3s-2.3 1-2.3 2.3v7c0 1.3 1 2.3 2.3 2.3.6 0 1.2-.2 1.6-.7.4-.4.7-1 .7-1.6z" fill="#0072bc"/><path d="m343.3 59.9v-7c0-1.3-1-2.3-2.3-2.3s-2.3 1-2.3 2.3v7c0 .4.1.8.3 1.1h4c.2-.3.3-.7.3-1.1z" fill="#0072bc"/><path d="m341 244.5c.6.1 1.2-.2 1.6-.6.5-.5.7-1.1.7-1.7v-7c0-1.3-1-2.3-2.3-2.3s-2.3 1-2.3 2.3v7c0 1.3 1 2.3 2.3 2.3z" fill="#0072bc"/><path d="m343.3 270.3v-7-.1c0-1.3-1-2.3-2.3-2.3s-2.3 1-2.3 2.3v7 .1c0 1.3 1 2.3 2.3 2.3.7 0 1.2-.3 1.6-.7.5-.4.7-1 .7-1.6z" fill="#0072bc"/><path d="m338.7 116c0 1.3 1 2.3 2.3 2.3.7 0 1.2-.3 1.6-.6.4-.4.7-1 .7-1.6v-1.7h-4.6z" fill="#0072bc"/><path d="m356 244.5c.6 0 1.2-.2 1.6-.6s.7-1 .7-1.6v-7-.1c0-1.3-1-2.3-2.3-2.3s-2.3 1-2.3 2.3v7c0 1.2 1 2.3 2.3 2.3z" fill="#0072bc"/><path d="m353.7 221.2v7c0 1.3 1 2.2 2.2 2.3v-.1c.7 0 1.3-.3 1.7-.7.5-.4.7-1 .7-1.6v-6.9-.1z" fill="#0072bc"/><path d="m353.7 17.7c0 1.3 1 2.3 2.3 2.3.6 0 1.2-.2 1.6-.7.4-.4.7-1 .7-1.6v-7c0-.4-.1-.8-.3-1.1h-4c-.2.3-.3.7-.3 1.1z" fill="#0072bc"/><path d="m356 22.4c-1.3 0-2.3 1-2.3 2.3v7c0 1.3 1 2.3 2.3 2.3l-.1.3c.7 0 1.3-.3 1.7-.7.5-.5.7-1.1.7-1.7v-7.2c0-1.3-1-2.3-2.3-2.3z" fill="#0072bc"/><path d="m353.7 45.8c0 1.3 1 2.3 2.3 2.3.6 0 1.2-.3 1.6-.6.5-.5.7-1.1.7-1.7v-7c0-1.3-1-2.3-2.3-2.3s-2.3 1-2.3 2.3z" fill="#0072bc"/><path d="m357.6 271.8c.5-.4.7-1 .7-1.6v-7c0-1.3-1-2.3-2.3-2.3s-2.3 1-2.3 2.3v7c0 1.3 1 2.4 2.3 2.4.6 0 1.2-.3 1.6-.8z" fill="#0072bc"/><path d="m358.3 165.1c0-1.3-1-2.3-2.3-2.3s-2.3 1-2.3 2.3v.8h4.6v-.7z" fill="#0072bc"/><path d="m353.7 115.8c0 1.4 1 2.4 2.3 2.4.6 0 1.2-.2 1.6-.7.5-.5.7-1.1.7-1.7v-1.4h-4.6z" fill="#0072bc"/><path d="m358.4 123c0-1.3-1-2.3-2.3-2.3h-.1c-1.3 0-2.3 1-2.3 2.3v7c0 1.3 1 2.3 2.3 2.3.6 0 1.2-.3 1.7-.7.4-.4.7-1 .7-1.6z" fill="#0072bc"/><path d="m356 258.6c.6 0 1.2-.3 1.6-.7.5-.4.7-1 .7-1.6v-7c0-1.3-1-2.3-2.3-2.3s-2.3 1-2.3 2.3v7c0 1.3 1 2.3 2.3 2.3z" fill="#0072bc"/><path d="m358.3 137.1c0-1.3-1-2.4-2.3-2.4s-2.3 1-2.3 2.3v7c0 1.3 1 2.3 2.3 2.3.6 0 1.1 0 1.6-.5s.7-1.1.7-1.7z" fill="#0072bc"/><path d="m356 160.3c.6.1 1.2-.2 1.6-.7.4-.4.7-1 .7-1.6v-7c0-1.2-1-2.3-2.3-2.3s-2.3 1-2.3 2.3v7c0 1.2 1 2.3 2.3 2.3z" fill="#0072bc"/><path d="m358.3 59.9v-7-.1c0-1.3-1-2.3-2.3-2.3s-2.3 1-2.3 2.3v7c0 .4.1.9.3 1.2h4c.2-.3.3-.7.3-1.1z" fill="#0072bc"/><path d="m373.1 59.8v-7c0-1.3-1-2.3-2.3-2.3s-2.3 1-2.3 2.3v7c0 .4.1.9.3 1.2h3.9c.3-.3.4-.8.4-1.2z" fill="#0072bc"/><path d="m370.8 258.6c.7 0 1.2-.3 1.6-.7.5-.4.7-1 .7-1.6v-7c0-1.3-1-2.3-2.3-2.3s-2.3 1-2.3 2.3v7c0 1.3 1 2.3 2.3 2.3z" fill="#0072bc"/><path d="m370.8 160.4c.7 0 1.2-.3 1.6-.8.5-.4.7-1 .7-1.6v-7c0-1.3-1-2.3-2.3-2.3s-2.3 1-2.3 2.3v7c0 1.3 1 2.4 2.3 2.4z" fill="#0072bc"/><path d="m368.5 17.7v.1c0 1.3 1 2.3 2.3 2.3.7-.1 1.3-.3 1.6-.8.5-.4.7-1 .7-1.6v-7c0-.4-.1-.8-.3-1.1h-4c-.2.3-.3.7-.3 1.1z" fill="#0072bc"/><path d="m373.1 114.4h-4.6v1.6c0 1.3 1 2.3 2.3 2.3.6 0 1.2-.3 1.6-.6.5-.5.7-1.1.7-1.7z" fill="#0072bc"/><path d="m373.1 137c0-1.3-1-2.3-2.3-2.3s-2.3 1-2.3 2.3v7c0 1.3 1 2.3 2.3 2.3.7 0 1.2-.2 1.6-.7.5-.4.7-1 .7-1.6z" fill="#0072bc"/><path d="m368.5 228.1c0 1.4 1 2.4 2.3 2.4.7-.1 1.3-.3 1.6-.9.5-.4.7-1 .7-1.6v-6.9h-4.6z" fill="#0072bc"/><path d="m370.8 162.8c-1.3 0-2.3 1-2.3 2.3v.8h4.6v-.8c0-1.3-1-2.3-2.3-2.3z" fill="#0072bc"/><path d="m370.8 244.5c.6 0 1.2-.2 1.6-.8.4-.4.7-1 .7-1.6v-7c0-1.3-1-2.3-2.3-2.3s-2.3 1-2.3 2.3v7c0 1.3 1 2.4 2.3 2.4z" fill="#0072bc"/><path d="m373.1 123c0-1.2-1-2.3-2.3-2.3s-2.3 1-2.3 2.3v7c0 1.3 1 2.3 2.3 2.3.7 0 1.2-.3 1.6-.7.5-.4.7-1 .7-1.6z" fill="#0072bc"/><path d="m368.5 45.8c0 1.3 1 2.3 2.3 2.3.7 0 1.2-.2 1.6-.7.5-.4.7-1 .7-1.6v-7c0-1.3-1-2.3-2.3-2.3s-2.3 1-2.3 2.3z" fill="#0072bc"/><path d="m370.8 22.5c-1.3 0-2.3 1-2.3 2.3v7c0 1.3 1 2.3 2.3 2.3v.2c.6 0 1.2-.3 1.6-.7.5-.5.7-1.1.7-1.7v-7.1c0-1.2-1-2.3-2.3-2.3z" fill="#0072bc"/><path d="m373.1 270.3v-7c0-1.2-1-2.3-2.3-2.3s-2.3 1-2.3 2.3v7c0 1.3 1 2.3 2.3 2.3.7 0 1.3-.2 1.6-.6.5-.5.7-1.1.7-1.7z" fill="#0072bc"/><path d="m383.4 228.1c0 1.3 1 2.4 2.3 2.4.6-.1 1.2-.4 1.6-.8s.7-1 .7-1.6v-6.9-.1h-4.6z" fill="#0072bc"/><path d="m385.7 258.5c.6.1 1.2-.2 1.6-.6.5-.5.7-1.1.7-1.7v-7c0-1.3-1-2.3-2.3-2.3s-2.3 1-2.3 2.3v7c0 1.3 1 2.3 2.3 2.3z" fill="#0072bc"/><path d="m385.7 160.3c.7.1 1.3-.2 1.6-.6.5-.4.7-1 .7-1.6v-7c0-1.3-1-2.4-2.3-2.4s-2.3 1-2.3 2.3v7c0 1.3 1 2.3 2.3 2.3z" fill="#0072bc"/><path d="m385.7 162.8c-1.3 0-2.3 1-2.3 2.3v.8h4.6v-.8c0-1.3-1-2.3-2.3-2.3z" fill="#0072bc"/><path d="m385.7 244.5c.7 0 1.2-.2 1.6-.6.5-.5.7-1.1.7-1.7v-7c0-1.3-1-2.3-2.3-2.3s-2.3 1-2.3 2.3v7c0 1.3 1 2.3 2.3 2.3z" fill="#0072bc"/><path d="m388 137c0-1.2-1-2.3-2.3-2.3s-2.3 1-2.3 2.3v7c0 1.3 1 2.3 2.3 2.3.7 0 1.3-.3 1.6-.7.5-.4.7-1 .7-1.6z" fill="#0072bc"/><path d="m383.4 45.8c0 1.2 1 2.3 2.3 2.3.7 0 1.3-.2 1.6-.7.5-.4.7-1 .7-1.6v-7c0-1.3-1-2.3-2.3-2.3s-2.3 1-2.3 2.3z" fill="#0072bc"/><path d="m388.1 114.4h-4.7v1.5c0 1.3 1 2.3 2.3 2.3.7 0 1.3-.2 1.7-.7.4-.4.7-1 .7-1.6z" fill="#0072bc"/><path d="m388 59.8v-7c0-1.3-1-2.3-2.3-2.3s-2.3 1-2.3 2.3v7c0 .4.1.9.3 1.2h3.9c.3-.3.4-.8.4-1.2z" fill="#0072bc"/><path d="m385.7 22.5c-1.3 0-2.3 1-2.3 2.3v7c0 1.3 1 2.3 2.3 2.3.7.1 1.3-.2 1.6-.5.4-.4.7-1 .7-1.6v-7.1-.1c0-1.3-1-2.3-2.3-2.3z" fill="#0072bc"/><path d="m388 123c0-1.3-1-2.3-2.3-2.3s-2.3 1-2.3 2.3v7c0 1.3 1 2.3 2.3 2.3.7 0 1.2-.3 1.6-.7.5-.4.7-1 .7-1.6z" fill="#0072bc"/><path d="m388 270.4v-7-.1c0-1.3-1-2.3-2.3-2.3s-2.3 1-2.3 2.3v7c0 1.2 1 2.3 2.3 2.3.7 0 1.2-.2 1.6-.6s.7-1 .7-1.6z" fill="#0072bc"/><path d="m383.4 17.8c0 1.3 1 2.3 2.3 2.3.7 0 1.3-.3 1.6-.7.5-.4.7-1 .7-1.6v-7c0-.4-.1-.8-.4-1.2h-3.9c-.2.3-.3.8-.3 1.2z" fill="#0072bc"/><path d="m400.7 162.7c-1.3 0-2.3 1-2.3 2.3v.9h4.6v-.9c0-1.3-1-2.3-2.3-2.3z" fill="#0072bc"/><path d="m403 235.3v-.1c0-1.3-1-2.3-2.3-2.3s-2.3 1-2.3 2.3v7c0 1.3 1 2.3 2.3 2.3.6 0 1.2-.2 1.6-.6.5-.4.7-1 .7-1.6z" fill="#0072bc"/><path d="m400.7 258.6c.6 0 1.2-.2 1.6-.6.5-.5.7-1.1.7-1.7v-7c0-1.3-1-2.3-2.3-2.3s-2.3 1-2.3 2.3v7c0 1.3 1 2.3 2.3 2.3z" fill="#0072bc"/><path d="m400.7 160.4c.6 0 1.2-.3 1.6-.7.5-.4.7-1 .7-1.6v-7c0-1.3-1-2.3-2.3-2.3s-2.3 1-2.3 2.3v7c0 1.3 1 2.3 2.3 2.3z" fill="#0072bc"/><path d="m403 123c0-1.3-1-2.3-2.3-2.3s-2.3 1-2.3 2.3v7c0 1.3 1 2.3 2.3 2.3.6 0 1.2-.3 1.6-.7.5-.4.7-1 .7-1.6z" fill="#0072bc"/><path d="m403.1 114.4h-4.7v1.6c0 1.3 1 2.3 2.3 2.3.6 0 1.2-.3 1.7-.7s.7-1 .7-1.6z" fill="#0072bc"/><path d="m398.4 17.7c0 1.3 1 2.3 2.3 2.3.6.1 1.2-.2 1.6-.7.5-.4.7-1 .7-1.6v-7c0-.4-.1-.8-.3-1.1h-4c-.2.3-.3.7-.3 1.1z" fill="#0072bc"/><path d="m403 221.1h-4.6v7 .1c0 1.3 1 2.3 2.3 2.3v-.1c.6 0 1.2-.3 1.6-.7.5-.5.7-1.1.7-1.7z" fill="#0072bc"/><path d="m403 137c0-1.3-1-2.3-2.3-2.3s-2.3 1-2.3 2.3v7c0 1.2 1 2.3 2.3 2.3.6 0 1.2-.2 1.6-.7.5-.4.7-1 .7-1.6z" fill="#0072bc"/><path d="m398.4 45.8c0 1.3 1 2.3 2.3 2.3.6.1 1.2-.2 1.6-.6.5-.5.7-1.1.7-1.7v-7c0-1.3-1-2.3-2.3-2.3s-2.3 1-2.3 2.3z" fill="#0072bc"/><path d="m400.7 22.5c-1.3 0-2.3 1-2.3 2.3v7c0 1.3 1 2.3 2.3 2.3.6.1 1.2-.2 1.6-.6s.7-1 .7-1.6v-7.1c0-1.3-1-2.3-2.3-2.3z" fill="#0072bc"/><path d="m403.1 270.3v-7c0-1.3-1-2.3-2.3-2.3h-.1c-1.3 0-2.3 1-2.3 2.3v7c0 1.3 1 2.3 2.3 2.3.6 0 1.2-.2 1.7-.6.5-.5.7-1.1.7-1.7z" fill="#0072bc"/><path d="m403 59.8v-7c0-1.3-1-2.3-2.3-2.3s-2.3 1-2.3 2.3v7c0 .4.1.9.3 1.2h3.9c.3-.3.4-.8.4-1.2z" fill="#0072bc"/><path d="m415.7 162.8h-.1c-1.3 0-2.3 1-2.3 2.3v.8h4.7v-.8c0-1.3-1-2.3-2.3-2.3z" fill="#0072bc"/><path d="m415.7 232.9h-.1c-1.3 0-2.3 1-2.3 2.3v7c0 1.3 1 2.3 2.3 2.3.6 0 1.2-.2 1.7-.7.4-.4.7-1 .7-1.6v-7c0-1.3-1-2.3-2.3-2.3z" fill="#0072bc"/><path d="m415.6 247c-1.3 0-2.3 1-2.3 2.3v7c0 1.3 1 2.3 2.3 2.3.6 0 1.2-.3 1.6-.7.5-.4.7-1 .7-1.6v-7c0-1.3-1-2.3-2.3-2.3z" fill="#0072bc"/><path d="m413.3 115.9c0 1.2 1 2.3 2.3 2.3.6 0 1.2-.2 1.6-.6.5-.5.7-1.1.7-1.7v-1.5h-4.6z" fill="#0072bc"/><path d="m415.6 132.3c.5 0 1.1-.3 1.5-.7s.7-1 .7-1.6v-7c0-1.3-1-2.3-2.3-2.3s-2.3 1-2.3 2.3v7c0 1.3 1.1 2.3 2.4 2.3z" fill="#0072bc"/><path d="m413.2 228.1c0 1.4 1.1 2.4 2.4 2.4l-.1-.1c.6 0 1.2-.3 1.6-.7s.7-1 .7-1.6v-7h-4.6z" fill="#0072bc"/><path d="m417.9 270.3v-7c0-1.3-1-2.3-2.3-2.3s-2.3 1-2.3 2.3v7c0 1.3 1 2.3 2.3 2.3.6 0 1.2-.3 1.6-.7.5-.4.7-1 .7-1.6z" fill="#0072bc"/><path d="m415.6 160.3c.6.1 1.2-.2 1.6-.6.5-.5.7-1.1.7-1.7v-7c0-1.3-1-2.3-2.3-2.3s-2.3 1-2.3 2.3v7c0 1.3 1 2.3 2.3 2.3z" fill="#0072bc"/><path d="m415.6 36.5c-1.3 0-2.3 1-2.3 2.3v7c0 1.2 1 2.3 2.3 2.3.6 0 1.2-.2 1.6-.7.5-.4.7-1 .7-1.6v-7c0-1.3-1-2.3-2.3-2.3z" fill="#0072bc"/><path d="m413.3 17.8c0 1.3 1 2.3 2.3 2.3.6 0 1.2-.3 1.7-.7.4-.4.7-1 .7-1.6v-7c0-.4-.1-.9-.3-1.2h-4c-.2.3-.3.8-.3 1.2v7z" fill="#0072bc"/><path d="m418 52.8c0-1.3-1-2.3-2.3-2.3-.1 0-.1 0-.1 0-1.3 0-2.3 1-2.3 2.3v7c0 .4.1.9.3 1.2h4c.2-.4.4-.8.4-1.2z" fill="#0072bc"/><path d="m418 137c0-1.3-1-2.3-2.3-2.3h-.1c-1.3 0-2.3 1-2.3 2.3v7c0 1.3 1 2.3 2.3 2.3.6 0 1.2-.2 1.7-.7.5-.4.7-1 .7-1.6z" fill="#0072bc"/><path d="m415.5 22.5c-1.3 0-2.3 1-2.3 2.3v7c.1 1.3 1.1 2.3 2.4 2.3.5.1 1.1-.2 1.5-.7.5-.4.7-1 .7-1.6v-7c0-1.3-1-2.3-2.3-2.3z" fill="#0072bc"/><path d="m432.7 10.8v-.1" fill="none"/><path d="m428.1 221.2v7c0 1.3 1 2.3 2.3 2.3v-.1c.6 0 1.2-.3 1.6-.7s.7-1 .7-1.6v-6.9-.1z" fill="#0072bc"/><path d="m430.4 244.5c.6 0 1.2-.2 1.6-.6.5-.5.7-1.1.7-1.7v-7c0-1.3-1-2.3-2.3-2.3s-2.3 1-2.3 2.3v7c0 1.3 1 2.3 2.3 2.3z" fill="#0072bc"/><path d="m432.7 270.4v-7-.1c0-1.3-1-2.3-2.3-2.3s-2.3 1-2.3 2.3v7c0 1.3 1 2.3 2.3 2.3.6 0 1.2-.3 1.6-.5.5-.5.7-1.1.7-1.7z" fill="#0072bc"/><path d="m428.1 17.8c0 1.2 1 2.3 2.3 2.3.6 0 1.2-.3 1.6-.8.5-.4.7-1 .7-1.6v-6.9c0-.4-.1-.9-.3-1.2h-3.9c-.2.3-.3.8-.3 1.2v7z" fill="#0072bc"/><path d="m430.4 258.6c.6 0 1.2-.3 1.6-.6.5-.5.7-1.1.7-1.7v-7c0-1.2-1-2.3-2.3-2.3s-2.3 1-2.3 2.3v7c0 1.3 1 2.3 2.3 2.3z" fill="#0072bc"/><path d="m432.7 52.9c0-1.3-1-2.3-2.3-2.3s-2.3 1-2.3 2.3v7c0 .4.1.8.3 1.1h4c.2-.3.3-.7.3-1.1z" fill="#0072bc"/><path d="m430.4 34.1c.6.1 1.2-.2 1.6-.6s.7-1 .7-1.6v-7.1c0-1.3-1-2.3-2.3-2.3s-2.3 1-2.3 2.3v7c0 1.3 1 2.3 2.3 2.3z" fill="#0072bc"/><path d="m428.1 45.8c0 1.3 1 2.3 2.3 2.3.6 0 1.2-.2 1.6-.7.5-.4.7-1 .7-1.6v-7c0-1.3-1-2.3-2.3-2.3s-2.3 1-2.3 2.3z" fill="#0072bc"/><path d="m977.8 1.9c-6 1.3-11.8 3.1-17.4 5.1h101.8c-5.6-2-11.4-3.8-17.4-5.1z" fill="#ff3701"/><path d="m935 19.3h152.6c-2.9-1.8-5.9-3.5-9-5.1h-134.6c-3.1 1.6-6.1 3.3-9 5.1z" fill="#ff3701"/><path d="m924.7 26.4c-2.2 1.6-4.3 3.3-6.3 5.1h185.9c-2-1.8-4.2-3.5-6.3-5.1z" fill="#ff3701"/><path d="m910.6 38.7c-1.6 1.7-3.3 3.4-4.8 5.1h210.9c-1.5-1.7-3.1-3.4-4.8-5.1z" fill="#ff3701"/><path d="m1122.6 50.9h-222.7c-1.3 1.7-2.6 3.4-3.8 5.1h88.1c8.1-2.8 17-4.3 26.4-4.3s18.2 1.5 26.3 4.3h89.4c-1.2-1.8-2.5-3.5-3.7-5.1z" fill="#ff3701"/><path d="m888.4 68.3h73.4c2.3-1.8 4.7-3.5 7.2-5.1h-77.6c-1.1 1.7-2 3.4-3 5.1z" fill="#ff3701"/><path d="m1059.3 68.3h74.6c-.9-1.7-1.9-3.4-2.9-5.1h-79c2.5 1.5 5 3.2 7.3 5.1z" fill="#ff3701"/><path d="m954.1 75.4h-69.3c-.8 1.7-1.6 3.4-2.3 5.1h67.2c1.4-1.8 2.9-3.5 4.4-5.1z" fill="#ff3701"/><path d="m1137.5 75.4h-70.5c1.6 1.6 3 3.3 4.5 5.1h68.2c-.7-1.7-1.4-3.4-2.2-5.1z" fill="#ff3701"/><path d="m1075.8 86.3c1.1 1.7 2.2 3.4 3.1 5.1h64.8c-.5-1.7-1.1-3.4-1.7-5.1z" fill="#ff3701"/><path d="m878.4 91.4h64.1c1-1.7 2-3.4 3.1-5.1h-65.4c-.7 1.7-1.3 3.4-1.8 5.1z" fill="#ff3701"/><path d="m875 103.7h62c.6-1.7 1.3-3.4 2-5.1h-62.7c-.5 1.7-.9 3.4-1.3 5.1z" fill="#ff3701"/><path d="m1084.6 103.7h62.5c-.4-1.7-.8-3.4-1.2-5.1h-63.3c.7 1.6 1.3 3.3 2 5.1z" fill="#ff3701"/><path d="m934.8 110.8h-61.2c-.3 1.7-.5 3.4-.8 5.1h60.8c.4-1.7.8-3.4 1.2-5.1z" fill="#ff3701"/><path d="m1086.9 110.8c.5 1.7.9 3.4 1.2 5.1h61.1c-.2-1.7-.5-3.4-.7-5.1z" fill="#ff3701"/><path d="m1149.9 123.1h-60.6c.2 1.7.4 3.4.5 5.1h60.4c-.1-1.7-.2-3.4-.3-5.1z" fill="#ff3701"/><path d="m932.1 128.2c.1-1.7.2-3.4.4-5.1h-60.5c-.1 1.7-.2 3.4-.3 5.1z" fill="#ff3701"/><path d="m1090 135.3c0 1.7-.1 3.4-.2 5.1h60.3c.1-1.7.1-3.4.1-5.1z" fill="#ff3701"/><path d="m871.7 140.4h60.4c-.1-1.7-.2-3.4-.2-5.1h-60.3c0 1.7 0 3.4.1 5.1z" fill="#ff3701"/><path d="m1088.3 152.7h60.8c.2-1.7.4-3.4.6-5.1h-60.5c-.3 1.7-.6 3.4-.9 5.1z" fill="#ff3701"/><path d="m872.7 152.7h61.1c-.3-1.7-.7-3.4-.9-5.1h-60.7c.1 1.7.3 3.4.5 5.1z" fill="#ff3701"/><path d="m1085 164.9h61.9c.4-1.7.7-3.4 1-5.1h-61.3c-.4 1.7-1 3.4-1.6 5.1z" fill="#ff3701"/><path d="m874.8 164.9h62.5c-.6-1.7-1.2-3.4-1.7-5.1h-61.8c.3 1.7.6 3.4 1 5.1z" fill="#ff3701"/><path d="m1079.6 177.1h64c.5-1.7 1.1-3.4 1.5-5.1h-63c-.7 1.7-1.6 3.4-2.5 5.1z" fill="#ff3701"/><path d="m876.5 172c.5 1.7 1 3.4 1.5 5.1h64.8c-.9-1.7-1.8-3.4-2.6-5.1z" fill="#ff3701"/><path d="m1075.2 184.3c-1.2 1.8-2.5 3.5-3.9 5.1h67.6c.7-1.7 1.4-3.4 2.1-5.1z" fill="#ff3701"/><path d="m882.6 189.4h68.7c-1.4-1.6-2.7-3.3-3.9-5.1h-66.8c.6 1.7 1.3 3.4 2 5.1z" fill="#ff3701"/><path d="m1064.6 196.6c-1.9 1.8-3.9 3.5-6 5.1h74.2c.9-1.7 1.9-3.4 2.7-5.1z" fill="#ff3701"/><path d="m888.6 201.7h75.5c-2.1-1.6-4.1-3.3-6.1-5.1h-72.2c1 1.7 1.9 3.4 2.8 5.1z" fill="#ff3701"/><path d="m896.3 213.9h92c-4.5-1.3-8.8-3-12.8-5.1h-82.6c1.1 1.7 2.2 3.4 3.4 5.1z" fill="#ff3701"/><path d="m1034.6 213.9h90.4c1.2-1.7 2.4-3.4 3.5-5.1h-81.1c-4.1 2-8.3 3.7-12.8 5.1z" fill="#ff3701"/><path d="m901.7 221c1.4 1.7 2.9 3.4 4.4 5.1h209c1.5-1.7 3-3.4 4.4-5.1z" fill="#ff3701"/><path d="m918.9 238.4h183.4c2-1.6 3.9-3.3 5.8-5.1h-195c1.9 1.7 3.8 3.4 5.8 5.1z" fill="#ff3701"/><path d="m936.1 250.7h148.9c2.7-1.6 5.3-3.3 7.9-5.1h-164.7c2.6 1.8 5.2 3.5 7.9 5.1z" fill="#ff3701"/><path d="m949.6 257.8c4.2 1.9 8.5 3.6 12.9 5.1h96c4.4-1.5 8.7-3.2 12.9-5.1z" fill="#ff3701"/><path d="m1024.8 270h-28.5c2.9.3 5.9.4 8.9.5h10.7c3-.1 6-.3 8.9-.5z" fill="#ff3701"/><path d="m708.6 222c0-5.4-4.3-9.7-9.7-9.7-.7 0-1.4.1-2 .2v5.4c.6-.3 1.3-.5 2-.5 2.5 0 4.6 2.1 4.6 4.6s-2.1 4.6-4.6 4.6c-.7 0-1.4-.2-2-.5v5.4c.6.1 1.3.2 2 .2 5.4 0 9.7-4.3 9.7-9.7z" fill="#faae17"/><path d="m880 231.7c.8 0 1.6-.1 2.3-.3v-5.4c-.7.4-1.5.7-2.3.7-2.5 0-4.6-2.1-4.6-4.6 0-.4.1-.7.2-1.1h-5.2c0 .4-.1.7-.1 1.1 0 5.3 4.4 9.6 9.7 9.6z" fill="#faae17"/><path d="m734.5 222c0-5.4-4.3-9.7-9.7-9.7-5.3 0-9.7 4.4-9.7 9.7 0 5.4 4.3 9.7 9.7 9.7s9.7-4.3 9.7-9.7zm-14.3 0c0-2.5 2-4.6 4.6-4.6 2.5 0 4.6 2.1 4.6 4.6s-2.1 4.6-4.6 4.6-4.6-2.1-4.6-4.6z" fill="#faae17"/><path d="m711.1 257.2c5.3 0 9.7-4.4 9.7-9.7 0-5.4-4.3-9.7-9.7-9.7-5.3 0-9.7 4.3-9.7 9.7s4.4 9.7 9.7 9.7zm0-14.4c2.5 0 4.6 2.1 4.6 4.6-.1 2.6-2.1 4.6-4.6 4.6s-4.6-2.1-4.6-4.6 2.1-4.6 4.6-4.6z" fill="#faae17"/><path d="m753.7 193.3c-.4 1-.6 2.2-.6 3.4s.2 2.3.6 3.4z" fill="#faae17"/><path d="m736.9 257.2c5.4 0 9.7-4.4 9.7-9.7 0-5.4-4.3-9.7-9.7-9.7-5.3 0-9.7 4.3-9.7 9.7s4.4 9.7 9.7 9.7zm0-14.4c2.5 0 4.6 2.1 4.6 4.6 0 2.6-2 4.6-4.6 4.6-2.5 0-4.6-2.1-4.6-4.6s2-4.6 4.6-4.6z" fill="#faae17"/><path d="m753.7 180.3v-5.8c-.8.7-1.9 1.2-3 1.2-2.5 0-4.6-2.1-4.6-4.6-.1-2.6 2-4.6 4.6-4.6 1.1 0 2.2.5 3 1.2v-5.8c-.9-.3-2-.5-3-.5-5.3 0-9.7 4.4-9.7 9.7s4.3 9.7 9.7 9.7c1.1 0 2.1-.1 3-.5z" fill="#faae17"/><path d="m708.6 171.1c0-5.4-4.3-9.7-9.7-9.7-.7 0-1.4.1-2 .2v5.4c.6-.3 1.3-.5 2-.5 2.5 0 4.6 2.1 4.6 4.6s-2.1 4.6-4.6 4.6c-.7 0-1.4-.2-2-.5v5.4c.6.1 1.3.2 2 .2 5.4 0 9.7-4.3 9.7-9.7z" fill="#faae17"/><path d="m760.4 222c0-.4 0-.7-.1-1.1h-5.2c.1.4.2.7.2 1.1 0 2.5-2.1 4.6-4.6 4.6s-4.6-2.1-4.6-4.6c-.1-2.5 2-4.6 4.6-4.6 1.1 0 2.2.5 3 1.2v-5.8c-.9-.3-2-.5-3-.5-5.3 0-9.7 4.4-9.7 9.7 0 5.4 4.3 9.7 9.7 9.7 5.3 0 9.7-4.3 9.7-9.7z" fill="#faae17"/><path d="m736.9 206.3c5.4-.1 9.7-4.4 9.7-9.7 0-5.4-4.3-9.7-9.7-9.7-5.3 0-9.7 4.3-9.7 9.7s4.4 9.7 9.7 9.7zm0-14.3c2.5 0 4.6 2.1 4.6 4.6s-2.1 4.6-4.6 4.6-4.6-2.1-4.6-4.6 2-4.6 4.6-4.6z" fill="#faae17"/><path d="m711.1 206.3c5.3-.1 9.7-4.4 9.7-9.7 0-5.4-4.3-9.7-9.7-9.7-5.3 0-9.7 4.3-9.7 9.7s4.4 9.7 9.7 9.7zm0-14.3c2.5 0 4.6 2.1 4.6 4.6s-2.1 4.6-4.6 4.6c-2.6-.1-4.6-2.1-4.6-4.6s2.1-4.6 4.6-4.6z" fill="#faae17"/><path d="m734.5 171.1c0-5.4-4.3-9.7-9.7-9.7-5.3 0-9.7 4.4-9.7 9.7s4.3 9.7 9.7 9.7 9.7-4.3 9.7-9.7zm-14.3 0c0-2.6 2-4.6 4.6-4.6 2.5 0 4.6 2.1 4.6 4.6s-2.1 4.6-4.6 4.6-4.6-2.1-4.6-4.6z" fill="#faae17"/><path d="m866.3 257.2c5.4 0 9.7-4.4 9.7-9.7 0-5.4-4.4-9.7-9.7-9.7-5.4 0-9.7 4.3-9.7 9.7s4.4 9.7 9.7 9.7zm0-14.4c2.5 0 4.6 2.1 4.6 4.6 0 2.6-2 4.6-4.6 4.6-2.5 0-4.6-2.1-4.6-4.6s2.1-4.6 4.6-4.6z" fill="#faae17"/><path d="m840.4 257.2c5.4 0 9.7-4.4 9.7-9.7 0-5.4-4.3-9.7-9.7-9.7s-9.7 4.3-9.7 9.7 4.3 9.7 9.7 9.7zm0-14.4c2.5 0 4.6 2.1 4.6 4.6 0 2.6-2 4.6-4.6 4.6-2.5 0-4.6-2.1-4.6-4.6s2.1-4.6 4.6-4.6z" fill="#faae17"/><path d="m863.9 222c0-.4 0-.7-.1-1.1h-5.2c.1.4.2.7.2 1.1 0 2.5-2.1 4.6-4.6 4.6s-4.6-2.1-4.6-4.6c0-.4.1-.7.1-1.1h-5.2c0 .4-.1.7-.1 1.1 0 5.4 4.3 9.7 9.7 9.7s9.8-4.3 9.8-9.7z" fill="#faae17"/><path d="m698.9 263.2c-.7 0-1.4.1-2 .2v5.4c.6-.3 1.3-.5 2-.5 2.4 0 4.3 1.9 4.6 4.2h5.1c-.2-5.1-4.4-9.3-9.7-9.3z" fill="#faae17"/><path d="m875.5 272.5c.2-2.3 2.2-4.2 4.6-4.2.8 0 1.6.3 2.3.7v-5.5c-.7-.2-1.5-.3-2.3-.3-5.2 0-9.5 4.2-9.7 9.3z" fill="#faae17"/><path d="m762.8 257.2c5.4 0 9.7-4.4 9.7-9.7 0-5.4-4.4-9.7-9.7-9.7-5.4 0-9.7 4.3-9.7 9.7s4.3 9.7 9.7 9.7zm0-14.4c2.5 0 4.6 2.1 4.6 4.6 0 2.6-2.1 4.6-4.6 4.6s-4.6-2.1-4.6-4.6 2.1-4.6 4.6-4.6z" fill="#faae17"/><path d="m753.7 142.3c-.4 1-.6 2.2-.6 3.4s.2 2.3.6 3.4z" fill="#faae17"/><path d="m786.2 222c0-.4 0-.7-.1-1.1h-5.1c.1.4.2.7.2 1.1 0 2.5-2.1 4.6-4.6 4.6s-4.6-2.1-4.6-4.6c0-.4.1-.7.2-1.1h-5.2c0 .4-.1.7-.1 1.1 0 5.4 4.4 9.7 9.7 9.7s9.6-4.3 9.6-9.7z" fill="#faae17"/><path d="m838 222c0-.4 0-.7-.1-1.1h-5.2c.1.4.2.7.2 1.1 0 2.5-2.1 4.6-4.6 4.6-2.6 0-4.6-2.1-4.6-4.6 0-.4.1-.7.1-1.1h-5.2c0 .4-.1.7-.1 1.1 0 5.4 4.3 9.7 9.7 9.7s9.8-4.3 9.8-9.7z" fill="#faae17"/><path d="m788.7 257.2c5.4 0 9.7-4.4 9.7-9.7 0-5.4-4.3-9.7-9.7-9.7-5.3 0-9.7 4.3-9.7 9.7s4.3 9.7 9.7 9.7zm0-14.4c2.5 0 4.6 2.1 4.6 4.6 0 2.6-2.1 4.6-4.6 4.6s-4.6-2.1-4.6-4.6 2.1-4.6 4.6-4.6z" fill="#faae17"/><path d="m812.1 222c0-.4 0-.7-.1-1.1h-5.2c.1.4.2.7.2 1.1 0 2.5-2.1 4.6-4.6 4.6s-4.6-2.1-4.6-4.6c0-.4.1-.7.2-1.1h-5.2c0 .4-.1.7-.1 1.1 0 5.4 4.3 9.7 9.7 9.7s9.7-4.3 9.7-9.7z" fill="#faae17"/><path d="m814.6 257.2c5.3 0 9.7-4.4 9.7-9.7 0-5.4-4.3-9.7-9.7-9.7-5.3 0-9.7 4.3-9.7 9.7s4.3 9.7 9.7 9.7zm0-14.4c2.5 0 4.6 2.1 4.6 4.6 0 2.6-2.1 4.6-4.6 4.6s-4.6-2.1-4.6-4.6 2-4.6 4.6-4.6z" fill="#faae17"/><path d="m828.3 263.2c-5.3 0-9.5 4.2-9.7 9.3h5.1c.2-2.3 2.1-4.2 4.6-4.2 2.4 0 4.3 1.9 4.6 4.2h5.1c-.2-5.1-4.5-9.3-9.7-9.3z" fill="#faae17"/><path d="m708.6 18.4c0-1.4-.3-2.8-.9-4h-6.6c1.4.8 2.4 2.3 2.4 4 0 2.5-2.1 4.6-4.6 4.6-.7 0-1.4-.2-2-.5v5.4c.6.1 1.3.2 2 .2 5.4 0 9.7-4.3 9.7-9.7z" fill="#faae17"/><path d="m711.1 53.5c5.4 0 9.7-4.4 9.7-9.7 0-5.4-4.3-9.7-9.7-9.7s-9.7 4.4-9.7 9.7 4.4 9.7 9.7 9.7zm0-14.3c2.5 0 4.6 2.1 4.6 4.6s-2.1 4.6-4.6 4.6-4.6-2.1-4.6-4.6c0-2.6 2.1-4.6 4.6-4.6z" fill="#faae17"/><path d="m753.7 15v-.6h-.8c.3.2.6.4.8.6z" fill="#faae17"/><path d="m736.9 53.5c5.4 0 9.7-4.3 9.7-9.7s-4.3-9.7-9.7-9.7c-5.3 0-9.7 4.4-9.7 9.7s4.3 9.7 9.7 9.7zm.1-14.3c2.6 0 4.6 2.1 4.6 4.6s-2.1 4.6-4.6 4.6-4.6-2.1-4.6-4.6c0-2.6 2-4.6 4.6-4.6z" fill="#faae17"/><path d="m734.5 18.4c0-1.4-.3-2.8-.9-4h-6.6c1.4.8 2.4 2.3 2.4 4 0 2.5-2.1 4.6-4.6 4.6s-4.6-2.1-4.6-4.6c0-1.7 1-3.2 2.4-4h-6.6c-.6 1.2-.9 2.6-.9 4 0 5.4 4.4 9.7 9.7 9.7 5.4 0 9.7-4.3 9.7-9.7z" fill="#faae17"/><path d="m854.2 263.2c-5.3 0-9.5 4.2-9.7 9.3h5.1c.2-2.3 2.2-4.2 4.6-4.2s4.3 1.9 4.6 4.2h5.1c-.2-5.1-4.5-9.3-9.7-9.3z" fill="#faae17"/><path d="m724.8 263.2c-5.2 0-9.5 4.2-9.7 9.3h5.1c.2-2.3 2.2-4.2 4.6-4.2s4.3 1.9 4.6 4.2h5.1c-.2-5.1-4.5-9.3-9.7-9.3z" fill="#faae17"/><path d="m802.4 263.2c-5.2 0-9.5 4.2-9.7 9.3h5.1c.2-2.3 2.2-4.2 4.6-4.2s4.3 1.9 4.6 4.2h5.1c-.2-5.1-4.4-9.3-9.7-9.3z" fill="#faae17"/><path d="m753.7 27.6v-5.8c-.8.7-1.8 1.2-3 1.2-2.5 0-4.6-2.1-4.6-4.6 0-1.7 1-3.2 2.4-4h-6.6c-.6 1.2-.9 2.6-.9 4 0 5.4 4.4 9.7 9.7 9.7 1.1 0 2.1-.1 3-.5z" fill="#faae17"/><path d="m753.7 129.4v-5.8c-.8.7-1.9 1.2-3 1.2-2.5 0-4.6-2.1-4.6-4.6-.1-2.6 2-4.6 4.6-4.6 1.1 0 2.2.5 3 1.2v-5.8c-.9-.3-2-.5-3-.5-5.3 0-9.7 4.4-9.7 9.7s4.3 9.7 9.7 9.7c1.1 0 2.1-.2 3-.5z" fill="#faae17"/><path d="m776.5 263.2c-5.2 0-9.5 4.2-9.7 9.3h5.1c.2-2.3 2.2-4.2 4.6-4.2s4.3 1.9 4.6 4.2h5.1c-.2-5.1-4.4-9.3-9.7-9.3z" fill="#faae17"/><path d="m750.7 263.2c-5.2 0-9.5 4.2-9.7 9.3h5.1c.2-2.3 2.2-4.2 4.6-4.2s4.3 1.9 4.6 4.2h5.1c-.2-5.1-4.5-9.3-9.7-9.3z" fill="#faae17"/><path d="m708.6 120.2c0-5.4-4.3-9.7-9.7-9.7-.7 0-1.4.1-2 .2v5.4c.6-.3 1.3-.5 2-.5 2.5 0 4.6 2.1 4.6 4.6s-2.1 4.6-4.6 4.6c-.7 0-1.4-.2-2-.5v5.4c.6.1 1.3.2 2 .2 5.4 0 9.7-4.4 9.7-9.7z" fill="#faae17"/><path d="m711.1 155.3c5.3 0 9.7-4.3 9.7-9.7s-4.3-9.7-9.7-9.7c-5.3 0-9.7 4.3-9.7 9.7s4.4 9.7 9.7 9.7zm0-14.3c2.5 0 4.6 2.1 4.6 4.6s-2.1 4.6-4.6 4.6c-2.6 0-4.6-2-4.6-4.6 0-2.5 2.1-4.6 4.6-4.6z" fill="#faae17"/><path d="m734.5 120.2c0-5.4-4.3-9.7-9.7-9.7-5.3 0-9.7 4.4-9.7 9.7s4.3 9.7 9.7 9.7 9.7-4.4 9.7-9.7zm-14.3 0c0-2.6 2-4.6 4.6-4.6 2.5 0 4.6 2.1 4.6 4.6s-2.1 4.6-4.6 4.6-4.6-2.1-4.6-4.6z" fill="#faae17"/><path d="m753.7 40.5c-.4 1-.6 2.1-.6 3.3s.2 2.3.6 3.3z" fill="#faae17"/><path d="m736.9 155.3c5.4 0 9.7-4.3 9.7-9.7s-4.3-9.7-9.7-9.7c-5.3 0-9.7 4.3-9.7 9.7s4.4 9.7 9.7 9.7zm0-14.3c2.5 0 4.6 2.1 4.6 4.6s-2.1 4.6-4.6 4.6-4.6-2-4.6-4.6c0-2.5 2-4.6 4.6-4.6z" fill="#faae17"/><path d="m753.7 91.4c-.4 1-.6 2.2-.6 3.4s.2 2.3.6 3.4z" fill="#faae17"/><path d="m708.6 69.3c0-5.4-4.3-9.7-9.7-9.7-.7 0-1.4.1-2 .2v5.4c.6-.3 1.3-.5 2-.5 2.5 0 4.6 2.1 4.6 4.6s-2.1 4.6-4.6 4.6c-.7 0-1.4-.2-2-.5v5.4c.6.1 1.3.2 2 .2 5.4 0 9.7-4.3 9.7-9.7z" fill="#faae17"/><path d="m711.1 104.4c5.3 0 9.7-4.3 9.7-9.7s-4.3-9.7-9.7-9.7c-5.3 0-9.7 4.3-9.7 9.7s4.4 9.7 9.7 9.7zm0-14.3c2.5 0 4.6 2.1 4.6 4.6s-2.1 4.6-4.6 4.6c-2.6 0-4.6-2-4.6-4.6 0-2.5 2.1-4.6 4.6-4.6z" fill="#faae17"/><path d="m736.9 104.4c5.4 0 9.7-4.3 9.7-9.7s-4.3-9.7-9.7-9.7c-5.3 0-9.7 4.3-9.7 9.7 0 5.3 4.4 9.7 9.7 9.7zm0-14.3c2.6 0 4.6 2.1 4.6 4.6s-2.1 4.6-4.6 4.6-4.6-2-4.6-4.6c0-2.5 2-4.6 4.6-4.6z" fill="#faae17"/><path d="m734.5 69.3c0-5.4-4.3-9.7-9.7-9.7s-9.7 4.3-9.7 9.7 4.4 9.7 9.7 9.7c5.4 0 9.7-4.3 9.7-9.7zm-14.3 0c0-2.5 2.1-4.6 4.6-4.6s4.6 2 4.6 4.6c0 2.5-2 4.6-4.6 4.6-2.5 0-4.6-2.1-4.6-4.6z" fill="#faae17"/><path d="m753.7 78.5v-5.8c-.8.7-1.9 1.2-3 1.2-2.5 0-4.6-2-4.6-4.6 0-2.5 2.1-4.6 4.6-4.6 1.2 0 2.2.4 3 1.2v-5.8c-.9-.3-2-.5-3-.5-5.4 0-9.7 4.3-9.7 9.7s4.3 9.7 9.7 9.7c1.1 0 2.1-.1 3-.5z" fill="#faae17"/><path d="m654.4 228.2c-2.3 0-4.2 1.9-4.2 4.2s1.9 4.2 4.2 4.2 4.2-1.9 4.2-4.2-1.8-4.2-4.2-4.2z" fill="none"/><path d="m631.2 263.1c-2.3 0-4.2 1.9-4.2 4.2s1.9 4.2 4.2 4.2 4.2-1.9 4.2-4.2-1.9-4.2-4.2-4.2z" fill="none"/><path d="m654.4 260.3c2.3 0 4.2-1.9 4.2-4.2s-1.8-4.2-4.2-4.2c-2.3 0-4.2 1.9-4.2 4.2s1.9 4.2 4.2 4.2z" fill="none"/><path d="m627 243.5c0 2.3 1.9 4.2 4.2 4.2s4.2-1.9 4.2-4.2-1.9-4.2-4.2-4.2-4.2 1.9-4.2 4.2z" fill="none"/><path d="m491.7 79c2.3 0 4.2-1.9 4.2-4.2s-1.8-4.2-4.2-4.2c-2.3 0-4.2 1.9-4.2 4.2s1.9 4.2 4.2 4.2z" fill="none"/><path d="m584.9 263.1c-2.3 0-4.2 1.9-4.2 4.2s1.9 4.2 4.2 4.2 4.2-1.9 4.2-4.2c-.1-2.3-1.9-4.2-4.2-4.2z" fill="none"/><path d="m491.8 23.1c-2.3 0-4.2 1.9-4.2 4.2s1.9 4.2 4.2 4.2 4.2-1.9 4.2-4.2c-.1-2.3-1.9-4.2-4.2-4.2z" fill="none"/><path d="m561.5 228.2c-2.3 0-4.2 1.9-4.2 4.2s1.9 4.2 4.2 4.2 4.2-1.9 4.2-4.2c-.1-2.3-1.9-4.2-4.2-4.2z" fill="none"/><path d="m491.8 94.4c-2.3 0-4.2 1.9-4.2 4.2s1.9 4.2 4.2 4.2 4.2-1.9 4.2-4.2-1.9-4.2-4.2-4.2z" fill="none"/><path d="m491.8 46.9c-2.3 0-4.2 1.9-4.2 4.2s1.9 4.2 4.2 4.2 4.2-1.9 4.2-4.2c0-2.4-1.9-4.2-4.2-4.2z" fill="none"/><path d="m491.8 263.1c-2.3 0-4.2 1.9-4.2 4.2s1.9 4.2 4.2 4.2 4.2-1.9 4.2-4.2c-.1-2.3-1.9-4.2-4.2-4.2z" fill="none"/><path d="m538.2 263.1c-2.3 0-4.2 1.9-4.2 4.2s1.9 4.2 4.2 4.2 4.2-1.9 4.2-4.2-1.9-4.2-4.2-4.2z" fill="none"/><path d="m515 212.8c2.3 0 4.2-1.9 4.2-4.2s-1.9-4.2-4.2-4.2-4.2 1.9-4.2 4.2 1.9 4.2 4.2 4.2z" fill="none"/><path d="m491.7 247.7c2.3 0 4.2-1.9 4.2-4.2s-1.8-4.2-4.2-4.2c-2.3 0-4.2 1.9-4.2 4.2s1.9 4.2 4.2 4.2z" fill="none"/><path d="m487.6 219.8c.1 2.3 1.9 4.1 4.2 4.1s4.2-1.9 4.2-4.2-1.9-4.2-4.2-4.1c-2.3 0-4.2 1.9-4.2 4.2z" fill="none"/><path d="m491.7 150.4c2.3 0 4.2-1.9 4.2-4.2s-1.9-4.2-4.2-4.2-4.2 1.9-4.2 4.2 1.9 4.2 4.2 4.2z" fill="none"/><path d="m515 180.7c-2.3 0-4.2 1.9-4.2 4.2s1.9 4.2 4.2 4.2 4.2-1.9 4.2-4.2-1.9-4.2-4.2-4.2z" fill="none"/><path d="m491.8 191.8c-2.3 0-4.2 1.9-4.2 4.2s1.9 4.2 4.2 4.2 4.2-1.9 4.2-4.2-1.9-4.2-4.2-4.2z" fill="none"/><path d="m538.2 239.3c-2.3 0-4.2 1.9-4.2 4.2s1.9 4.2 4.2 4.2 4.2-1.9 4.2-4.2-1.9-4.2-4.2-4.2z" fill="none"/><path d="m515 154.5c-2.3 0-4.2 1.9-4.2 4.2s1.8 4.2 4.1 4.2h.1c2.3 0 4.2-1.9 4.2-4.2s-1.9-4.2-4.2-4.2z" fill="none"/><path d="m561.5 251.9c-2.3 0-4.2 1.9-4.2 4.2s1.9 4.2 4.2 4.2 4.2-1.9 4.2-4.2c-.1-2.3-1.9-4.2-4.2-4.2z" fill="none"/><path d="m491.8 118.1c-2.3 0-4.2 1.9-4.2 4.2s1.9 4.2 4.2 4.2 4.2-1.9 4.2-4.2-1.9-4.2-4.2-4.2z" fill="none"/><path d="m515 260.3c2.3 0 4.2-1.9 4.2-4.2s-1.9-4.2-4.2-4.2-4.2 1.9-4.2 4.2 1.9 4.2 4.2 4.2z" fill="none"/><path d="m607.8 228.2c-2.3 0-4.2 1.9-4.2 4.2s1.9 4.2 4.2 4.2 4.2-1.9 4.2-4.2-1.9-4.2-4.2-4.2z" fill="none"/><path d="m514.9 236.6h.1c2.3 0 4.2-1.9 4.2-4.2s-1.9-4.2-4.2-4.2-4.2 1.9-4.2 4.2 1.8 4.2 4.1 4.2z" fill="none"/><path d="m515 83.2c-2.3 0-4.2 1.8-4.2 4.2v.1c0 2.3 1.9 4.2 4.2 4.2s4.2-1.9 4.2-4.2c0-2.4-1.9-4.3-4.2-4.3z" fill="none"/><path d="m584.9 239.3c-2.3 0-4.2 1.9-4.2 4.2s1.9 4.2 4.2 4.2 4.2-1.9 4.2-4.2c-.1-2.3-1.9-4.2-4.2-4.2z" fill="none"/><path d="m607.8 251.9c-2.3 0-4.2 1.9-4.2 4.2s1.9 4.2 4.2 4.2 4.2-1.9 4.2-4.2-1.9-4.2-4.2-4.2z" fill="none"/><path d="m515 67.9c2.3 0 4.2-1.9 4.2-4.2 0-2.4-1.9-4.2-4.2-4.2s-4.2 1.9-4.2 4.2 1.9 4.2 4.2 4.2z" fill="none"/><path d="m515 139.1c2.3 0 4.2-1.9 4.2-4.2s-1.9-4.2-4.2-4.2-4.2 1.9-4.2 4.2 1.9 4.2 4.2 4.2z" fill="none"/><path d="m515 20.4c2.3 0 4.2-1.9 4.2-4.2s-1.9-4.2-4.2-4.2-4.2 1.9-4.2 4.2 1.9 4.2 4.2 4.2z" fill="none"/><path d="m515 44.1c2.3 0 4.2-1.9 4.2-4.2s-1.9-4.2-4.2-4.2-4.2 1.9-4.2 4.2 1.9 4.2 4.2 4.2z" fill="none"/><path d="m515 115.4c2.3 0 4.2-1.9 4.2-4.2 0-2.4-1.9-4.2-4.2-4.2s-4.2 1.9-4.2 4.2 1.9 4.2 4.2 4.2z" fill="none"/><path d="m491.7 176.4c2.3 0 4.2-1.9 4.2-4.2 0-2.4-1.8-4.2-4.2-4.2-2.3 0-4.2 1.9-4.2 4.2s1.9 4.2 4.2 4.2z" fill="none"/><path d="m529.4 27.3c0 4.9 3.9 8.9 8.8 8.9.7 0 1.4-.1 2-.2v-5c-.6.3-1.3.5-2 .5-2.3 0-4.2-1.9-4.2-4.2s1.9-4.2 4.2-4.2c.7 0 1.4.2 2 .5v-5c-.6-.1-1.3-.2-2-.2-4.9 0-8.8 4-8.8 8.9z" fill="#fbaf16"/><path d="m538.2 60c.7 0 1.4-.1 2-.2v-5c-.6.3-1.3.5-2 .5-2.3 0-4.2-1.9-4.2-4.2s1.9-4.2 4.2-4.2c.7 0 1.4.2 2 .5v-5c-.6-.1-1.3-.2-2-.2-4.8 0-8.8 3.9-8.8 8.9 0 4.9 3.9 8.9 8.8 8.9z" fill="#fbaf16"/><path d="m529.5 74.8c0 4.9 3.9 8.9 8.8 8.9.7 0 1.3-.1 1.9-.2v-5c-.6.3-1.3.5-2 .5-2.3 0-4.2-1.9-4.2-4.2s1.9-4.2 4.2-4.2c.7 0 1.4.2 2 .5v-5c-.6-.1-1.3-.2-2-.2-4.9 0-8.7 4-8.7 8.9z" fill="#fbaf16"/><path d="m538.2 107.5c.7 0 1.4-.1 2-.2v-5c-.6.3-1.3.5-2 .5-2.3 0-4.2-1.9-4.2-4.2s1.9-4.2 4.2-4.2c.7 0 1.4.2 2 .5v-5c-.6-.1-1.3-.2-2-.2-4.9 0-8.8 4-8.8 8.9s3.9 8.9 8.8 8.9z" fill="#fbaf16"/><path d="m538.2 131.2c.7 0 1.4-.1 2-.2v-5c-.6.3-1.3.5-2 .5-2.3 0-4.2-1.9-4.2-4.2s1.9-4.2 4.2-4.2c.7 0 1.4.2 2 .5v-5c-.6-.1-1.3-.2-2-.2-4.9 0-8.8 4-8.8 8.9s3.9 8.9 8.8 8.9z" fill="#fbaf16"/><path d="m538.2 155.1c.7 0 1.4-.1 2-.2v-5c-.6.3-1.3.5-2 .5-2.3 0-4.2-1.9-4.2-4.2s1.9-4.2 4.2-4.2c.7 0 1.4.2 2 .5v-5c-.6-.1-1.3-.2-2-.2-4.9 0-8.8 4-8.8 8.9s3.9 8.9 8.8 8.9z" fill="#fbaf16"/><path d="m538.3 12.5c.7 0 1.3-.1 1.9-.2v-3.2h-8.8c1.6 2.1 4.1 3.4 6.9 3.4z" fill="#fbaf16"/><path d="m515 48.7c4.9 0 8.8-4 8.8-8.9s-3.9-8.8-8.8-8.8-8.9 4-8.8 8.8c0 4.9 3.9 8.9 8.8 8.9zm0-13c2.3 0 4.2 1.9 4.2 4.2s-1.9 4.2-4.2 4.2-4.2-1.9-4.2-4.2 1.9-4.2 4.2-4.2z" fill="#fbaf16"/><path d="m515 72.5c4.8 0 8.8-4 8.8-8.9s-3.9-8.9-8.8-8.9c-4.9.1-8.9 4-8.8 8.9 0 4.9 4 8.9 8.8 8.9zm0-13c2.3 0 4.2 1.8 4.2 4.2 0 2.3-1.9 4.2-4.2 4.2s-4.2-1.9-4.2-4.2 1.9-4.2 4.2-4.2z" fill="#fbaf16"/><path d="m515 78.5c-4.9 0-8.9 4-8.7 8.9 0 4.9 3.9 8.9 8.8 8.9 4.8 0 8.8-4 8.8-8.9s-4-8.9-8.9-8.9zm0 13.2c-2.3 0-4.2-1.9-4.2-4.2v-.1c0-2.4 1.9-4.2 4.2-4.2s4.2 1.9 4.2 4.3c0 2.3-1.9 4.2-4.2 4.2z" fill="#fbaf16"/><path d="m515 120.1c4.8 0 8.8-4 8.8-8.9s-3.9-8.9-8.8-8.9v.1c-4.8 0-8.8 4-8.8 8.9s4 8.8 8.8 8.8zm0-13.1c2.3 0 4.2 1.8 4.2 4.2 0 2.3-1.9 4.2-4.2 4.2s-4.2-1.9-4.2-4.2 1.9-4.2 4.2-4.2z" fill="#fbaf16"/><path d="m515 143.8c4.8 0 8.8-4 8.8-8.9s-3.9-8.9-8.8-8.9-8.9 4-8.8 8.9c0 4.9 4 8.9 8.8 8.9zm0-13.1c2.3 0 4.2 1.9 4.2 4.2s-1.9 4.2-4.2 4.2-4.2-1.9-4.2-4.2 1.9-4.2 4.2-4.2z" fill="#fbaf16"/><path d="m515 149.8c-4.9 0-8.7 4-8.7 8.9s3.9 8.9 8.8 8.9c4.8 0 8.8-4 8.8-8.9s-4-8.9-8.9-8.9zm0 13.1h-.1c-2.3 0-4.1-1.9-4.1-4.2s1.9-4.2 4.2-4.2 4.2 1.9 4.2 4.2-1.9 4.2-4.2 4.2z" fill="#fbaf16"/><path d="m506.2 16.2c0 4.9 3.9 8.9 8.8 8.9s8.9-4 8.9-8.9c0-2.9-1.4-5.4-3.5-7.1h-10.8c-2.1 1.7-3.4 4.2-3.4 7.1zm8.8-4.2c2.3 0 4.2 1.9 4.2 4.2s-1.9 4.2-4.2 4.2-4.2-1.9-4.2-4.2 1.9-4.2 4.2-4.2z" fill="#fbaf16"/><path d="m491.8 18.4c-4.9 0-8.9 4-8.8 8.9 0 4.9 3.9 8.9 8.8 8.9 4.8 0 8.8-4 8.8-8.9s-3.9-8.9-8.8-8.9zm0 13.1c-2.3 0-4.2-1.9-4.2-4.2s1.9-4.2 4.2-4.2 4.1 1.9 4.2 4.2c0 2.3-1.9 4.2-4.2 4.2z" fill="#fbaf16"/><path d="m491.8 42.2c-4.9 0-8.9 3.9-8.9 8.8 0 5 4.1 9 8.9 9s8.8-4 8.8-8.9-3.9-8.9-8.8-8.9zm0 13.1c-2.3 0-4.2-1.9-4.2-4.2s1.9-4.2 4.2-4.2 4.2 1.8 4.2 4.2c0 2.3-1.9 4.2-4.2 4.2z" fill="#fbaf16"/><path d="m491.7 83.7c4.8 0 8.8-4 8.8-8.9s-3.9-8.9-8.8-8.9-8.8 4-8.8 8.9 4 8.9 8.8 8.9zm0-13.1c2.4 0 4.2 1.9 4.2 4.2s-1.9 4.2-4.2 4.2-4.2-1.9-4.2-4.2 1.9-4.2 4.2-4.2z" fill="#fbaf16"/><path d="m491.8 89.7c-4.9 0-8.9 4-8.8 8.9 0 4.9 4 8.9 8.8 8.9s8.8-4 8.8-8.9-3.9-8.9-8.8-8.9zm0 13.1c-2.3 0-4.2-1.9-4.2-4.2s1.9-4.2 4.2-4.2 4.2 1.9 4.2 4.2-1.9 4.2-4.2 4.2z" fill="#fbaf16"/><path d="m491.8 113.4c-4.9 0-8.9 4-8.8 8.9 0 4.9 3.9 8.9 8.8 8.9 4.8 0 8.8-4 8.8-8.9s-3.9-8.9-8.8-8.9zm0 13.1c-2.3 0-4.2-1.9-4.2-4.2s1.9-4.2 4.2-4.2 4.2 1.9 4.2 4.2-1.9 4.2-4.2 4.2z" fill="#fbaf16"/><path d="m491.7 155.1c4.8 0 8.8-4 8.8-8.9s-3.9-8.9-8.8-8.9-8.8 4-8.8 8.9 4 8.9 8.8 8.9zm0-13.1c2.3 0 4.2 1.9 4.2 4.2s-1.9 4.2-4.2 4.2-4.2-1.9-4.2-4.2 1.9-4.2 4.2-4.2z" fill="#fbaf16"/><path d="m491.7 12.5c2.7 0 5.2-1.3 6.8-3.4h-13.7c1.6 2.1 4.1 3.4 6.9 3.4z" fill="#fbaf16"/><path d="m670.8 225.3v-5.5h-1.9c0 2 .7 3.9 1.9 5.5z" fill="#fbaf16"/><path d="m670.8 261.7c-1.2 1.5-1.9 3.5-1.9 5.6 0 1.9.6 3.7 1.7 5.2h.2z" fill="#fbaf16"/><path d="m670.8 237.9c-1.2 1.5-1.9 3.5-1.9 5.6s.7 4 1.9 5.5z" fill="#fbaf16"/><path d="m654.4 223.5c-4.8 0-8.8 4-8.8 8.9s3.9 8.9 8.8 8.9c4.8 0 8.8-4 8.8-8.9s-3.9-8.9-8.8-8.9zm0 13.1c-2.3 0-4.2-1.9-4.2-4.2s1.9-4.2 4.2-4.2c2.4 0 4.2 1.9 4.2 4.2s-1.9 4.2-4.2 4.2z" fill="#fbaf16"/><path d="m654.4 271c-1.8 0-3.4.5-4.8 1.5h9.6c-1.4-1-3-1.5-4.8-1.5z" fill="#fbaf16"/><path d="m654.4 265c4.8 0 8.8-4 8.8-8.9s-3.9-8.9-8.8-8.9c-4.8 0-8.8 4-8.8 8.9s3.9 8.9 8.8 8.9zm0-13.1c2.4 0 4.2 1.9 4.2 4.2s-1.9 4.2-4.2 4.2-4.2-1.9-4.2-4.2 1.9-4.2 4.2-4.2z" fill="#fbaf16"/><path d="m631.2 228.7c4.8 0 8.8-4 8.8-8.9h-4.6c0 2.3-1.9 4.2-4.2 4.2s-4.2-1.9-4.2-4.2h-4.6c0 4.9 3.9 8.9 8.8 8.9z" fill="#fbaf16"/><path d="m640 267.3c0-4.9-3.9-8.9-8.8-8.9s-8.9 4-8.8 8.9c0 1.9.6 3.7 1.6 5.2h14.3c1-1.5 1.7-3.3 1.7-5.2zm-8.8 4.2c-2.3 0-4.2-1.9-4.2-4.2s1.9-4.2 4.2-4.2 4.2 1.9 4.2 4.2-1.9 4.2-4.2 4.2z" fill="#fbaf16"/><path d="m622.4 243.5c0 4.9 3.9 8.9 8.8 8.9 4.8 0 8.8-4 8.8-8.9s-3.9-8.9-8.8-8.9-8.9 4-8.8 8.9zm13 0c0 2.3-1.9 4.2-4.2 4.2s-4.2-1.9-4.2-4.2 1.9-4.2 4.2-4.2 4.2 1.9 4.2 4.2z" fill="#fbaf16"/><path d="m607.8 223.5c-4.8-.1-8.8 3.9-8.8 8.9 0 4.9 3.9 8.9 8.8 8.9s8.9-4 8.9-8.9-4-8.9-8.9-8.9zm0 13.1c-2.3 0-4.2-1.9-4.2-4.2s1.9-4.2 4.2-4.2 4.2 1.9 4.2 4.2-1.9 4.2-4.2 4.2z" fill="#fbaf16"/><path d="m607.8 271c-1.8 0-3.4.5-4.8 1.5h9.6c-1.4-1-3-1.5-4.8-1.5z" fill="#fbaf16"/><path d="m607.8 247.2c-4.8 0-8.8 4-8.8 8.9s3.9 8.9 8.8 8.9 8.9-4 8.9-8.9-4-8.9-8.9-8.9zm0 13.1c-2.3 0-4.2-1.9-4.2-4.2s1.9-4.2 4.2-4.2 4.2 1.9 4.2 4.2-1.9 4.2-4.2 4.2z" fill="#fbaf16"/><path d="m584.9 228.7c4.8 0 8.8-4 8.8-8.9h-4.6c0 2.3-1.9 4.2-4.2 4.2s-4.1-1.8-4.2-4.1h-4.6c0 4.8 3.9 8.8 8.8 8.8z" fill="#fbaf16"/><path d="m593.5 267.2c0-4.8-3.8-8.7-8.6-8.8l-.2-.1c-4.8 0-8.8 4-8.8 8.9 0 2 .6 3.8 1.7 5.3h14.2c1-1.5 1.7-3.4 1.7-5.3zm-8.6 4.3c-2.3 0-4.2-1.9-4.2-4.2s1.9-4.2 4.2-4.2 4.1 1.9 4.2 4.2c0 2.3-1.9 4.2-4.2 4.2z" fill="#fbaf16"/><path d="m584.9 234.6h-.2c-4.8 0-8.8 4-8.8 8.9s3.9 8.9 8.8 8.9c4.8 0 8.8-4 8.8-8.9 0-4.8-3.8-8.8-8.6-8.9zm0 13.1c-2.3 0-4.2-1.9-4.2-4.2s1.9-4.2 4.2-4.2 4.1 1.9 4.2 4.2c0 2.3-1.9 4.2-4.2 4.2z" fill="#fbaf16"/><path d="m561.5 223.5c-4.9 0-8.9 4-8.8 8.9 0 4.9 3.9 8.9 8.8 8.9s8.8-4 8.8-8.9-3.9-8.9-8.8-8.9zm0 13.1c-2.3 0-4.2-1.9-4.2-4.2s1.9-4.2 4.2-4.2 4.1 1.9 4.2 4.2c0 2.3-1.9 4.2-4.2 4.2z" fill="#fbaf16"/><path d="m561.5 271c-1.8 0-3.5.5-4.8 1.5h9.7c-1.5-1-3.1-1.5-4.9-1.5z" fill="#fbaf16"/><path d="m561.5 247.2c-4.9 0-8.8 4-8.8 8.9s3.9 8.9 8.8 8.9c4.8 0 8.8-4 8.8-8.9s-3.9-8.9-8.8-8.9zm0 13.1c-2.3 0-4.2-1.9-4.2-4.2s1.9-4.2 4.2-4.2 4.1 1.9 4.2 4.2c0 2.3-1.9 4.2-4.2 4.2z" fill="#fbaf16"/><path d="m529.5 172.2c0 4.9 3.9 8.9 8.8 8.9.7 0 1.3-.1 1.9-.2v-5c-.6.3-1.3.5-2 .5-2.3 0-4.2-1.9-4.2-4.2s1.9-4.2 4.2-4.2c.7 0 1.4.2 2 .5v-5c-.6-.1-1.3-.2-2-.2-4.9 0-8.7 4-8.7 8.9z" fill="#fbaf16"/><path d="m538.3 204.9c.7 0 1.3-.1 1.9-.2v-5c-.6.3-1.3.5-2 .5-2.3 0-4.2-1.9-4.2-4.2s1.9-4.2 4.2-4.2c.7 0 1.4.2 2 .5v-5c-.6-.1-1.3-.2-2-.2-4.9 0-8.8 4-8.7 8.9 0 4.9 3.9 8.9 8.8 8.9z" fill="#fbaf16"/><path d="m542.4 219.8c0 2.3-1.9 4.2-4.2 4.2s-4.2-1.9-4.2-4.2 1.9-4.2 4.2-4.2c.7 0 1.4.2 2 .5v-5c-.6-.1-1.3-.2-2-.2-4.9 0-8.8 4-8.7 8.9 0 4.9 3.9 8.9 8.8 8.9 4.8 0 8.8-4 8.8-8.9h-4.7c0-.1 0 0 0 0z" fill="#fbaf16"/><path d="m547.1 267.3c0-4.9-4-8.9-8.9-8.9s-8.8 4-8.8 8.9c0 1.9.6 3.7 1.6 5.2h14.4c1-1.5 1.7-3.3 1.7-5.2zm-8.9 4.2c-2.3 0-4.2-1.9-4.2-4.2s1.9-4.2 4.2-4.2 4.2 1.9 4.2 4.2-1.9 4.2-4.2 4.2z" fill="#fbaf16"/><path d="m538.2 234.6c-4.9 0-8.8 4-8.7 8.9 0 4.9 3.9 8.9 8.8 8.9 4.8 0 8.8-4 8.8-8.9s-4-8.9-8.9-8.9zm0 13.1c-2.3 0-4.2-1.9-4.2-4.2s1.9-4.2 4.2-4.2 4.2 1.9 4.2 4.2-1.9 4.2-4.2 4.2z" fill="#fbaf16"/><path d="m515 176c-4.9 0-8.7 4-8.7 8.9s3.9 8.9 8.8 8.9c4.8 0 8.8-4 8.8-8.9s-4-8.9-8.9-8.9zm0 13.1c-2.3 0-4.2-1.9-4.2-4.2s1.9-4.2 4.2-4.2 4.2 1.9 4.2 4.2-1.9 4.2-4.2 4.2z" fill="#fbaf16"/><path d="m515 217.6c4.8 0 8.8-4 8.8-8.9s-3.9-8.9-8.8-8.9-8.9 3.9-8.8 8.9c0 4.9 4 8.9 8.8 8.9zm0-13.2c2.3 0 4.2 1.9 4.2 4.2s-1.9 4.2-4.2 4.2-4.2-1.9-4.2-4.2 1.9-4.2 4.2-4.2z" fill="#fbaf16"/><path d="m515 241.3c4.8 0 8.8-4 8.8-8.9s-3.9-8.9-8.8-8.9-8.9 4-8.8 8.9c0 4.9 4 8.9 8.8 8.9zm0-13.1c2.3 0 4.2 1.9 4.2 4.2s-1.9 4.2-4.2 4.2h-.1c-2.3 0-4.1-1.9-4.1-4.2s1.9-4.2 4.2-4.2z" fill="#fbaf16"/><path d="m515 271c-1.8 0-3.5.5-4.9 1.5h9.7c-1.4-1-3-1.5-4.8-1.5z" fill="#fbaf16"/><path d="m515 265c4.9 0 8.9-4 8.9-8.9s-4-8.9-8.9-8.9-8.8 4-8.8 8.9 3.9 8.9 8.8 8.9zm0-13.1c2.3 0 4.2 1.9 4.2 4.2s-1.9 4.2-4.2 4.2-4.2-1.9-4.2-4.2 1.9-4.2 4.2-4.2z" fill="#fbaf16"/><path d="m491.7 181.1c4.8 0 8.8-4 8.8-8.9s-3.9-8.9-8.8-8.9-8.8 4-8.8 8.9 4 8.9 8.8 8.9zm0-13.1c2.4 0 4.2 1.8 4.2 4.2 0 2.3-1.9 4.2-4.2 4.2s-4.2-1.9-4.2-4.2 1.9-4.2 4.2-4.2z" fill="#fbaf16"/><path d="m491.8 187.2c-4.9 0-8.9 3.9-8.8 8.9 0 4.9 3.9 8.9 8.8 8.9 4.8 0 8.8-4 8.8-8.9s-3.9-8.9-8.8-8.9zm0 13c-2.3 0-4.2-1.9-4.2-4.2s1.9-4.2 4.2-4.2 4.2 1.9 4.2 4.2-1.9 4.2-4.2 4.2z" fill="#fbaf16"/><path d="m483 219.8c0 4.9 4 8.9 8.8 8.9s8.8-4 8.8-8.9-3.9-8.9-8.8-8.9-8.9 4-8.8 8.9zm13-.1c0 2.3-1.9 4.2-4.2 4.2s-4.1-1.8-4.2-4.1c0-2.3 1.9-4.2 4.2-4.2 2.3-.1 4.2 1.8 4.2 4.1z" fill="#fbaf16"/><path d="m500.6 267.3c0-4.9-3.9-8.9-8.8-8.9s-8.9 4-8.8 8.9c0 1.9.6 3.7 1.6 5.2h14.3c1-1.5 1.7-3.3 1.7-5.2zm-8.8 4.2c-2.3 0-4.2-1.9-4.2-4.2s1.9-4.2 4.2-4.2 4.1 1.9 4.2 4.2c0 2.3-1.9 4.2-4.2 4.2z" fill="#fbaf16"/><path d="m491.7 252.4c4.8 0 8.8-4 8.8-8.9s-3.9-8.9-8.8-8.9-8.8 4-8.8 8.9 4 8.9 8.8 8.9zm0-13.1c2.4 0 4.2 1.9 4.2 4.2s-1.9 4.2-4.2 4.2-4.2-1.9-4.2-4.2 1.9-4.2 4.2-4.2z" fill="#fbaf16"/></svg>