<?xml version="1.0" encoding="UTF-8"?>
<svg width="338px" height="209px" viewBox="0 0 338 209" version="1.1" xmlns="http://www.w3.org/2000/svg" xmlns:xlink="http://www.w3.org/1999/xlink">
    <!-- Generator: Sketch 46.2 (44496) - http://www.bohemiancoding.com/sketch -->
    <title>Group 2</title>
    <desc>Created with Sketch.</desc>
    <defs></defs>
    <g id="Mobile" stroke="none" stroke-width="1" fill="none" fill-rule="evenodd">
        <g id="02_Телефон-(введен)" transform="translate(-20.000000, -20.000000)">
            <g id="Group-2" transform="translate(20.000000, 20.000000)">
                <g id="Hi_2">
                    <g id="Group">
                        <g transform="translate(0.000000, 3.083159)" fill-rule="nonzero" fill="#FF3701">
                            <circle id="Oval" cx="13.9" cy="5.2" r="5.1"></circle>
                            <circle id="Oval_1_" cx="32.2" cy="5.2" r="5.1"></circle>
                            <circle id="Oval_2_" cx="5.2" cy="23.3" r="5.1"></circle>
                            <circle id="Oval_3_" cx="23.5" cy="23.3" r="5.1"></circle>
                            <circle id="Oval_4_" cx="41.8" cy="23.3" r="5.1"></circle>
                            <circle id="Oval_5_" cx="13.9" cy="41.4" r="5.1"></circle>
                            <circle id="Oval_6_" cx="32.2" cy="41.4" r="5.1"></circle>
                            <circle id="Oval_7_" cx="5.2" cy="59.6" r="5.1"></circle>
                            <circle id="Oval_8_" cx="23.5" cy="59.6" r="5.1"></circle>
                            <circle id="Oval_9_" cx="41.8" cy="59.6" r="5.1"></circle>
                            <circle id="Oval_10_" cx="13.9" cy="77.5" r="5.1"></circle>
                            <circle id="Oval_11_" cx="32.2" cy="77.5" r="5.1"></circle>
                            <circle id="Oval_12_" cx="5.2" cy="95.6" r="5.1"></circle>
                            <circle id="Oval_13_" cx="23.5" cy="95.6" r="5.1"></circle>
                            <circle id="Oval_14_" cx="41.8" cy="95.6" r="5.1"></circle>
                            <circle id="Oval_15_" cx="60.3" cy="95.6" r="5.1"></circle>
                            <circle id="Oval_16_" cx="78.6" cy="95.6" r="5.1"></circle>
                            <circle id="Oval_17_" cx="13.9" cy="113.7" r="5.1"></circle>
                            <circle id="Oval_18_" cx="32.2" cy="113.7" r="5.1"></circle>
                            <circle id="Oval_19_" cx="5.2" cy="131.8" r="5.1"></circle>
                            <circle id="Oval_20_" cx="23.5" cy="131.8" r="5.1"></circle>
                            <circle id="Oval_21_" cx="41.8" cy="131.8" r="5.1"></circle>
                            <path d="M18.8,149.9 C18.8,152.8 16.6,155 13.7,155 C10.8,155 8.6,152.8 8.6,149.9 C8.6,147.2 10.8,144.8 13.7,144.8 C16.6,144.8 18.8,147.3 18.8,149.9 Z" id="Shape"></path>
                            <path d="M37.3,149.9 C37.3,152.8 35.1,155 32.2,155 C29.3,155 27.1,152.8 27.1,149.9 C27.1,147.2 29.3,144.8 32.2,144.8 C35.1,144.8 37.3,147.3 37.3,149.9 Z" id="Shape_1_"></path>
                            <circle id="Oval_22_" cx="5.2" cy="168.1" r="5.1"></circle>
                            <circle id="Oval_23_" cx="23.5" cy="168.1" r="5.1"></circle>
                            <circle id="Oval_24_" cx="41.8" cy="168.1" r="5.1"></circle>
                            <circle id="Oval_25_" cx="13.9" cy="186.2" r="5.1"></circle>
                            <circle id="Oval_26_" cx="32.2" cy="186.2" r="5.1"></circle>
                            <circle id="Oval_27_" cx="159.2" cy="5.2" r="5.1"></circle>
                            <circle id="Oval_28_" cx="140.9" cy="5.2" r="5.1"></circle>
                            <circle id="Oval_29_" cx="169" cy="23.3" r="5.1"></circle>
                            <circle id="Oval_30_" cx="150.7" cy="23.3" r="5.1"></circle>
                            <circle id="Oval_31_" cx="159.2" cy="41.4" r="5.1"></circle>
                            <circle id="Oval_32_" cx="140.9" cy="41.4" r="5.1"></circle>
                            <circle id="Oval_33_" cx="169" cy="59.6" r="5.1"></circle>
                            <circle id="Oval_34_" cx="150.7" cy="59.6" r="5.1"></circle>
                            <circle id="Oval_35_" cx="159.2" cy="77.5" r="5.1"></circle>
                            <circle id="Oval_36_" cx="140.9" cy="77.5" r="5.1"></circle>
                            <circle id="Oval_37_" cx="95.6" cy="95.6" r="5.1"></circle>
                            <circle id="Oval_38_" cx="113.9" cy="95.6" r="5.1"></circle>
                            <circle id="Oval_39_" cx="132.2" cy="95.6" r="5.1"></circle>
                            <circle id="Oval_40_" cx="169" cy="95.6" r="5.1"></circle>
                            <circle id="Oval_41_" cx="150.7" cy="95.6" r="5.1"></circle>
                            <circle id="Oval_42_" cx="159.2" cy="113.7" r="5.1"></circle>
                            <circle id="Oval_43_" cx="140.9" cy="113.7" r="5.1"></circle>
                            <circle id="Oval_44_" cx="169" cy="131.8" r="5.1"></circle>
                            <circle id="Oval_45_" cx="150.7" cy="131.8" r="5.1"></circle>
                            <path d="M164.3,149.9 C164.3,152.8 162.1,155 159.2,155 C156.3,155 154.1,152.8 154.1,149.9 C154.1,147.2 156.3,144.8 159.2,144.8 C162.1,144.8 164.3,147.3 164.3,149.9 Z" id="Shape_2_"></path>
                            <path d="M146,149.9 C146,152.8 143.8,155 140.9,155 C138,155 135.8,152.8 135.8,149.9 C135.8,147.2 138,144.8 140.9,144.8 C143.8,144.8 146,147.3 146,149.9 Z" id="Shape_3_"></path>
                            <circle id="Oval_46_" cx="169" cy="168.1" r="5.1"></circle>
                            <circle id="Oval_47_" cx="150.7" cy="168.1" r="5.1"></circle>
                            <circle id="Oval_48_" cx="159.2" cy="186.2" r="5.1"></circle>
                            <circle id="Oval_49_" cx="140.9" cy="186.2" r="5.1"></circle>
                            <path d="M45.4,5.2 C45.4,7.7 47.2,9.7 49.4,10.1 L49.4,0 C47.1,0.7 45.4,2.7 45.4,5.2 Z" id="Shape_4_"></path>
                            <path d="M45.4,41.4 C45.4,43.9 47.2,45.9 49.4,46.3 L49.4,36.3 C47.1,36.7 45.4,39 45.4,41.4 Z" id="Shape_5_"></path>
                            <path d="M49.6,72.5 C47.4,72.9 45.6,75 45.6,77.4 C45.6,80.3 47.8,82.5 50.7,82.5 C53.6,82.5 55.8,80.3 55.8,77.4 C55.8,77.2 55.8,77 55.8,76.7 L49.8,76.7 L49.8,72.4 L49.6,72.4 L49.6,72.5 Z" id="Shape_6_"></path>
                            <path d="M63.9,77.5 C63.9,80.4 66.1,82.6 69,82.6 C71.9,82.6 74.1,80.4 74.1,77.5 C74.1,77.3 74.1,77.1 74.1,76.8 L63.9,76.8 C63.9,77 63.9,77.2 63.9,77.5 Z" id="Shape_7_"></path>
                            <path d="M137.3,23.3 C137.3,20.8 135.5,18.8 133.3,18.4 L133.3,28.5 C135.5,27.8 137.3,25.8 137.3,23.3 Z" id="Shape_8_"></path>
                            <path d="M137.3,59.6 C137.3,57.1 135.5,55.1 133.3,54.7 L133.3,64.8 C135.5,64 137.3,62 137.3,59.6 Z" id="Shape_9_"></path>
                            <path d="M80.6,77.5 C80.6,80.4 82.8,82.6 85.7,82.6 C88.6,82.6 90.8,80.4 90.8,77.5 C90.8,77.3 90.8,77.1 90.8,76.8 L80.8,76.8 C80.8,77 80.6,77.2 80.6,77.5 Z" id="Shape_10_"></path>
                            <path d="M99.1,77.5 C99.1,80.4 101.3,82.6 104.2,82.6 C107.1,82.6 109.3,80.4 109.3,77.5 C109.3,77.3 109.3,77.1 109.3,76.8 L99.3,76.8 C99.1,77 99.1,77.2 99.1,77.5 Z" id="Shape_11_"></path>
                            <path d="M117.4,77.5 C117.4,80.4 119.6,82.6 122.5,82.6 C125.4,82.6 127.6,80.4 127.6,77.5 C127.6,77.3 127.6,77.1 127.6,76.8 L117.3,76.8 C117.4,77 117.4,77.2 117.4,77.5 Z" id="Shape_12_"></path>
                            <path d="M55.2,115.5 C55.4,115.1 55.4,114.4 55.4,113.9 C55.4,111 53.2,108.8 50.3,108.8 C47.4,108.8 45.2,111 45.2,113.9 C45.2,116.4 47,118.4 49.4,118.8 L49.4,115.4 L55.2,115.4 L55.2,115.5 Z" id="Shape_13_"></path>
                            <path d="M73.9,113.7 C73.9,110.8 71.7,108.6 68.8,108.6 C65.9,108.6 63.7,110.8 63.7,113.7 C63.7,114.4 63.9,114.8 63.9,115.3 L73.5,115.3 C73.9,114.8 73.9,114.4 73.9,113.7 Z" id="Shape_14_"></path>
                            <path d="M45.4,149.9 C45.4,152.4 47.2,154.4 49.6,154.8 L49.6,144.7 C47.1,145.5 45.4,147.5 45.4,149.9 Z" id="Shape_15_"></path>
                            <path d="M45.4,186.2 C45.4,188.7 47.2,190.7 49.6,191.1 L49.6,181 C47.1,181.5 45.4,183.7 45.4,186.2 Z" id="Shape_16_"></path>
                            <path d="M90.9,113.7 C90.9,110.8 88.7,108.6 85.8,108.6 C82.9,108.6 80.7,110.8 80.7,113.7 C80.7,114.4 80.9,114.8 80.9,115.3 L90.5,115.3 C90.7,114.8 90.9,114.4 90.9,113.7 Z" id="Shape_17_"></path>
                            <path d="M109.2,113.7 C109.2,110.8 107,108.6 104.1,108.6 C101.2,108.6 99,110.8 99,113.7 C99,114.4 99.2,114.8 99.2,115.3 L108.8,115.3 C109.2,114.8 109.2,114.4 109.2,113.7 Z" id="Shape_18_"></path>
                            <path d="M127.5,113.7 C127.5,110.8 125.3,108.6 122.4,108.6 C119.5,108.6 117.3,110.8 117.3,113.7 C117.3,114.4 117.5,114.8 117.5,115.3 L127.1,115.3 C127.5,114.8 127.5,114.4 127.5,113.7 Z" id="Shape_19_"></path>
                            <path d="M137.3,131.8 C137.3,129.3 135.5,127.3 133.3,126.9 L133.3,136.7 C135.5,136.3 137.3,134.3 137.3,131.8 Z" id="Shape_20_"></path>
                            <path d="M137.3,168.1 C137.3,165.6 135.5,163.6 133.3,163.2 L133.3,173 C135.5,172.5 137.3,170.5 137.3,168.1 Z" id="Shape_21_"></path>
                            <path d="M10.3,204.3 C10.3,201.4 8.1,199.2 5.2,199.2 C2.3,199.2 0,201.4 0,204.3 C0,204.5 0,205 0,205.2 L10,205.2 C10.3,204.8 10.3,204.5 10.3,204.3 Z" id="Shape_22_"></path>
                            <path d="M28.6,204.3 C28.6,201.4 26.4,199.2 23.5,199.2 C20.6,199.2 18.4,201.4 18.4,204.3 C18.4,204.5 18.4,205 18.4,205.2 L28.4,205.2 C28.6,204.8 28.6,204.5 28.6,204.3 Z" id="Shape_23_"></path>
                            <path d="M46.9,204.3 C46.9,201.4 44.7,199.2 41.8,199.2 C38.9,199.2 36.7,201.4 36.7,204.3 C36.7,204.5 36.7,205 36.7,205.2 L46.7,205.2 C46.9,204.8 46.9,204.5 46.9,204.3 Z" id="Shape_24_"></path>
                            <path d="M174.1,204.3 C174.1,201.4 171.9,199.2 169,199.2 C166.1,199.2 163.9,201.4 163.9,204.3 C163.9,204.5 163.9,204.7 163.9,205.2 L173.9,205.2 C173.9,204.8 174.1,204.5 174.1,204.3 Z" id="Shape_25_"></path>
                            <path d="M155.6,204.3 C155.6,201.4 153.4,199.2 150.5,199.2 C147.6,199.2 145.4,201.4 145.4,204.3 C145.4,204.5 145.4,204.7 145.4,205.2 L155.4,205.2 C155.6,204.8 155.6,204.5 155.6,204.3 Z" id="Shape_26_"></path>
                            <path d="M137.3,204.3 C137.3,201.8 135.5,199.8 133.3,199.4 L133.3,205.2 L137.3,205.2 C137.3,204.8 137.3,204.5 137.3,204.3 Z" id="Shape_27_"></path>
                            <path d="M177.5,0 C174.8,0 172.4,2.2 172.4,5.1 C172.4,8 174.6,10.2 177.5,10.2 C177.9,10.2 178.4,10.2 178.8,10 L178.8,0.5 C178.6,0.3 178.1,0 177.5,0 Z" id="Shape_28_"></path>
                            <path d="M177.5,36.3 C174.6,36.3 172.4,38.5 172.4,41.4 C172.4,44.3 174.6,46.5 177.5,46.5 C177.9,46.5 178.4,46.5 178.8,46.3 L178.8,36.7 C178.6,36.3 178.1,36.3 177.5,36.3 Z" id="Shape_29_"></path>
                            <path d="M177.5,72.5 C174.6,72.5 172.4,74.7 172.4,77.6 C172.4,80.5 174.6,82.7 177.5,82.7 C177.9,82.7 178.4,82.7 178.8,82.5 L178.8,73 C178.6,72.5 178.1,72.5 177.5,72.5 Z" id="Shape_30_"></path>
                            <path d="M177.5,108.8 C174.8,108.8 172.4,111 172.4,113.9 C172.4,116.8 174.6,119 177.5,119 C177.9,119 178.4,119 178.8,118.8 L178.8,109.2 C178.6,108.8 178.1,108.8 177.5,108.8 Z" id="Shape_31_"></path>
                            <path d="M177.5,144.8 C174.8,144.8 172.4,147 172.4,149.9 C172.4,152.8 174.6,155 177.5,155 C177.9,155 178.4,155 178.8,154.8 L178.8,145.2 C178.6,145 178.1,144.8 177.5,144.8 Z" id="Shape_32_"></path>
                            <path d="M177.5,181 C174.8,181 172.4,183.2 172.4,186.1 C172.4,189 174.6,191.2 177.5,191.2 C177.9,191.2 178.4,191.2 178.8,191 L178.8,181.4 C178.6,181.3 178.1,181 177.5,181 Z" id="Shape_33_"></path>
                        </g>
                        <g transform="translate(0.535188, 0.000000)">
                            <path d="M6,15 C6,11.2 9.1,8.1 12.9,8.1 L12.9,8.1 C16.7,8.1 19.8,11.2 19.8,15 L19.8,15 C19.8,18.8 16.7,21.9 12.9,21.9 L12.9,21.9 C9.1,21.9 6,18.8 6,15 L6,15 Z M9.6,15 C9.6,16.8 11.2,18.4 12.9,18.4 L12.9,18.4 C14.7,18.4 16.2,16.8 16.2,15 L16.2,15 C16.2,13.2 14.6,11.6 12.9,11.6 L12.9,11.6 C10.9,11.6 9.6,13.2 9.6,15 L9.6,15 Z" id="Shape_34_" fill="#F9B000" fill-rule="nonzero"></path>
                            <path d="M24.3,15 C24.3,11.2 27.4,8.1 31.2,8.1 L31.2,8.1 C35,8.1 38.1,11.2 38.1,15 L38.1,15 C38.1,18.8 35,21.9 31.2,21.9 L31.2,21.9 C27.4,21.9 24.3,18.8 24.3,15 L24.3,15 Z M27.9,15 C27.9,16.8 29.5,18.4 31.2,18.4 L31.2,18.4 C33,18.4 34.5,16.8 34.5,15 L34.5,15 C34.5,13.2 32.9,11.6 31.2,11.6 L31.2,11.6 C29.4,11.6 27.9,13.2 27.9,15 L27.9,15 Z" id="Shape_35_" fill="#F9B000" fill-rule="nonzero"></path>
                            <path d="M15.6,33.1 C15.6,29.3 18.7,26.2 22.5,26.2 L22.5,26.2 C26.3,26.2 29.4,29.3 29.4,33.1 L29.4,33.1 C29.4,36.9 26.3,40 22.5,40 L22.5,40 C18.7,39.8 15.6,36.9 15.6,33.1 L15.6,33.1 Z M19.4,33.1 C19.4,34.9 21,36.5 22.7,36.5 L22.7,36.5 C24.5,36.5 26,34.9 26,33.1 L26,33.1 C26,31.3 24.4,29.7 22.7,29.7 L22.7,29.7 C20.7,29.8 19.4,31.3 19.4,33.1 L19.4,33.1 Z" id="Shape_36_" fill="#F9B000" fill-rule="nonzero"></path>
                            <path d="M6,51.2 C6,47.4 9.1,44.3 12.9,44.3 L12.9,44.3 C16.7,44.3 19.8,47.4 19.8,51.2 L19.8,51.2 C19.8,55 16.7,58.1 12.9,58.1 L12.9,58.1 C9.1,57.9 6,55 6,51.2 L6,51.2 Z M9.6,51.2 C9.6,53 11.2,54.6 12.9,54.6 L12.9,54.6 C14.7,54.6 16.2,53 16.2,51.2 L16.2,51.2 C16.2,49.4 14.6,47.8 12.9,47.8 L12.9,47.8 C10.9,47.9 9.6,49.2 9.6,51.2 L9.6,51.2 Z" id="Shape_37_" fill="#F9B000" fill-rule="nonzero"></path>
                            <path d="M24.3,51.2 C24.3,47.4 27.4,44.3 31.2,44.3 L31.2,44.3 C35,44.3 38.1,47.4 38.1,51.2 L38.1,51.2 C38.1,55 35,58.1 31.2,58.1 L31.2,58.1 C27.4,57.9 24.3,55 24.3,51.2 L24.3,51.2 Z M27.9,51.2 C27.9,53 29.5,54.6 31.2,54.6 L31.2,54.6 C33,54.6 34.5,53 34.5,51.2 L34.5,51.2 C34.5,49.4 32.9,47.8 31.2,47.8 L31.2,47.8 C29.4,47.9 27.9,49.2 27.9,51.2 L27.9,51.2 Z" id="Shape_38_" fill="#F9B000" fill-rule="nonzero"></path>
                            <path d="M15.6,69.1 C15.6,65.3 18.7,62.2 22.5,62.2 L22.5,62.2 C26.3,62.2 29.4,65.3 29.4,69.1 L29.4,69.1 C29.4,72.9 26.3,76 22.5,76 L22.5,76 C18.7,76.1 15.6,72.9 15.6,69.1 L15.6,69.1 Z M19.4,69.1 C19.4,70.9 21,72.5 22.7,72.5 L22.7,72.5 C24.5,72.5 26,70.9 26,69.1 L26,69.1 C26,67.3 24.4,65.7 22.7,65.7 L22.7,65.7 C20.7,66 19.4,67.3 19.4,69.1 L19.4,69.1 Z" id="Shape_39_" fill="#F9B000" fill-rule="nonzero"></path>
                            <path d="M6,87.3 C6,83.5 9.1,80.4 12.9,80.4 L12.9,80.4 C16.7,80.4 19.8,83.5 19.8,87.3 L19.8,87.3 C19.8,91.1 16.7,94.2 12.9,94.2 L12.9,94.2 C9.1,94.2 6,91.1 6,87.3 L6,87.3 Z M9.6,87.3 C9.6,89.1 11.2,90.7 12.9,90.7 L12.9,90.7 C14.7,90.7 16.2,89.1 16.2,87.3 L16.2,87.3 C16.2,85.5 14.6,83.9 12.9,83.9 L12.9,83.9 C10.9,84.1 9.6,85.5 9.6,87.3 L9.6,87.3 Z" id="Shape_40_" fill="#F9B000" fill-rule="nonzero"></path>
                            <path d="M24.3,87.3 C24.3,83.5 27.4,80.4 31.2,80.4 L31.2,80.4 C35,80.4 38.1,83.5 38.1,87.3 L38.1,87.3 C38.1,91.1 35,94.2 31.2,94.2 L31.2,94.2 C27.4,94.2 24.3,91.1 24.3,87.3 L24.3,87.3 Z M27.9,87.3 C27.9,89.1 29.5,90.7 31.2,90.7 L31.2,90.7 C33,90.7 34.5,89.1 34.5,87.3 L34.5,87.3 C34.5,85.5 32.9,83.9 31.2,83.9 L31.2,83.9 C29.4,84.1 27.9,85.5 27.9,87.3 L27.9,87.3 Z" id="Shape_41_" fill="#F9B000" fill-rule="nonzero"></path>
                            <path d="M15.6,105.4 C15.6,101.6 18.7,98.5 22.5,98.5 L22.5,98.5 C26.3,98.5 29.4,101.6 29.4,105.4 L29.4,105.4 C29.4,109.2 26.3,112.3 22.5,112.3 L22.5,112.3 C18.7,112.3 15.6,109.2 15.6,105.4 L15.6,105.4 Z M19.4,105.4 C19.4,107.2 21,108.8 22.7,108.8 L22.7,108.8 C24.5,108.8 26,107.2 26,105.4 L26,105.4 C26,103.6 24.4,102 22.7,102 L22.7,102 C20.7,102.2 19.4,103.6 19.4,105.4 L19.4,105.4 Z" id="Shape_42_" fill="#F9B000" fill-rule="nonzero"></path>
                            <path d="M34.1,105.4 C34.1,101.6 37.2,98.5 41,98.5 L41,98.5 C44.8,98.5 47.9,101.6 47.9,105.4 L47.9,105.4 C47.9,109.2 44.8,112.3 41,112.3 L41,112.3 C37,112.3 34.1,109.2 34.1,105.4 L34.1,105.4 Z M37.7,105.4 C37.7,107.2 39.3,108.8 41,108.8 L41,108.8 C42.8,108.8 44.3,107.2 44.3,105.4 L44.3,105.4 C44.3,103.6 43,102 41,102 L41,102 C39,102.2 37.7,103.6 37.7,105.4 L37.7,105.4 Z" id="Shape_43_" fill="#F9B000" fill-rule="nonzero"></path>
                            <path d="M6,123.5 C6,119.7 9.1,116.6 12.9,116.6 L12.9,116.6 C16.7,116.6 19.8,119.7 19.8,123.5 L19.8,123.5 C19.8,127.3 16.7,130.4 12.9,130.4 L12.9,130.4 C9.1,130.4 6,127.3 6,123.5 L6,123.5 Z M9.6,123.5 C9.6,125.3 11.2,126.9 12.9,126.9 L12.9,126.9 C14.7,126.9 16.2,125.3 16.2,123.5 L16.2,123.5 C16.2,121.7 14.6,120.1 12.9,120.1 L12.9,120.1 C10.9,120.4 9.6,121.7 9.6,123.5 L9.6,123.5 Z" id="Shape_44_" fill="#F9B000" fill-rule="nonzero"></path>
                            <path d="M24.3,123.5 C24.3,119.7 27.4,116.6 31.2,116.6 L31.2,116.6 C35,116.6 38.1,119.7 38.1,123.5 L38.1,123.5 C38.1,127.3 35,130.4 31.2,130.4 L31.2,130.4 C27.4,130.4 24.3,127.3 24.3,123.5 L24.3,123.5 Z M27.9,123.5 C27.9,125.3 29.5,126.9 31.2,126.9 L31.2,126.9 C33,126.9 34.5,125.3 34.5,123.5 L34.5,123.5 C34.5,121.7 32.9,120.1 31.2,120.1 L31.2,120.1 C29.4,120.4 27.9,121.7 27.9,123.5 L27.9,123.5 Z" id="Shape_45_" fill="#F9B000" fill-rule="nonzero"></path>
                            <path d="M15.6,141.6 C15.6,137.8 18.7,134.7 22.5,134.7 L22.5,134.7 C26.3,134.7 29.4,137.8 29.4,141.6 L29.4,141.6 C29.4,145.4 26.3,148.5 22.5,148.5 L22.5,148.5 C18.7,148.6 15.6,145.4 15.6,141.6 L15.6,141.6 Z M19.4,141.6 C19.4,143.4 21,145 22.7,145 L22.7,145 C24.5,145 26,143.4 26,141.6 L26,141.6 C26,139.8 24.4,138.2 22.7,138.2 L22.7,138.2 C20.7,138.3 19.4,139.8 19.4,141.6 L19.4,141.6 Z" id="Shape_46_" fill="#F9B000" fill-rule="nonzero"></path>
                            <path d="M6,159.7 C6,155.9 9.1,152.8 12.9,152.8 L12.9,152.8 C16.7,152.8 19.8,155.9 19.8,159.7 L19.8,159.7 C19.8,163.5 16.7,166.6 12.9,166.6 L12.9,166.6 C9.1,166.7 6,163.5 6,159.7 L6,159.7 Z M9.6,159.7 C9.6,161.5 11.2,163.1 12.9,163.1 L12.9,163.1 C14.7,163.1 16.2,161.5 16.2,159.7 L16.2,159.7 C16.2,157.9 14.6,156.3 12.9,156.3 L12.9,156.3 C10.9,156.4 9.6,158 9.6,159.7 L9.6,159.7 Z" id="Shape_47_" fill="#F9B000" fill-rule="nonzero"></path>
                            <path d="M24.3,159.7 C24.3,155.9 27.4,152.8 31.2,152.8 L31.2,152.8 C35,152.8 38.1,155.9 38.1,159.7 L38.1,159.7 C38.1,163.5 35,166.6 31.2,166.6 L31.2,166.6 C27.4,166.7 24.3,163.5 24.3,159.7 L24.3,159.7 Z M27.9,159.7 C27.9,161.5 29.5,163.1 31.2,163.1 L31.2,163.1 C33,163.1 34.5,161.5 34.5,159.7 L34.5,159.7 C34.5,157.9 32.9,156.3 31.2,156.3 L31.2,156.3 C29.4,156.4 27.9,158 27.9,159.7 L27.9,159.7 Z" id="Shape_48_" fill="#F9B000" fill-rule="nonzero"></path>
                            <path d="M15.6,177.9 C15.6,174.1 18.7,171 22.5,171 L22.5,171 C26.3,171 29.4,174.1 29.4,177.9 L29.4,177.9 C29.4,181.7 26.3,184.8 22.5,184.8 L22.5,184.8 C18.7,184.8 15.6,181.7 15.6,177.9 L15.6,177.9 Z M19.4,177.9 C19.4,179.7 21,181.3 22.7,181.3 L22.7,181.3 C24.5,181.3 26,179.7 26,177.9 L26,177.9 L26,177.9 C26,176.1 24.4,174.5 22.7,174.5 L22.7,174.5 C20.7,174.5 19.4,176.1 19.4,177.9 L19.4,177.9 Z" id="Shape_49_" fill="#F9B000" fill-rule="nonzero"></path>
                            <path d="M6,196 C6,192.2 9.1,189.1 12.9,189.1 L12.9,189.1 C16.7,189.1 19.8,192.2 19.8,196 L19.8,196 C19.8,199.8 16.7,202.9 12.9,202.9 L12.9,202.9 C9.1,202.9 6,199.8 6,196 L6,196 Z M9.6,196 C9.6,197.8 11.2,199.4 12.9,199.4 L12.9,199.4 C14.7,199.4 16.2,197.8 16.2,196 L16.2,196 C16.2,194.2 14.6,192.6 12.9,192.6 L12.9,192.6 C10.9,192.6 9.6,194.2 9.6,196 L9.6,196 Z" id="Shape_50_" fill="#F9B000" fill-rule="nonzero"></path>
                            <path d="M24.3,196 C24.3,192.2 27.4,189.1 31.2,189.1 L31.2,189.1 C35,189.1 38.1,192.2 38.1,196 L38.1,196 C38.1,199.8 35,202.9 31.2,202.9 L31.2,202.9 C27.4,202.9 24.3,199.8 24.3,196 L24.3,196 Z M27.9,196 C27.9,197.8 29.5,199.4 31.2,199.4 L31.2,199.4 C33,199.4 34.5,197.8 34.5,196 L34.5,196 C34.5,194.2 32.9,192.6 31.2,192.6 L31.2,192.6 C29.4,192.6 27.9,194.2 27.9,196 L27.9,196 Z" id="Shape_51_" fill="#F9B000" fill-rule="nonzero"></path>
                            <path d="M136.3,15 C136.3,11.2 139.4,8.1 143.2,8.1 L143.2,8.1 C147,8.1 150.1,11.2 150.1,15 L150.1,15 C150.1,18.8 147,21.9 143.2,21.9 L143.2,21.9 C139.4,21.9 136.3,18.8 136.3,15 L136.3,15 Z M139.9,15 C139.9,16.8 141.5,18.4 143.2,18.4 L143.2,18.4 C145,18.4 146.5,16.8 146.5,15 L146.5,15 C146.5,13.2 144.9,11.6 143.2,11.6 L143.2,11.6 C141.4,11.6 139.9,13.2 139.9,15 L139.9,15 Z" id="Shape_52_" fill="#F9B000" fill-rule="nonzero"></path>
                            <path d="M154.6,15 C154.6,11.2 157.7,8.1 161.5,8.1 L161.5,8.1 C165.3,8.1 168.4,11.2 168.4,15 L168.4,15 C168.4,18.8 165.3,21.9 161.5,21.9 L161.5,21.9 C157.7,21.9 154.6,18.8 154.6,15 L154.6,15 Z M158.2,15 C158.2,16.8 159.5,18.4 161.5,18.4 L161.5,18.4 C163.3,18.4 164.8,16.8 164.8,15 L164.8,15 C164.8,13.2 163.2,11.6 161.5,11.6 L161.5,11.6 C159.7,11.6 158.2,13.2 158.2,15 L158.2,15 Z" id="Shape_53_" fill="#F9B000" fill-rule="nonzero"></path>
                            <path d="M146.1,33.1 C146.1,29.3 149.2,26.2 153,26.2 L153,26.2 C156.8,26.2 159.9,29.3 159.9,33.1 L159.9,33.1 C159.9,36.9 156.8,40 153,40 L153,40 C149,39.8 146.1,36.9 146.1,33.1 L146.1,33.1 Z M149.7,33.1 C149.7,34.9 151.3,36.5 153,36.5 L153,36.5 C154.8,36.5 156.3,34.9 156.3,33.1 L156.3,33.1 C156.3,31.3 154.7,29.7 153,29.7 L153,29.7 C151,29.8 149.7,31.3 149.7,33.1 L149.7,33.1 Z" id="Shape_54_" fill="#F9B000" fill-rule="nonzero"></path>
                            <path d="M136.3,51.2 C136.3,47.4 139.4,44.3 143.2,44.3 L143.2,44.3 C147,44.3 150.1,47.4 150.1,51.2 L150.1,51.2 C150.1,55 147,58.1 143.2,58.1 L143.2,58.1 C139.4,57.9 136.3,55 136.3,51.2 L136.3,51.2 Z M139.9,51.2 C139.9,53 141.5,54.6 143.2,54.6 L143.2,54.6 C145,54.6 146.5,53 146.5,51.2 L146.5,51.2 C146.5,49.4 144.9,47.8 143.2,47.8 L143.2,47.8 C141.4,47.9 139.9,49.2 139.9,51.2 L139.9,51.2 Z" id="Shape_55_" fill="#F9B000" fill-rule="nonzero"></path>
                            <path d="M154.6,51.2 C154.6,47.4 157.7,44.3 161.5,44.3 L161.5,44.3 C165.3,44.3 168.4,47.4 168.4,51.2 L168.4,51.2 C168.4,55 165.3,58.1 161.5,58.1 L161.5,58.1 C157.7,57.9 154.6,55 154.6,51.2 L154.6,51.2 Z M158.2,51.2 C158.2,53 159.8,54.6 161.5,54.6 L161.5,54.6 C163.3,54.6 164.8,53 164.8,51.2 L164.8,51.2 C164.8,49.4 163.2,47.8 161.5,47.8 L161.5,47.8 C159.7,47.9 158.2,49.2 158.2,51.2 L158.2,51.2 Z" id="Shape_56_" fill="#F9B000" fill-rule="nonzero"></path>
                            <path d="M146.1,69.1 C146.1,65.3 149.2,62.2 153,62.2 L153,62.2 C156.8,62.2 159.9,65.3 159.9,69.1 L159.9,69.1 C159.9,72.9 156.8,76 153,76 L153,76 C149,76.1 146.1,72.9 146.1,69.1 L146.1,69.1 Z M149.7,69.1 C149.7,70.9 151.3,72.5 153,72.5 L153,72.5 C154.8,72.5 156.3,70.9 156.3,69.1 L156.3,69.1 C156.3,67.3 154.7,65.7 153,65.7 L153,65.7 C151,66 149.7,67.3 149.7,69.1 L149.7,69.1 Z" id="Shape_57_" fill="#F9B000" fill-rule="nonzero"></path>
                            <path d="M44.6,87.3 C44.6,83.5 47.7,80.4 51.5,80.4 L51.5,80.4 C55.3,80.4 58.4,83.5 58.4,87.3 L58.4,87.3 C58.4,91.1 55.3,94.2 51.5,94.2 L51.5,94.2 C47.7,94.2 44.6,91.1 44.6,87.3 L44.6,87.3 Z M48.2,87.3 C48.2,89.1 49.8,90.7 51.5,90.7 L51.5,90.7 C53.3,90.7 54.8,89.1 54.8,87.3 L54.8,87.3 C54.8,85.5 53.2,83.9 51.5,83.9 L51.5,83.9 C49.5,84.1 48.2,85.5 48.2,87.3 L48.2,87.3 Z" id="Shape_58_" fill="#F9B000" fill-rule="nonzero"></path>
                            <path d="M62.9,87.3 C62.9,83.5 66,80.4 69.8,80.4 L69.8,80.4 C73.6,80.4 76.7,83.5 76.7,87.3 L76.7,87.3 C76.7,91.1 73.6,94.2 69.8,94.2 L69.8,94.2 C66,94.2 62.9,91.1 62.9,87.3 L62.9,87.3 Z M66.5,87.3 C66.5,89.1 68.1,90.7 69.8,90.7 L69.8,90.7 C71.6,90.7 73.1,89.1 73.1,87.3 L73.1,87.3 C73.1,85.5 71.5,83.9 69.8,83.9 L69.8,83.9 C68,84.1 66.5,85.5 66.5,87.3 L66.5,87.3 Z" id="Shape_59_" fill="#F9B000" fill-rule="nonzero"></path>
                            <path d="M81.2,87.3 C81.2,83.5 84.3,80.4 88.1,80.4 L88.1,80.4 C91.9,80.4 95,83.5 95,87.3 L95,87.3 C95,91.1 91.9,94.2 88.1,94.2 L88.1,94.2 C84.3,94.2 81.2,91.1 81.2,87.3 L81.2,87.3 Z M84.8,87.3 C84.8,89.1 86.4,90.7 88.1,90.7 L88.1,90.7 C89.9,90.7 91.4,89.1 91.4,87.3 L91.4,87.3 C91.4,85.5 89.8,83.9 88.1,83.9 L88.1,83.9 C86.3,84.1 84.8,85.5 84.8,87.3 L84.8,87.3 Z" id="Shape_60_" fill="#F9B000" fill-rule="nonzero"></path>
                            <path d="M118,87.3 C118,83.5 121.1,80.4 124.9,80.4 L124.9,80.4 C128.7,80.4 131.8,83.5 131.8,87.3 L131.8,87.3 C131.8,91.1 128.7,94.2 124.9,94.2 L124.9,94.2 C120.9,94.2 118,91.1 118,87.3 L118,87.3 Z M121.6,87.3 C121.6,89.1 123.2,90.7 124.9,90.7 L124.9,90.7 C126.7,90.7 128.2,89.1 128.2,87.3 L128.2,87.3 C128.2,85.5 126.6,83.9 124.9,83.9 L124.9,83.9 C122.9,84.1 121.6,85.5 121.6,87.3 L121.6,87.3 Z" id="Shape_61_" fill="#F9B000" fill-rule="nonzero"></path>
                            <path d="M136.3,87.3 C136.3,83.5 139.4,80.4 143.2,80.4 L143.2,80.4 C147,80.4 150.1,83.5 150.1,87.3 L150.1,87.3 C150.1,91.1 147,94.2 143.2,94.2 L143.2,94.2 C139.4,94.2 136.3,91.1 136.3,87.3 L136.3,87.3 Z M139.9,87.3 C139.9,89.1 141.5,90.7 143.2,90.7 L143.2,90.7 C145,90.7 146.5,89.1 146.5,87.3 L146.5,87.3 C146.5,85.5 144.9,83.9 143.2,83.9 L143.2,83.9 C141.4,84.1 139.9,85.5 139.9,87.3 L139.9,87.3 Z" id="Shape_62_" fill="#F9B000" fill-rule="nonzero"></path>
                            <path d="M154.6,87.3 C154.6,83.5 157.7,80.4 161.5,80.4 L161.5,80.4 C165.3,80.4 168.4,83.5 168.4,87.3 L168.4,87.3 C168.4,91.1 165.3,94.2 161.5,94.2 L161.5,94.2 C157.7,94.2 154.6,91.1 154.6,87.3 L154.6,87.3 Z M158.2,87.3 C158.2,89.1 159.8,90.7 161.5,90.7 L161.5,90.7 C163.3,90.7 164.8,89.1 164.8,87.3 L164.8,87.3 C164.8,85.5 163.2,83.9 161.5,83.9 L161.5,83.9 C159.7,84.1 158.2,85.5 158.2,87.3 L158.2,87.3 Z" id="Shape_63_" fill="#F9B000" fill-rule="nonzero"></path>
                            <path d="M99.5,87.3 C99.5,83.5 102.6,80.4 106.4,80.4 L106.4,80.4 C110.2,80.4 113.3,83.5 113.3,87.3 L113.3,87.3 C113.3,91.1 110.2,94.2 106.4,94.2 L106.4,94.2 C102.6,94.2 99.5,91.1 99.5,87.3 L99.5,87.3 Z M103.3,87.3 C103.3,89.1 104.9,90.7 106.6,90.7 L106.6,90.7 C108.4,90.7 109.9,89.1 109.9,87.3 L109.9,87.3 C109.9,85.5 108.3,83.9 106.6,83.9 L106.6,83.9 C104.6,84.1 103.3,85.5 103.3,87.3 L103.3,87.3 Z" id="Shape_64_" fill="#F9B000" fill-rule="nonzero"></path>
                            <path d="M54.2,105.4 C54.2,101.6 57.3,98.5 61.1,98.5 L61.1,98.5 C64.9,98.5 68,101.6 68,105.4 L68,105.4 L68,105.4 C68,109.2 64.9,112.3 61.1,112.3 L61.1,112.3 C57.3,112.3 54.2,109.2 54.2,105.4 L54.2,105.4 Z M57.8,105.4 C57.8,107.2 59.4,108.8 61.1,108.8 L61.1,108.8 C62.9,108.8 64.4,107.2 64.4,105.4 L64.4,105.4 L64.4,105.4 C64.4,103.6 62.8,102 61.1,102 L61.1,102 C59.3,102.2 58,103.6 57.8,105.4 L57.8,105.4 Z" id="Shape_65_" fill="#F9B000" fill-rule="nonzero"></path>
                            <path d="M72.7,105.4 C72.7,101.6 75.8,98.5 79.6,98.5 L79.6,98.5 C83.4,98.5 86.5,101.6 86.5,105.4 L86.5,105.4 C86.5,109.2 83.4,112.3 79.6,112.3 L79.6,112.3 C75.6,112.3 72.7,109.2 72.7,105.4 L72.7,105.4 Z M76.3,105.4 C76.3,107.2 77.9,108.8 79.6,108.8 L79.6,108.8 C81.4,108.8 82.9,107.2 82.9,105.4 L82.9,105.4 C82.9,103.6 81.3,102 79.6,102 L79.6,102 C77.6,102.2 76.3,103.6 76.3,105.4 L76.3,105.4 Z" id="Shape_66_" fill="#F9B000" fill-rule="nonzero"></path>
                            <path d="M91,105.4 C91,101.6 94.1,98.5 97.9,98.5 L97.9,98.5 C101.7,98.5 104.8,101.6 104.8,105.4 L104.8,105.4 C104.8,109.2 101.7,112.3 97.9,112.3 L97.9,112.3 C94.1,112.3 91,109.2 91,105.4 L91,105.4 Z M94.6,105.4 C94.6,107.2 96.2,108.8 97.9,108.8 L97.9,108.8 C99.7,108.8 101.2,107.2 101.2,105.4 L101.2,105.4 C101.2,103.6 99.6,102 97.9,102 L97.9,102 C96.1,102.2 94.6,103.6 94.6,105.4 L94.6,105.4 Z" id="Shape_67_" fill="#F9B000" fill-rule="nonzero"></path>
                            <path d="M127.6,105.4 C127.6,101.6 130.7,98.5 134.5,98.5 L134.5,98.5 C138.3,98.5 141.4,101.6 141.4,105.4 L141.4,105.4 C141.4,109.2 138.3,112.3 134.5,112.3 L134.5,112.3 C130.7,112.3 127.6,109.2 127.6,105.4 L127.6,105.4 Z M131.2,105.4 C131.2,107.2 132.8,108.8 134.5,108.8 L134.5,108.8 C136.3,108.8 137.8,107.2 137.8,105.4 L137.8,105.4 C137.8,103.6 136.2,102 134.5,102 L134.5,102 C132.7,102.2 131.2,103.6 131.2,105.4 L131.2,105.4 Z" id="Shape_68_" fill="#F9B000" fill-rule="nonzero"></path>
                            <path d="M146.1,105.4 C146.1,101.6 149.2,98.5 153,98.5 L153,98.5 C156.8,98.5 159.9,101.6 159.9,105.4 L159.9,105.4 L159.9,105.4 C159.9,109.2 156.8,112.3 153,112.3 L153,112.3 C149,112.3 146.1,109.2 146.1,105.4 L146.1,105.4 Z M149.7,105.4 C149.7,107.2 151.3,108.8 153,108.8 L153,108.8 C154.8,108.8 156.3,107.2 156.3,105.4 L156.3,105.4 L156.3,105.4 C156.3,103.6 154.7,102 153,102 L153,102 C151,102.2 149.7,103.6 149.7,105.4 L149.7,105.4 Z" id="Shape_69_" fill="#F9B000" fill-rule="nonzero"></path>
                            <path d="M109.3,105.4 C109.3,101.6 112.4,98.5 116.2,98.5 L116.2,98.5 C120,98.5 123.1,101.6 123.1,105.4 L123.1,105.4 C123.1,109.2 120,112.3 116.2,112.3 L116.2,112.3 C112.4,112.3 109.3,109.2 109.3,105.4 L109.3,105.4 Z M112.9,105.4 C112.9,107.2 114.5,108.8 116.2,108.8 L116.2,108.8 C118,108.8 119.5,107.2 119.5,105.4 L119.5,105.4 C119.5,103.6 117.9,102 116.2,102 L116.2,102 C114.4,102.2 112.9,103.6 112.9,105.4 L112.9,105.4 Z" id="Shape_70_" fill="#F9B000" fill-rule="nonzero"></path>
                            <path d="M136.3,123.5 C136.3,119.7 139.4,116.6 143.2,116.6 L143.2,116.6 C147,116.6 150.1,119.7 150.1,123.5 L150.1,123.5 C150.1,127.3 147,130.4 143.2,130.4 L143.2,130.4 C139.4,130.4 136.3,127.3 136.3,123.5 L136.3,123.5 Z M139.9,123.5 C139.9,125.3 141.5,126.9 143.2,126.9 L143.2,126.9 C145,126.9 146.5,125.3 146.5,123.5 L146.5,123.5 C146.5,121.7 144.9,120.1 143.2,120.1 L143.2,120.1 C141.4,120.4 139.9,121.7 139.9,123.5 L139.9,123.5 Z" id="Shape_71_" fill="#F9B000" fill-rule="nonzero"></path>
                            <path d="M154.6,123.5 C154.6,119.7 157.7,116.6 161.5,116.6 L161.5,116.6 C165.3,116.6 168.4,119.7 168.4,123.5 L168.4,123.5 C168.4,127.3 165.3,130.4 161.5,130.4 L161.5,130.4 C157.7,130.4 154.6,127.3 154.6,123.5 L154.6,123.5 Z M158.2,123.5 C158.2,125.3 159.5,126.9 161.5,126.9 L161.5,126.9 C163.3,126.9 164.8,125.3 164.8,123.5 L164.8,123.5 C164.8,121.7 163.2,120.1 161.5,120.1 L161.5,120.1 C159.7,120.4 158.2,121.7 158.2,123.5 L158.2,123.5 Z" id="Shape_72_" fill="#F9B000" fill-rule="nonzero"></path>
                            <path d="M146.1,141.6 C146.1,137.8 149.2,134.7 153,134.7 L153,134.7 C156.8,134.7 159.9,137.8 159.9,141.6 L159.9,141.6 C159.9,145.4 156.8,148.5 153,148.5 L153,148.5 C149,148.6 146.1,145.4 146.1,141.6 L146.1,141.6 Z M149.7,141.6 C149.7,143.4 151.3,145 153,145 L153,145 C154.8,145 156.3,143.4 156.3,141.6 L156.3,141.6 C156.3,139.8 154.7,138.2 153,138.2 L153,138.2 C151,138.3 149.7,139.8 149.7,141.6 L149.7,141.6 Z" id="Shape_74_" fill="#F9B000" fill-rule="nonzero"></path>
                            <path d="M136.3,159.7 C136.3,155.9 139.4,152.8 143.2,152.8 L143.2,152.8 C147,152.8 150.1,155.9 150.1,159.7 L150.1,159.7 C150.1,163.5 147,166.6 143.2,166.6 L143.2,166.6 C139.4,166.7 136.3,163.5 136.3,159.7 L136.3,159.7 Z M139.9,159.7 C139.9,161.5 141.5,163.1 143.2,163.1 L143.2,163.1 C145,163.1 146.5,161.5 146.5,159.7 L146.5,159.7 C146.5,157.9 144.9,156.3 143.2,156.3 L143.2,156.3 C141.4,156.4 139.9,158 139.9,159.7 L139.9,159.7 Z" id="Shape_75_" fill="#F9B000" fill-rule="nonzero"></path>
                            <path d="M154.6,159.7 C154.6,155.9 157.7,152.8 161.5,152.8 L161.5,152.8 C165.3,152.8 168.4,155.9 168.4,159.7 L168.4,159.7 C168.4,163.5 165.3,166.6 161.5,166.6 L161.5,166.6 C157.7,166.7 154.6,163.5 154.6,159.7 L154.6,159.7 Z M158.2,159.7 C158.2,161.5 159.5,163.1 161.5,163.1 L161.5,163.1 C163.3,163.1 164.8,161.5 164.8,159.7 L164.8,159.7 C164.8,157.9 163.2,156.3 161.5,156.3 L161.5,156.3 C159.7,156.4 158.2,158 158.2,159.7 L158.2,159.7 Z" id="Shape_76_" fill="#F9B000" fill-rule="nonzero"></path>
                            <path d="M146.1,177.9 C146.1,174.1 149.2,171 153,171 L153,171 C156.8,171 159.9,174.1 159.9,177.9 L159.9,177.9 C159.9,181.7 156.8,184.8 153,184.8 L153,184.8 C149,184.8 146.1,181.7 146.1,177.9 L146.1,177.9 Z M149.7,177.9 C149.7,179.7 151.3,181.3 153,181.3 L153,181.3 C154.8,181.3 156.3,179.7 156.3,177.9 L156.3,177.9 C156.3,176.1 154.7,174.5 153,174.5 L153,174.5 C151,174.5 149.7,176.1 149.7,177.9 L149.7,177.9 Z" id="Shape_77_" fill="#F9B000" fill-rule="nonzero"></path>
                            <path d="M136.3,196 C136.3,192.2 139.4,189.1 143.2,189.1 L143.2,189.1 C147,189.1 150.1,192.2 150.1,196 L150.1,196 C150.1,199.8 147,202.9 143.2,202.9 L143.2,202.9 C139.4,202.9 136.3,199.8 136.3,196 L136.3,196 Z M139.9,196 C139.9,197.8 141.5,199.4 143.2,199.4 L143.2,199.4 C145,199.4 146.5,197.8 146.5,196 L146.5,196 C146.5,194.2 144.9,192.6 143.2,192.6 L143.2,192.6 C141.4,192.6 139.9,194.2 139.9,196 L139.9,196 Z" id="Shape_78_" fill="#F9B000" fill-rule="nonzero"></path>
                            <path d="M154.6,196 C154.6,192.2 157.7,189.1 161.5,189.1 L161.5,189.1 C165.3,189.1 168.4,192.2 168.4,196 L168.4,196 C168.4,199.8 165.3,202.9 161.5,202.9 L161.5,202.9 C157.7,202.9 154.6,199.8 154.6,196 L154.6,196 Z M158.2,196 C158.2,197.8 159.5,199.4 161.5,199.4 L161.5,199.4 C163.3,199.4 164.8,197.8 164.8,196 L164.8,196 C164.8,194.2 163.2,192.6 161.5,192.6 L161.5,192.6 C159.7,192.6 158.2,194.2 158.2,196 L158.2,196 Z" id="Shape_79_" fill="#F9B000" fill-rule="nonzero"></path>
                            <path d="M138.3,208.3 C137.2,207.6 136.1,207.2 134.5,207.2 C133.2,207.2 131.8,207.6 130.7,208.3 L138.3,208.3 Z" id="Shape_80_" fill="#F9B000" fill-rule="nonzero"></path>
                            <path d="M156.6,208.3 C155.5,207.6 154.1,207.2 152.8,207.2 C151.5,207.2 150.1,207.6 149,208.3 L156.6,208.3 Z" id="Shape_81_" fill="#F9B000" fill-rule="nonzero"></path>
                            <path d="M174.9,208.3 C173.8,207.6 172.7,207.2 171.1,207.2 C169.8,207.2 168.4,207.6 167.3,208.3 L174.9,208.3 Z" id="Shape_82_" fill="#F9B000" fill-rule="nonzero"></path>
                            <path d="M175.8,190.4 C174,191.7 172.9,193.8 172.9,196 C172.9,198.2 174,200.5 175.8,201.6 L175.8,190.4 Z" id="Shape_83_" fill="#F9B000" fill-rule="nonzero"></path>
                            <path d="M175.8,172.7 C174.7,171.6 172.9,170.9 171.1,170.9 C167.3,170.9 164.2,174 164.2,177.8 C164.2,181.6 167.3,184.7 171.1,184.7 C172.9,184.7 174.4,184 175.8,182.9 L175.8,172.7 Z M171.4,181 C169.6,181 168.1,179.4 168.1,177.6 C168.1,175.8 169.7,174.2 171.4,174.2 C173.2,174.2 174.7,175.8 174.7,177.6 C174.5,179.7 173.1,181 171.4,181 Z" id="Shape_84_" fill="#F9B000" fill-rule="nonzero"></path>
                            <path d="M175.8,154.2 C174,155.5 172.9,157.6 172.9,159.8 C172.9,162 174,164.1 175.8,165.4 L175.8,154.2 Z" id="Shape_85_" fill="#F9B000" fill-rule="nonzero"></path>
                            <path d="M175.8,136.5 C174.7,135.4 172.9,134.7 171.1,134.7 C167.3,134.7 164.2,137.8 164.2,141.6 C164.2,145.4 167.3,148.5 171.1,148.5 C172.9,148.5 174.4,147.8 175.8,146.7 L175.8,136.5 Z M171.4,145 C169.6,145 168.1,143.7 168.1,141.6 C168.1,139.5 169.4,138.2 171.4,138.2 C173.4,138.2 174.7,139.8 174.7,141.6 C174.7,143.4 173.1,145 171.4,145 Z" id="Shape_86_" fill="#F9B000" fill-rule="nonzero"></path>
                            <path d="M175.8,117.9 C174,119.2 172.9,121.3 172.9,123.5 C172.9,125.7 174,127.8 175.8,129.1 L175.8,117.9 Z" id="Shape_87_" fill="#F9B000" fill-rule="nonzero"></path>
                            <path d="M175.8,100.5 C174.7,99.4 172.9,98.7 171.1,98.7 C167.3,98.7 164.2,101.8 164.2,105.6 C164.2,109.4 167.3,112.5 171.1,112.5 C172.9,112.5 174.4,111.8 175.8,110.7 L175.8,100.5 Z M171.4,108.7 C169.6,108.7 168.1,107.1 168.1,105.3 C168.1,103.5 169.4,101.9 171.4,101.9 C173.2,101.9 174.7,103.5 174.7,105.3 C174.5,107.2 173.1,108.7 171.4,108.7 Z" id="Shape_88_" fill="#F9B000" fill-rule="nonzero"></path>
                            <path d="M175.8,81.7 C174,83 172.9,85.1 172.9,87.3 C172.9,89.5 174,91.8 175.8,92.9 L175.8,81.7 Z" id="Shape_89_" fill="#F9B000" fill-rule="nonzero"></path>
                            <path d="M175.8,64.2 C174.5,63.1 172.9,62.4 171.1,62.4 C167.3,62.4 164.2,65.5 164.2,69.3 C164.2,73.1 167.3,76.2 171.1,76.2 C172.9,76.2 174.4,75.5 175.8,74.4 L175.8,64.2 Z M171.4,72.5 C169.6,72.5 168.1,70.9 168.1,69.1 C168.1,67.3 169.4,65.7 171.4,65.7 C173.2,65.7 174.7,67.3 174.7,69.1 C174.5,70.9 173.1,72.5 171.4,72.5 Z" id="Shape_90_" fill="#F9B000" fill-rule="nonzero"></path>
                            <path d="M175.8,45.4 C174,46.7 172.9,48.8 172.9,51 C172.9,53.2 174,55.5 175.8,56.6 L175.8,45.4 Z" id="Shape_91_" fill="#F9B000" fill-rule="nonzero"></path>
                            <path d="M175.8,28 C174.7,26.9 172.9,26.2 171.1,26.2 C167.3,26.2 164.2,29.3 164.2,33.1 C164.2,36.9 167.3,40 171.1,40 C172.9,40 174.4,39.3 175.8,38.2 L175.8,28 Z M171.4,36.2 C169.6,36.2 168.1,34.6 168.1,32.8 C168.1,31 169.4,29.4 171.4,29.4 C173.4,29.4 174.7,31 174.7,32.8 C174.5,34.9 173.1,36.2 171.4,36.2 Z" id="Shape_92_" fill="#F9B000" fill-rule="nonzero"></path>
                            <path d="M175.8,9.4 C174,10.7 172.9,12.8 172.9,15 C172.9,17.2 174,19.5 175.8,20.6 L175.8,9.4 Z" id="Shape_93_" fill="#F9B000" fill-rule="nonzero"></path>
                            <path d="M165.3,0.2 C166.4,2.2 168.6,3.8 171.3,3.8 C173.1,3.8 174.6,3.1 176,2 L176,0.4 L165.3,0.4 L165.3,0.2 Z" id="Shape_94_" fill="#F9B000" fill-rule="nonzero"></path>
                            <path d="M147,0.2 C148.1,2.2 150.3,3.8 153,3.8 C155.7,3.8 157.7,2.5 159,0.2 L147,0.2 Z" id="Shape_95_" fill="#F9B000" fill-rule="nonzero"></path>
                            <path d="M129.8,0.2 L129.8,1.8 C130.9,2.9 132.7,3.6 134.5,3.6 C137.2,3.6 139.4,2.3 140.5,0 L129.8,0 L129.8,0.2 Z" id="Shape_96_" fill="#F9B000" fill-rule="nonzero"></path>
                            <path d="M129.8,10.3 L129.8,19.5 C130.9,18.4 131.6,16.6 131.6,14.8 C131.6,13.2 131,11.6 129.8,10.3 Z" id="Shape_97_" fill="#F9B000" fill-rule="nonzero"></path>
                            <path d="M134.5,26.2 C132.7,26.2 131.2,26.9 129.8,28 L129.8,38 C130.9,39.1 132.7,39.8 134.5,39.8 C138.3,39.8 141.4,36.7 141.4,32.9 C141.4,29.3 138.3,26.2 134.5,26.2 Z M134.5,36.2 C132.7,36.2 131.2,34.6 131.2,32.8 C131.2,31 132.8,29.4 134.5,29.4 C136.2,29.4 137.8,31 137.8,32.8 C137.9,34.9 136.3,36.2 134.5,36.2 Z" id="Shape_98_" fill="#F9B000" fill-rule="nonzero"></path>
                            <path d="M129.8,46.5 L129.8,55.7 C130.9,54.6 131.6,52.8 131.6,51 C131.6,49.4 131,47.7 129.8,46.5 Z" id="Shape_99_" fill="#F9B000" fill-rule="nonzero"></path>
                            <path d="M134.5,62.4 C132.7,62.4 131.2,63.1 129.8,64.2 L129.8,74.3 C130.9,75.4 132.7,76.1 134.5,76.1 C138.3,76.1 141.4,73 141.4,69.2 C141.4,65.3 138.3,62.4 134.5,62.4 Z M134.5,72.5 C132.7,72.5 131.2,70.9 131.2,69.1 C131.2,67.3 132.8,65.7 134.5,65.7 C136.2,65.7 137.8,67.3 137.8,69.1 C137.9,70.9 136.3,72.5 134.5,72.5 Z" id="Shape_100_" fill="#F9B000" fill-rule="nonzero"></path>
                            <path d="M129.8,191.3 L129.8,200.5 C130.9,199.4 131.6,197.6 131.6,195.8 C131.6,194.2 131,192.4 129.8,191.3 Z" id="Shape_101_" fill="#F9B000" fill-rule="nonzero"></path>
                            <path d="M134.5,170.9 C132.7,170.9 131.2,171.6 129.8,172.7 L129.8,182.8 C130.9,183.9 132.7,184.6 134.5,184.6 C138.3,184.6 141.4,181.5 141.4,177.7 C141.4,174.1 138.3,170.9 134.5,170.9 Z M134.5,181 C132.7,181 131.2,179.4 131.2,177.6 C131.2,175.8 132.8,174.2 134.5,174.2 C136.2,174.2 137.8,175.8 137.8,177.6 C137.9,179.7 136.3,181 134.5,181 Z" id="Shape_102_" fill="#F9B000" fill-rule="nonzero"></path>
                            <path d="M129.8,155 L129.8,164.2 C130.9,163.1 131.6,161.3 131.6,159.5 C131.6,158 131,156.4 129.8,155 Z" id="Shape_103_" fill="#F9B000" fill-rule="nonzero"></path>
                            <path d="M51.5,116.6 C49.7,116.6 48.2,117.3 46.8,118.4 L56.2,118.4 C54.9,117.5 53.3,116.6 51.5,116.6 Z" id="Shape_104_" fill="#F9B000" fill-rule="nonzero"></path>
                            <path d="M44.6,123.5 C44.6,125.3 45.3,126.9 46.4,128 L46.4,119 C45.3,120.4 44.6,121.9 44.6,123.5 Z" id="Shape_105_" fill="#F9B000" fill-rule="nonzero"></path>
                            <path d="M69.8,116.6 C68,116.6 66.5,117.3 65.1,118.4 L74.5,118.4 C73.2,117.5 71.6,116.6 69.8,116.6 Z" id="Shape_106_" fill="#F9B000" fill-rule="nonzero"></path>
                            <path d="M88.1,116.6 C86.3,116.6 84.8,117.3 83.4,118.4 L92.8,118.4 C91.5,117.5 89.9,116.6 88.1,116.6 Z" id="Shape_107_" fill="#F9B000" fill-rule="nonzero"></path>
                            <path d="M124.9,116.6 C123.1,116.6 121.6,117.3 120.2,118.4 L129.6,118.4 C128.3,117.5 126.7,116.6 124.9,116.6 Z" id="Shape_108_" fill="#F9B000" fill-rule="nonzero"></path>
                            <path d="M131.6,123.5 C131.6,121.7 130.9,120.1 129.8,118.8 L129.8,128 C131,126.9 131.6,125.3 131.6,123.5 Z" id="Shape_109_" fill="#F9B000" fill-rule="nonzero"></path>
                            <path d="M106.4,116.6 C104.6,116.6 103.1,117.3 101.7,118.4 L111.1,118.4 C110,117.5 108.2,116.6 106.4,116.6 Z" id="Shape_110_" fill="#F9B000" fill-rule="nonzero"></path>
                            <path d="M40.8,174.5 C39,174.5 37.5,176.1 37.5,177.9 C37.5,179.7 39.1,181.3 40.8,181.3 C42.6,181.3 44.1,179.7 44.1,177.9 L44.1,177.9 C44.1,176.1 42.6,174.5 40.8,174.5 Z" id="Shape_111_"></path>
                            <ellipse id="Oval_50_" cx="40.8" cy="141.6" rx="3.3" ry="3.4"></ellipse>
                            <path d="M40.8,134.7 C37,134.7 33.9,137.8 33.9,141.6 C33.9,145.4 37,148.5 40.8,148.5 C43,148.5 44.8,147.4 46.2,146 L46.2,137.3 C45,135.8 43,134.7 40.8,134.7 Z M40.8,145 C39,145 37.5,143.7 37.5,141.6 C37.5,139.5 39.1,138.2 40.8,138.2 C42.6,138.2 44.1,139.8 44.1,141.6 C44.1,143.4 42.6,145 40.8,145 Z" id="Shape_112_" fill="#F9B000" fill-rule="nonzero"></path>
                            <path d="M40.8,170.9 C37,170.9 33.9,174 33.9,177.8 C33.9,181.6 37,184.7 40.8,184.7 C43,184.7 44.8,183.6 46.2,182 L46.2,173.3 C45,172 43,170.9 40.8,170.9 Z M44.1,177.9 C44.1,179.7 42.8,181.3 40.8,181.3 C39,181.3 37.5,179.7 37.5,177.9 C37.5,176.1 39.1,174.5 40.8,174.5 C42.6,174.5 44.1,176.1 44.1,177.9 L44.1,177.9 Z" id="Shape_113_" fill="#F9B000" fill-rule="nonzero"></path>
                            <path d="M44.6,159.7 C44.6,161.5 45.3,163.1 46.4,164.2 L46.4,155.3 C45.3,156.4 44.6,158 44.6,159.7 Z" id="Shape_114_" fill="#F9B000" fill-rule="nonzero"></path>
                            <path d="M44.6,196 C44.6,197.8 45.3,199.4 46.4,200.5 L46.4,191.6 C45.3,192.6 44.6,194.2 44.6,196 Z" id="Shape_115_" fill="#F9B000" fill-rule="nonzero"></path>
                            <path d="M4.2,207.2 C2.9,207.2 1.5,207.6 0.6,208.3 L8,208.3 C6.9,207.6 5.5,207.2 4.2,207.2 Z" id="Shape_116_" fill="#F9B000" fill-rule="nonzero"></path>
                            <path d="M22.5,207.2 C21.2,207.2 19.8,207.6 18.9,208.3 L26.3,208.3 C25.2,207.6 23.8,207.2 22.5,207.2 Z" id="Shape_117_" fill="#F9B000" fill-rule="nonzero"></path>
                            <path d="M40.8,207.2 C39.5,207.2 38.1,207.6 37.2,208.3 L44.3,208.3 C43.5,207.6 42.1,207.2 40.8,207.2 Z" id="Shape_118_" fill="#F9B000" fill-rule="nonzero"></path>
                            <path d="M4.2,145 C6,145 7.5,143.4 7.5,141.6 C7.5,139.8 5.9,138.2 4.2,138.2 C2.5,138.2 0.9,139.8 0.9,141.6 C0.9,143.4 2.4,145 4.2,145 Z" id="Shape_119_"></path>
                            <ellipse id="Oval_51_" cx="4.2" cy="105.4" rx="3.3" ry="3.4"></ellipse>
                            <ellipse id="Oval_52_" cx="4.2" cy="69.1" rx="3.3" ry="3.4"></ellipse>
                            <ellipse id="Oval_53_" cx="4.2" cy="33.1" rx="3.3" ry="3.4"></ellipse>
                            <ellipse id="Oval_54_" cx="4.2" cy="177.9" rx="3.3" ry="3.4"></ellipse>
                            <path d="M1.3,15 C1.3,14.1 1.1,13.2 0.9,12.3 L0.9,17.7 C1.1,16.8 1.3,15.9 1.3,15 Z" id="Shape_120_" fill="#F9B000" fill-rule="nonzero"></path>
                            <path d="M4.2,39.8 C8,39.8 11.1,36.7 11.1,32.9 C11.1,29.1 8,26 4.2,26 C2.9,26 1.7,26.4 0.9,26.9 L0.9,38.8 C1.7,39.6 2.9,39.8 4.2,39.8 Z M4.2,29.8 C6,29.8 7.5,31.4 7.5,33.2 C7.5,35 5.9,36.6 4.2,36.6 C2.5,36.6 0.9,35 0.9,33.2 C0.9,31.3 2.4,29.8 4.2,29.8 Z" id="Shape_121_" fill="#F9B000" fill-rule="nonzero"></path>
                            <path d="M1.3,51.2 C1.3,50.3 1.1,49.4 0.9,48.5 L0.9,53.9 C1.1,53 1.3,52.1 1.3,51.2 Z" id="Shape_122_" fill="#F9B000" fill-rule="nonzero"></path>
                            <path d="M4.2,76.1 C8,76.1 11.1,73 11.1,69.2 C11.1,65.4 8,62.3 4.2,62.3 C2.9,62.3 1.7,62.7 0.9,63.2 L0.9,75.1 C1.7,75.8 2.9,76.1 4.2,76.1 Z M4.2,66 C6,66 7.5,67.6 7.5,69.4 C7.5,71.2 5.9,72.8 4.2,72.8 C2.5,72.8 0.9,71.2 0.9,69.4 C0.9,67.3 2.4,66 4.2,66 Z" id="Shape_123_" fill="#F9B000" fill-rule="nonzero"></path>
                            <path d="M1.3,87.3 C1.3,86.4 1.1,85.5 0.9,84.6 L0.9,90 C1.1,89.3 1.3,88.4 1.3,87.3 Z" id="Shape_124_" fill="#F9B000" fill-rule="nonzero"></path>
                            <path d="M4.2,112.3 C8,112.3 11.1,109.2 11.1,105.4 C11.1,101.6 8,98.4 4.2,98.4 C2.9,98.4 1.7,98.8 0.9,99.3 L0.9,111.2 C1.7,111.9 2.9,112.3 4.2,112.3 Z M4.2,102.2 C6,102.2 7.5,103.8 7.5,105.6 C7.5,107.4 6,109 4.2,109 C2.4,109 0.9,107.4 0.9,105.6 C0.9,103.6 2.4,102.2 4.2,102.2 Z" id="Shape_125_" fill="#F9B000" fill-rule="nonzero"></path>
                            <path d="M1.3,123.5 C1.3,122.6 1.1,121.7 0.9,120.8 L0.9,126.2 C1.1,125.5 1.3,124.4 1.3,123.5 Z" id="Shape_126_" fill="#F9B000" fill-rule="nonzero"></path>
                            <path d="M4.2,148.6 C8,148.6 11.1,145.5 11.1,141.7 C11.1,137.9 8,134.8 4.2,134.8 C2.9,134.8 1.7,135.2 0.9,135.7 L0.9,147.6 C1.7,148.1 2.9,148.6 4.2,148.6 Z M4.2,138.3 C6,138.3 7.5,139.9 7.5,141.7 C7.5,143.5 5.9,145.1 4.2,145.1 C2.5,145.1 0.9,143.5 0.9,141.7 C0.9,139.8 2.4,138.3 4.2,138.3 Z" id="Shape_127_" fill="#F9B000" fill-rule="nonzero"></path>
                            <path d="M1.3,159.7 C1.3,158.8 1.1,157.9 0.9,157 L0.9,162.4 C1.1,161.5 1.3,160.6 1.3,159.7 Z" id="Shape_128_" fill="#F9B000" fill-rule="nonzero"></path>
                            <path d="M4.2,184.8 C8,184.8 11.1,181.7 11.1,177.9 C11.1,174.1 8,171 4.2,171 C2.9,171 1.7,171.4 0.9,171.9 L0.9,183.8 C1.7,184.4 2.9,184.8 4.2,184.8 Z M4.2,174.5 C6,174.5 7.5,176.1 7.5,177.9 C7.5,179.7 5.9,181.3 4.2,181.3 C2.5,181.3 0.9,179.7 0.9,177.9 C0.9,176.1 2.4,174.5 4.2,174.5 Z" id="Shape_129_" fill="#F9B000" fill-rule="nonzero"></path>
                            <path d="M1.3,196 C1.3,195.1 1.1,194.2 0.9,193.3 L0.9,198.7 C1.1,197.8 1.3,196.9 1.3,196 Z" id="Shape_130_" fill="#F9B000" fill-rule="nonzero"></path>
                            <path d="M22.5,3.8 C25.2,3.8 27.2,2.5 28.5,0.2 L16.5,0.2 C17.8,2.2 20,3.8 22.5,3.8 Z" id="Shape_131_" fill="#F9B000" fill-rule="nonzero"></path>
                            <path d="M0.9,2.9 C2,3.6 3.1,3.8 4.2,3.8 C6.9,3.8 8.9,2.5 10.2,0.2 L0.9,0.2 L0.9,2.9 Z" id="Shape_132_" fill="#F9B000" fill-rule="nonzero"></path>
                            <ellipse id="Oval_55_" cx="40.8" cy="69.1" rx="3.3" ry="3.4"></ellipse>
                            <ellipse id="Oval_56_" cx="40.8" cy="33.1" rx="3.3" ry="3.4"></ellipse>
                            <path d="M40.8,26.2 C37,26.2 33.9,29.3 33.9,33.1 C33.9,36.9 37,40 40.8,40 C43,40 44.8,38.9 46.2,37.5 L46.2,28.8 C45,27.1 43,26.2 40.8,26.2 Z M40.8,36.2 C39,36.2 37.5,34.6 37.5,32.8 C37.5,31 39.1,29.4 40.8,29.4 C42.6,29.4 44.1,31 44.1,32.8 C44.1,34.9 42.6,36.2 40.8,36.2 Z" id="Shape_133_" fill="#F9B000" fill-rule="nonzero"></path>
                            <path d="M40.8,62.4 C37,62.4 33.9,65.5 33.9,69.3 C33.9,73.1 37,76.2 40.8,76.2 C43,76.2 44.8,75.1 46.2,73.7 L46.2,64.8 C45,63.3 43,62.4 40.8,62.4 Z M40.8,72.5 C39,72.5 37.5,70.9 37.5,69.1 C37.5,67.3 39.1,65.7 40.8,65.7 C42.6,65.7 44.1,67.3 44.1,69.1 C44.1,70.9 42.6,72.5 40.8,72.5 Z" id="Shape_134_" fill="#F9B000" fill-rule="nonzero"></path>
                            <path d="M44.6,15 C44.6,16.8 45.3,18.4 46.4,19.5 L46.4,10.6 C45.3,11.6 44.6,13.2 44.6,15 Z" id="Shape_135_" fill="#F9B000" fill-rule="nonzero"></path>
                            <path d="M44.6,51.2 C44.6,53 45.3,54.6 46.4,55.7 L46.4,46.8 C45.3,47.9 44.6,49.4 44.6,51.2 Z" id="Shape_136_" fill="#F9B000" fill-rule="nonzero"></path>
                            <path d="M134.5,134.7 C132.7,134.7 131.1,135.4 129.8,136.6 L129.8,146.7 C131,147.9 132.7,148.6 134.5,148.6 C138.3,148.6 141.4,145.5 141.4,141.7 C141.4,137.8 138.3,134.7 134.5,134.7 Z M134.5,145 C132.7,145 131.2,143.4 131.2,141.6 C131.2,139.8 132.8,138.2 134.5,138.2 C136.3,138.2 137.8,139.8 137.8,141.6 C137.8,143.4 136.3,145 134.5,145 Z" id="Shape" fill="#F9B000" fill-rule="nonzero"></path>
                        </g>
                    </g>
                    <g id="Shape_137_" transform="translate(128.000000, 3.000000)">
                        <polygon id="Shape" points="0 0 45 0 45 204.4 0 204.4"></polygon>
                        <polygon id="Shape" fill="#E63312" fill-rule="nonzero" points="79.4 7.4 79.4 12.3 91.5 0.4 86.3 0.4"></polygon>
                        <polygon id="Shape" fill="#E63312" fill-rule="nonzero" points="79.4 19.5 79.4 24.6 103.8 0.4 98.7 0.4"></polygon>
                        <polygon id="Shape" fill="#E63312" fill-rule="nonzero" points="79.4 31.8 79.4 36.9 116.1 0.4 111 0.4"></polygon>
                        <polygon id="Shape" fill="#E63312" fill-rule="nonzero" points="79.4 153.3 79.4 158.4 124.4 113.4 124.4 108.2"></polygon>
                        <polygon id="Shape" fill="#E63312" fill-rule="nonzero" points="79.4 165.6 79.4 170.8 124.4 125.7 124.4 120.6"></polygon>
                        <polygon id="Shape" fill="#E63312" fill-rule="nonzero" points="79.4 177.9 79.4 183.1 124.4 138 124.4 132.9"></polygon>
                        <polygon id="Shape" fill="#E63312" fill-rule="nonzero" points="79.4 190.3 79.4 195.2 124.4 150.4 124.4 145.2"></polygon>
                        <polygon id="Shape" fill="#E63312" fill-rule="nonzero" points="79.4 56.4 79.4 61.6 124.4 16.6 124.4 11.4"></polygon>
                        <polygon id="Shape" fill="#E63312" fill-rule="nonzero" points="79.4 68.8 79.4 73.9 124.4 28.9 124.4 23.7"></polygon>
                        <polygon id="Shape" fill="#E63312" fill-rule="nonzero" points="79.4 80.9 79.4 86 124.4 41 124.4 36.1"></polygon>
                        <polygon id="Shape" fill="#E63312" fill-rule="nonzero" points="79.4 93.2 79.4 98.4 124.4 53.3 124.4 48.2"></polygon>
                        <polygon id="Shape" fill="#E63312" fill-rule="nonzero" points="79.4 104.2 79.4 109.3 124.4 64.3 124.4 59.1"></polygon>
                        <polygon id="Shape" fill="#E63312" fill-rule="nonzero" points="79.4 116.5 79.4 121.7 124.4 76.6 124.4 71.5"></polygon>
                        <polygon id="Shape" fill="#E63312" fill-rule="nonzero" points="79.4 128.8 79.4 133.8 124.4 88.9 124.4 83.8"></polygon>
                        <polygon id="Shape" fill="#E63312" fill-rule="nonzero" points="79.4 140.9 79.4 146.1 124.4 101.1 124.4 96.1"></polygon>
                        <polygon id="Shape" fill="#E63312" fill-rule="nonzero" points="124.4 162.5 124.4 157.5 79.4 202.4 79.4 204.4 82.5 204.4"></polygon>
                        <polygon id="Shape" fill="#E63312" fill-rule="nonzero" points="124.4 174.8 124.4 169.6 89.7 204.4 94.9 204.4"></polygon>
                        <polygon id="Shape" fill="#E63312" fill-rule="nonzero" points="124.4 187.1 124.4 182 102 204.4 107.2 204.4"></polygon>
                        <polygon id="Shape" fill="#E63312" fill-rule="nonzero" points="124.4 199.4 124.4 194.3 114.3 204.4 119.5 204.4"></polygon>
                        <polygon id="Shape" fill="#E63312" fill-rule="nonzero" points="124.4 0.4 123.3 0.4 79.4 44.1 79.4 49.3 124.4 4.2"></polygon>
                    </g>
                    <g id="Shape_138_" transform="translate(214.570707, 3.000000)" fill-rule="nonzero" fill="#0069B4">
                        <path d="M9.2,200.8 C8.5,201.5 7.4,201.5 6.7,200.8 L6.7,200.8 L2.9,197 C2.2,196.3 2.2,195.2 2.9,194.5 L2.9,194.5 C3.6,193.8 4.7,193.8 5.4,194.5 L5.4,194.5 L9.2,198.3 C9.6,198.7 9.6,199.2 9.6,199.6 L9.6,199.6 C9.6,199.9 9.4,200.3 9.2,200.8 L9.2,200.8 Z" id="Shape"></path>
                        <path d="M23.1,202.4 C22.4,203.1 21.3,203.1 20.6,202.4 L20.6,202.4 L16.8,198.6 C16.1,197.9 16.1,196.8 16.8,196.1 L16.8,196.1 C17.5,195.4 18.6,195.4 19.3,196.1 L19.3,196.1 L23.1,199.9 C23.5,200.3 23.5,200.8 23.5,201.2 L23.5,201.2 C23.5,201.5 23.3,201.9 23.1,202.4 L23.1,202.4 Z" id="Shape"></path>
                        <path d="M15.2,194.5 C14.5,195.2 13.4,195.2 12.7,194.5 L12.7,194.5 L8.9,190.7 C8.2,190 8.2,188.9 8.9,188.2 L8.9,188.2 C9.6,187.5 10.7,187.5 11.4,188.2 L11.4,188.2 L15.2,192 C15.6,192.4 15.6,192.9 15.6,193.3 L15.6,193.3 C15.9,193.8 15.7,194.3 15.2,194.5 L15.2,194.5 Z" id="Shape"></path>
                        <path d="M7.6,186.9 C6.9,187.6 5.8,187.6 5.1,186.9 L5.1,186.9 L1.3,183.1 C0.6,182.4 0.6,181.3 1.3,180.6 L1.3,180.6 C2,179.9 3.1,179.9 3.8,180.6 L3.8,180.6 L7.6,184.4 C8,184.8 8,185.3 8,185.7 L8,185.7 C8.1,186 7.8,186.4 7.6,186.9 L7.6,186.9 Z" id="Shape"></path>
                        <path d="M36.7,203.9 C36,204.6 34.9,204.6 34.2,203.9 L34.2,203.9 L30.4,200.1 C29.7,199.4 29.7,198.3 30.4,197.6 L30.4,197.6 C31.1,196.9 32.2,196.9 32.9,197.6 L32.9,197.6 L36.7,201.4 C37.1,201.8 37.1,202.3 37.1,202.7 L37.1,202.7 C37.4,203 37.2,203.5 36.7,203.9 L36.7,203.9 Z" id="Shape"></path>
                        <path d="M29.1,196.1 C28.4,196.8 27.3,196.8 26.6,196.1 L26.6,196.1 L22.8,192.3 C22.1,191.6 22.1,190.5 22.8,189.8 L22.8,189.8 C23.5,189.1 24.6,189.1 25.3,189.8 L25.3,189.8 L29.1,193.6 C29.5,194 29.5,194.5 29.5,194.9 L29.5,194.9 C29.6,195.4 29.6,195.9 29.1,196.1 L29.1,196.1 Z" id="Shape"></path>
                        <path d="M21.5,188.5 C20.8,189.2 19.7,189.2 19,188.5 L19,188.5 L15.2,184.7 C14.5,184 14.5,182.9 15.2,182.2 L15.2,182.2 C15.9,181.5 17,181.5 17.7,182.2 L17.7,182.2 L21.5,186 C21.9,186.4 21.9,186.9 21.9,187.3 L21.9,187.3 C21.9,187.6 21.7,188 21.5,188.5 L21.5,188.5 Z" id="Shape"></path>
                        <path d="M13.7,180.8 C13,181.5 11.9,181.5 11.2,180.8 L11.2,180.8 L7.4,177 C6.7,176.3 6.7,175.2 7.4,174.5 L7.4,174.5 C8.1,173.8 9.2,173.8 9.9,174.5 L9.9,174.5 L13.7,178.3 C14.1,178.7 14.1,179.2 14.1,179.6 L14.1,179.6 C14.3,179.9 14.1,180.4 13.7,180.8 L13.7,180.8 Z" id="Shape"></path>
                        <path d="M43,197.7 C42.3,198.4 41.2,198.4 40.5,197.7 L40.5,197.7 L36.7,193.9 C36,193.2 36,192.1 36.7,191.4 L36.7,191.4 C37.4,190.7 38.5,190.7 39.2,191.4 L39.2,191.4 L43,195.2 C43.4,195.6 43.4,196.1 43.4,196.5 L43.4,196.5 C43.4,197 43.2,197.4 43,197.7 L43,197.7 Z" id="Shape"></path>
                        <path d="M35.2,190 C34.5,190.7 33.4,190.7 32.7,190 L32.7,190 L28.9,186.2 C28.2,185.5 28.2,184.4 28.9,183.7 L28.9,183.7 C29.6,183 30.7,183 31.4,183.7 L31.4,183.7 L35.2,187.5 C35.6,187.9 35.6,188.4 35.6,188.8 L35.6,188.8 C35.8,189.1 35.6,189.6 35.2,190 L35.2,190 Z" id="Shape"></path>
                        <path d="M27.5,182.4 C26.8,183.1 25.7,183.1 25,182.4 L25,182.4 L21.2,178.6 C20.5,177.9 20.5,176.8 21.2,176.1 L21.2,176.1 C21.9,175.4 23,175.4 23.7,176.1 L23.7,176.1 L27.5,179.9 C27.9,180.3 27.9,180.8 27.9,181.2 L27.9,181.2 C28,181.5 28,182 27.5,182.4 L27.5,182.4 Z" id="Shape"></path>
                        <path d="M19.9,174.6 C19.2,175.3 18.1,175.3 17.4,174.6 L17.4,174.6 L13.6,170.8 C12.9,170.1 12.9,169 13.6,168.3 L13.6,168.3 C14.3,167.6 15.4,167.6 16.1,168.3 L16.1,168.3 L19.9,172.1 C20.3,172.5 20.3,173 20.3,173.4 L20.3,173.4 C20.4,173.9 20.2,174.3 19.9,174.6 L19.9,174.6 Z" id="Shape"></path>
                        <path d="M12.1,166.9 C11.4,167.6 10.3,167.6 9.6,166.9 L9.6,166.9 L5.8,163.1 C5.1,162.4 5.1,161.3 5.8,160.6 L5.8,160.6 C6.5,159.9 7.6,159.9 8.3,160.6 L8.3,160.6 L12.1,164.4 C12.5,164.8 12.5,165.3 12.5,165.7 L12.5,165.7 C12.8,166 12.5,166.5 12.1,166.9 L12.1,166.9 Z" id="Shape"></path>
                        <path d="M41.4,184 C40.7,184.7 39.6,184.7 38.9,184 L38.9,184 L35.1,180.2 C34.4,179.5 34.4,178.4 35.1,177.7 L35.1,177.7 C35.8,177 36.9,177 37.6,177.7 L37.6,177.7 L41.4,181.5 C41.8,181.9 41.8,182.4 41.8,182.8 L41.8,182.8 C41.9,183.1 41.6,183.5 41.4,184 L41.4,184 Z" id="Shape"></path>
                        <path d="M33.6,176.1 C32.9,176.8 31.8,176.8 31.1,176.1 L31.1,176.1 L27.3,172.3 C26.6,171.6 26.6,170.5 27.3,169.8 L27.3,169.8 C28,169.1 29.1,169.1 29.8,169.8 L29.8,169.8 L33.6,173.6 C34,174 34,174.5 34,174.9 L34,174.9 C34.3,175.2 34,175.9 33.6,176.1 L33.6,176.1 Z" id="Shape"></path>
                        <path d="M26,168.5 C25.3,169.2 24.2,169.2 23.5,168.5 L23.5,168.5 L19.7,164.7 C19,164 19,162.9 19.7,162.2 L19.7,162.2 C20.4,161.5 21.5,161.5 22.2,162.2 L22.2,162.2 L26,166 C26.4,166.4 26.4,166.9 26.4,167.3 L26.4,167.3 C26.4,167.6 26.4,168.1 26,168.5 L26,168.5 Z" id="Shape"></path>
                        <path d="M18.4,160.7 C17.7,161.4 16.6,161.4 15.9,160.7 L15.9,160.7 L12.1,156.9 C11.4,156.2 11.4,155.1 12.1,154.4 L12.1,154.4 C12.8,153.7 13.9,153.7 14.6,154.4 L14.6,154.4 L18.4,158.2 C18.8,158.6 18.8,159.1 18.8,159.5 L18.8,159.5 C18.8,160 18.6,160.4 18.4,160.7 L18.4,160.7 Z" id="Shape"></path>
                        <path d="M10.5,153 C9.8,153.7 8.7,153.7 8,153 L8,153 L4.2,149.2 C3.5,148.5 3.5,147.4 4.2,146.7 L4.2,146.7 C4.9,146 6,146 6.7,146.7 L6.7,146.7 L10.5,150.5 C10.9,150.9 10.9,151.4 10.9,151.8 L10.9,151.8 C11.2,152.2 11,152.6 10.5,153 L10.5,153 Z" id="Shape"></path>
                        <path d="M39.9,170.1 C39.2,170.8 38.1,170.8 37.4,170.1 L37.4,170.1 L33.6,166.3 C32.9,165.6 32.9,164.5 33.6,163.8 L33.6,163.8 C34.3,163.1 35.4,163.1 36.1,163.8 L36.1,163.8 L39.9,167.6 C40.3,168 40.3,168.5 40.3,168.9 L40.3,168.9 C40.3,169.2 40.1,169.6 39.9,170.1 L39.9,170.1 Z" id="Shape"></path>
                        <path d="M32,162.2 C31.3,162.9 30.2,162.9 29.5,162.2 L29.5,162.2 L25.7,158.4 C25,157.7 25,156.6 25.7,155.9 L25.7,155.9 C26.4,155.2 27.5,155.2 28.2,155.9 L28.2,155.9 L32,159.7 C32.4,160.1 32.4,160.6 32.4,161 L32.4,161 C32.7,161.6 32.5,162 32,162.2 L32,162.2 Z" id="Shape"></path>
                        <path d="M24.4,154.6 C23.7,155.3 22.6,155.3 21.9,154.6 L21.9,154.6 L18.1,150.8 C17.4,150.1 17.4,149 18.1,148.3 L18.1,148.3 C18.8,147.6 19.9,147.6 20.6,148.3 L20.6,148.3 L24.4,152.1 C24.8,152.5 24.8,153 24.8,153.4 L24.8,153.4 C24.9,153.7 24.9,154.2 24.4,154.6 L24.4,154.6 Z" id="Shape"></path>
                        <path d="M16.8,147 C16.1,147.7 15,147.7 14.3,147 L14.3,147 L10.5,143.2 C9.8,142.5 9.8,141.4 10.5,140.7 L10.5,140.7 C11.2,140 12.3,140 13,140.7 L13,140.7 L16.8,144.5 C17.2,144.9 17.2,145.4 17.2,145.8 L17.2,145.8 C17.2,146.1 17,146.5 16.8,147 L16.8,147 Z" id="Shape"></path>
                        <path d="M9,139.2 C8.3,139.9 7.2,139.9 6.5,139.2 L6.5,139.2 L2.7,135.4 C2,134.7 2,133.6 2.7,132.9 L2.7,132.9 C3.4,132.2 4.5,132.2 5.2,132.9 L5.2,132.9 L9,136.7 C9.4,137.1 9.4,137.6 9.4,138 L9.4,138 C9.6,138.5 9.4,138.9 9,139.2 L9,139.2 Z" id="Shape"></path>
                        <path d="M38.3,156.2 C37.6,156.9 36.5,156.9 35.8,156.2 L35.8,156.2 L32,152.4 C31.3,151.7 31.3,150.6 32,149.9 L32,149.9 C32.7,149.2 33.8,149.2 34.5,149.9 L34.5,149.9 L38.3,153.7 C38.7,154.1 38.7,154.6 38.7,155 L38.7,155 C38.7,155.3 38.5,155.7 38.3,156.2 L38.3,156.2 Z" id="Shape"></path>
                        <path d="M30.5,148.6 C29.8,149.3 28.7,149.3 28,148.6 L28,148.6 L24.2,144.8 C23.5,144.1 23.5,143 24.2,142.3 L24.2,142.3 C24.9,141.6 26,141.6 26.7,142.3 L26.7,142.3 L30.5,146.1 C30.9,146.5 30.9,147 30.9,147.4 L30.9,147.4 C31.1,147.7 30.9,148.1 30.5,148.6 L30.5,148.6 Z" id="Shape"></path>
                        <path d="M22.8,140.7 C22.1,141.4 21,141.4 20.3,140.7 L20.3,140.7 L16.5,136.9 C15.8,136.2 15.8,135.1 16.5,134.4 L16.5,134.4 C17.2,133.7 18.3,133.7 19,134.4 L19,134.4 L22.8,138.2 C23.2,138.6 23.2,139.1 23.2,139.5 L23.2,139.5 C23.5,140 23.3,140.5 22.8,140.7 L22.8,140.7 Z" id="Shape"></path>
                        <path d="M15.2,133.1 C14.5,133.8 13.4,133.8 12.7,133.1 L12.7,133.1 L8.9,129.3 C8.2,128.6 8.2,127.5 8.9,126.8 L8.9,126.8 C9.6,126.1 10.7,126.1 11.4,126.8 L11.4,126.8 L15.2,130.6 C15.6,131 15.6,131.5 15.6,131.9 L15.6,131.9 C15.7,132.2 15.5,132.7 15.2,133.1 L15.2,133.1 Z" id="Shape"></path>
                        <path d="M44.3,150.1 C43.6,150.8 42.5,150.8 41.8,150.1 L41.8,150.1 L38,146.3 C37.3,145.6 37.3,144.5 38,143.8 L38,143.8 C38.7,143.1 39.8,143.1 40.5,143.8 L40.5,143.8 L44.3,147.6 C44.7,148 44.7,148.5 44.7,148.9 L44.7,148.9 C45,149.2 44.8,149.7 44.3,150.1 L44.3,150.1 Z" id="Shape"></path>
                        <path d="M36.7,142.3 C36,143 34.9,143 34,142.3 L34,142.3 L30.2,138.5 C29.5,137.8 29.5,136.7 30.2,136 L30.2,136 C30.9,135.3 32,135.3 32.7,136 L32.7,136 L36.5,139.8 C36.9,140.2 36.9,140.7 36.9,141.1 L36.9,141.1 C37.2,141.6 36.9,142.1 36.7,142.3 L36.7,142.3 Z" id="Shape"></path>
                        <path d="M29.1,134.7 C28.4,135.4 27.3,135.4 26.6,134.7 L26.6,134.7 L22.8,130.9 C22.1,130.2 22.1,129.1 22.8,128.4 L22.8,128.4 C23.5,127.7 24.6,127.7 25.3,128.4 L25.3,128.4 L29.1,132.2 C29.5,132.6 29.5,133.1 29.5,133.5 L29.5,133.5 C29.6,133.8 29.3,134.2 29.1,134.7 L29.1,134.7 Z" id="Shape"></path>
                        <path d="M21.3,126.8 C20.6,127.5 19.5,127.5 18.8,126.8 L18.8,126.8 L15,123 C14.3,122.3 14.3,121.2 15,120.5 L15,120.5 C15.7,119.8 16.8,119.8 17.5,120.5 L17.5,120.5 L21.3,124.3 C21.7,124.7 21.7,125.2 21.7,125.6 L21.7,125.6 C21.9,126.2 21.7,126.6 21.3,126.8 L21.3,126.8 Z" id="Shape"></path>
                        <path d="M13.7,119.2 C13,119.9 11.9,119.9 11.2,119.2 L11.2,119.2 L7.4,115.4 C6.7,114.7 6.7,113.6 7.4,112.9 L7.4,112.9 C8.1,112.2 9.2,112.2 9.9,112.9 L9.9,112.9 L13.7,116.7 C14.1,117.1 14.1,117.6 14.1,118 L14.1,118 C14.1,118.3 13.9,118.8 13.7,119.2 L13.7,119.2 Z" id="Shape"></path>
                        <path d="M42.8,136.2 C42.1,136.9 41,136.9 40.3,136.2 L40.3,136.2 L36.5,132.4 C35.8,131.7 35.8,130.6 36.5,129.9 L36.5,129.9 C37.2,129.2 38.3,129.2 39,129.9 L39,129.9 L42.8,133.7 C43.2,134.1 43.2,134.6 43.2,135 L43.2,135 C43.4,135.3 43.2,135.8 42.8,136.2 L42.8,136.2 Z" id="Shape"></path>
                        <path d="M35.2,128.4 C34.5,129.1 33.4,129.1 32.7,128.4 L32.7,128.4 L28.9,124.6 C28.2,123.9 28.2,122.8 28.9,122.1 L28.9,122.1 C29.6,121.4 30.7,121.4 31.4,122.1 L31.4,122.1 L35.2,125.9 C35.6,126.3 35.6,126.8 35.6,127.2 L35.6,127.2 C35.6,127.7 35.4,128.2 35.2,128.4 L35.2,128.4 Z" id="Shape"></path>
                        <path d="M27.5,120.8 C26.8,121.5 25.7,121.5 25,120.8 L25,120.8 L21.2,117 C20.5,116.3 20.5,115.2 21.2,114.5 L21.2,114.5 C21.9,113.8 23,113.8 23.7,114.5 L23.7,114.5 L27.5,118.3 C27.9,118.7 27.9,119.2 27.9,119.6 L27.9,119.6 C28,119.9 27.8,120.3 27.5,120.8 L27.5,120.8 Z" id="Shape"></path>
                        <path d="M19.7,113.2 C19,113.9 17.9,113.9 17.2,113.2 L17.2,113.2 L13.4,109.4 C12.7,108.7 12.7,107.6 13.4,106.9 L13.4,106.9 C14.1,106.2 15.2,106.2 15.9,106.9 L15.9,106.9 L19.7,110.7 C20.1,111.1 20.1,111.6 20.1,112 L20.1,112 C20.4,112.3 20.2,112.7 19.7,113.2 L19.7,113.2 Z" id="Shape"></path>
                        <path d="M12.1,105.3 C11.4,106 10.3,106 9.6,105.3 L9.6,105.3 L5.8,101.5 C5.1,100.8 5.1,99.7 5.8,99 L5.8,99 C6.5,98.3 7.6,98.3 8.3,99 L8.3,99 L12.1,102.8 C12.5,103.2 12.5,103.7 12.5,104.1 L12.5,104.1 C12.5,104.6 12.3,105.1 12.1,105.3 L12.1,105.3 Z" id="Shape"></path>
                        <path d="M41.2,122.3 C40.5,123 39.4,123 38.7,122.3 L38.7,122.3 L34.9,118.5 C34.2,117.8 34.2,116.7 34.9,116 L34.9,116 C35.6,115.3 36.7,115.3 37.4,116 L37.4,116 L41.2,119.8 C41.6,120.2 41.6,120.7 41.6,121.1 L41.6,121.1 C41.9,121.4 41.6,121.9 41.2,122.3 L41.2,122.3 Z" id="Shape"></path>
                        <path d="M33.6,114.7 C32.9,115.4 31.8,115.4 31.1,114.7 L31.1,114.7 L27.3,110.9 C26.6,110.2 26.6,109.1 27.3,108.4 L27.3,108.4 C28,107.7 29.1,107.7 29.8,108.4 L29.8,108.4 L33.6,112.2 C34,112.6 34,113.1 34,113.5 L34,113.5 C34,113.8 34,114.3 33.6,114.7 L33.6,114.7 Z" id="Shape"></path>
                        <path d="M26,106.9 C25.3,107.6 24.2,107.6 23.5,106.9 L23.5,106.9 L19.7,103.1 C19,102.4 19,101.3 19.7,100.6 L19.7,100.6 C20.4,99.9 21.5,99.9 22.2,100.6 L22.2,100.6 L26,104.4 C26.4,104.8 26.4,105.3 26.4,105.7 L26.4,105.7 C26.4,106.2 26.2,106.7 26,106.9 L26,106.9 Z" id="Shape"></path>
                        <path d="M18.1,99.3 C17.4,100 16.3,100 15.6,99.3 L15.6,99.3 L11.8,95.5 C11.1,94.8 11.1,93.7 11.8,93 L11.8,93 C12.5,92.3 13.6,92.3 14.3,93 L14.3,93 L18.1,96.8 C18.5,97.2 18.5,97.7 18.5,98.1 L18.5,98.1 C18.8,98.4 18.6,98.8 18.1,99.3 L18.1,99.3 Z" id="Shape"></path>
                        <path d="M10.5,91.4 C9.8,92.1 8.7,92.1 8,91.4 L8,91.4 L4.2,87.6 C3.5,86.9 3.5,85.8 4.2,85.1 L4.2,85.1 C4.9,84.4 6,84.4 6.7,85.1 L6.7,85.1 L10.5,88.9 C10.9,89.3 10.9,89.8 10.9,90.2 L10.9,90.2 C11,90.7 10.7,91.2 10.5,91.4 L10.5,91.4 Z" id="Shape"></path>
                        <path d="M39,109.1 C38.3,109.8 37.2,109.8 36.5,109.1 L36.5,109.1 L32.7,105.3 C32,104.6 32,103.5 32.7,102.8 L32.7,102.8 C33.4,102.1 34.5,102.1 35.2,102.8 L35.2,102.8 L39,106.6 C39.4,107 39.4,107.5 39.4,107.9 L39.4,107.9 C39.6,108.4 39.4,108.9 39,109.1 L39,109.1 Z" id="Shape"></path>
                        <path d="M31.3,101.5 C30.6,102.2 29.5,102.2 28.8,101.5 L28.8,101.5 L25,97.7 C24.3,97 24.3,95.9 25,95.2 L25,95.2 C25.7,94.5 26.8,94.5 27.5,95.2 L27.5,95.2 L31.3,99 C31.7,99.4 31.7,99.9 31.7,100.3 L31.7,100.3 C31.8,100.6 31.8,101.1 31.3,101.5 L31.3,101.5 Z" id="Shape"></path>
                        <path d="M23.7,93.9 C23,94.6 21.9,94.6 21.2,93.9 L21.2,93.9 L17.4,90.1 C16.7,89.4 16.7,88.3 17.4,87.6 L17.4,87.6 C18.1,86.9 19.2,86.9 19.9,87.6 L19.9,87.6 L23.7,91.4 C24.1,91.8 24.1,92.3 24.1,92.7 L24.1,92.7 C24.2,93 24,93.4 23.7,93.9 L23.7,93.9 Z" id="Shape"></path>
                        <path d="M15.9,86 C15.2,86.7 14.1,86.7 13.4,86 L13.4,86 L9.6,82.2 C8.9,81.5 8.9,80.4 9.6,79.7 L9.6,79.7 C10.3,79 11.4,79 12.1,79.7 L12.1,79.7 L15.9,83.5 C16.3,83.9 16.3,84.4 16.3,84.8 L16.3,84.8 C16.6,85.4 16.3,85.8 15.9,86 L15.9,86 Z" id="Shape"></path>
                        <path d="M8.3,78.4 C7.6,79.1 6.5,79.1 5.8,78.4 L5.8,78.4 L2,74.6 C1.3,73.9 1.3,72.8 2,72.1 L2,72.1 C2.7,71.4 3.8,71.4 4.5,72.1 L4.5,72.1 L8.3,75.9 C8.7,76.3 8.7,76.8 8.7,77.2 L8.7,77.2 C8.7,77.5 8.5,78 8.3,78.4 L8.3,78.4 Z" id="Shape"></path>
                        <path d="M45.2,103.1 C44.5,103.8 43.4,103.8 42.7,103.1 L42.7,103.1 L38.9,99.3 C38.2,98.6 38.2,97.5 38.9,96.8 L38.9,96.8 C39.6,96.1 40.7,96.1 41.4,96.8 L41.4,96.8 L45.2,100.6 C45.6,101 45.6,101.5 45.6,101.9 L45.6,101.9 C45.7,102.2 45.5,102.6 45.2,103.1 L45.2,103.1 Z" id="Shape"></path>
                        <path d="M37.4,95.2 C36.7,95.9 35.6,95.9 34.9,95.2 L34.9,95.2 L31.1,91.4 C30.4,90.7 30.4,89.6 31.1,88.9 L31.1,88.9 C31.8,88.2 32.9,88.2 33.6,88.9 L33.6,88.9 L37.4,92.7 C37.8,93.1 37.8,93.6 37.8,94 L37.8,94 C38.1,94.6 37.8,95 37.4,95.2 L37.4,95.2 Z" id="Shape"></path>
                        <path d="M29.8,87.6 C29.1,88.3 28,88.3 27.3,87.6 L27.3,87.6 L23.5,83.8 C22.8,83.1 22.8,82 23.5,81.3 L23.5,81.3 C24.2,80.6 25.3,80.6 26,81.3 L26,81.3 L29.8,85.1 C30.2,85.5 30.2,86 30.2,86.4 L30.2,86.4 C30.2,86.7 30.2,87.4 29.8,87.6 L29.8,87.6 Z" id="Shape"></path>
                        <path d="M22.2,80 C21.5,80.7 20.4,80.7 19.7,80 L19.7,80 L15.9,76.2 C15.2,75.5 15.2,74.4 15.9,73.7 L15.9,73.7 C16.6,73 17.7,73 18.4,73.7 L18.4,73.7 L22.2,77.5 C22.6,77.9 22.6,78.4 22.6,78.8 L22.6,78.8 C22.6,79.1 22.4,79.5 22.2,80 L22.2,80 Z" id="Shape"></path>
                        <path d="M14.3,72.1 C13.6,72.8 12.5,72.8 11.8,72.1 L11.8,72.1 L8,68.3 C7.3,67.6 7.3,66.5 8,65.8 L8,65.8 C8.7,65.1 9.8,65.1 10.5,65.8 L10.5,65.8 L14.3,69.6 C14.7,70 14.7,70.5 14.7,70.9 L14.7,70.9 C15,71.5 14.8,71.9 14.3,72.1 L14.3,72.1 Z" id="Shape"></path>
                        <path d="M43.7,89.2 C43,89.9 41.9,89.9 41.2,89.2 L41.2,89.2 L37.4,85.4 C36.7,84.7 36.7,83.6 37.4,82.9 L37.4,82.9 C38.1,82.2 39.2,82.2 39.9,82.9 L39.9,82.9 L43.7,86.7 C44.1,87.1 44.1,87.6 44.1,88 L44.1,88 C44.1,88.3 43.9,88.9 43.7,89.2 L43.7,89.2 Z" id="Shape"></path>
                        <path d="M35.8,81.6 C35.1,82.3 34,82.3 33.3,81.6 L33.3,81.6 L29.5,77.8 C28.8,77.1 28.8,76 29.5,75.3 L29.5,75.3 C30.2,74.6 31.3,74.6 32,75.3 L32,75.3 L35.8,79.1 C36.2,79.5 36.2,80 36.2,80.4 L36.2,80.4 C36.5,80.7 36.3,81.1 35.8,81.6 L35.8,81.6 Z" id="Shape"></path>
                        <path d="M28.2,73.7 C27.5,74.4 26.4,74.4 25.7,73.7 L25.7,73.7 L21.9,69.9 C21.2,69.2 21.2,68.1 21.9,67.4 L21.9,67.4 C22.6,66.7 23.7,66.7 24.4,67.4 L24.4,67.4 L28.2,71.2 C28.6,71.6 28.6,72.1 28.6,72.5 L28.6,72.5 C28.7,73 28.7,73.5 28.2,73.7 L28.2,73.7 Z" id="Shape"></path>
                        <path d="M20.6,66.1 C19.9,66.8 18.8,66.8 18.1,66.1 L18.1,66.1 L14.3,62.3 C13.6,61.6 13.6,60.5 14.3,59.8 L14.3,59.8 C15,59.1 16.1,59.1 16.8,59.8 L16.8,59.8 L20.6,63.6 C21,64 21,64.5 21,64.9 L21,64.9 C21,65.2 20.8,65.6 20.6,66.1 L20.6,66.1 Z" id="Shape"></path>
                        <path d="M12.8,58.5 C12.1,59.2 11,59.2 10.3,58.5 L10.3,58.5 L6.5,54.7 C5.8,54 5.8,52.9 6.5,52.2 L6.5,52.2 C7.2,51.5 8.3,51.5 9,52.2 L9,52.2 L12.8,56 C13.2,56.4 13.2,56.9 13.2,57.3 L13.2,57.3 C13.4,57.6 13.2,58 12.8,58.5 L12.8,58.5 Z" id="Shape"></path>
                        <path d="M42.1,75.3 C41.4,76 40.3,76 39.6,75.3 L39.6,75.3 L35.8,71.5 C35.1,70.8 35.1,69.7 35.8,69 L35.8,69 C36.5,68.3 37.6,68.3 38.3,69 L38.3,69 L42.1,72.8 C42.5,73.2 42.5,73.7 42.5,74.1 L42.5,74.1 C42.5,74.6 42.3,75.1 42.1,75.3 L42.1,75.3 Z" id="Shape"></path>
                        <path d="M34.3,67.7 C33.6,68.4 32.5,68.4 31.8,67.7 L31.8,67.7 L28,63.9 C27.3,63.2 27.3,62.1 28,61.4 L28,61.4 C28.7,60.7 29.8,60.7 30.5,61.4 L30.5,61.4 L34.3,65.2 C34.7,65.6 34.7,66.1 34.7,66.5 L34.7,66.5 C34.9,66.8 34.7,67.2 34.3,67.7 L34.3,67.7 Z" id="Shape"></path>
                        <path d="M26.6,60 C25.9,60.7 24.8,60.7 24.1,60 L24.1,60 L20.3,56.2 C19.6,55.5 19.6,54.4 20.3,53.7 L20.3,53.7 C21,53 22.1,53 22.8,53.7 L22.8,53.7 L26.6,57.5 C27,57.9 27,58.4 27,58.8 L27,58.8 C27.1,59.1 27.1,59.6 26.6,60 L26.6,60 Z" id="Shape"></path>
                        <path d="M19,52.2 C18.3,52.9 17.2,52.9 16.5,52.2 L16.5,52.2 L12.7,48.4 C12,47.7 12,46.6 12.7,45.9 L12.7,45.9 C13.4,45.2 14.5,45.2 15.2,45.9 L15.2,45.9 L19,49.7 C19.4,50.1 19.4,50.6 19.4,51 L19.4,51 C19.5,51.5 19.3,52 19,52.2 L19,52.2 Z" id="Shape"></path>
                        <path d="M11.2,44.6 C10.5,45.3 9.4,45.3 8.7,44.6 L8.7,44.6 L4.9,40.8 C4.2,40.1 4.2,39 4.9,38.3 L4.9,38.3 C5.6,37.6 6.7,37.6 7.4,38.3 L7.4,38.3 L11.2,42.1 C11.6,42.5 11.6,43 11.6,43.4 L11.6,43.4 C11.9,43.7 11.6,44.1 11.2,44.6 L11.2,44.6 Z" id="Shape"></path>
                        <path d="M40.5,61.6 C39.8,62.3 38.7,62.3 38,61.6 L38,61.6 L34.2,57.8 C33.5,57.1 33.5,56 34.2,55.3 L34.2,55.3 C34.9,54.6 36,54.6 36.7,55.3 L36.7,55.3 L40.5,59.1 C40.9,59.5 40.9,60 40.9,60.4 L40.9,60.4 C41,60.7 40.8,61.2 40.5,61.6 L40.5,61.6 Z" id="Shape"></path>
                        <path d="M32.7,53.8 C32,54.5 30.9,54.5 30.2,53.8 L30.2,53.8 L26.4,50 C25.7,49.3 25.7,48.2 26.4,47.5 L26.4,47.5 C27.1,46.8 28.2,46.8 28.9,47.5 L28.9,47.5 L32.7,51.3 C33.1,51.7 33.1,52.2 33.1,52.6 L33.1,52.6 C33.4,52.9 33.1,53.5 32.7,53.8 L32.7,53.8 Z" id="Shape"></path>
                        <path d="M25.1,46.1 C24.4,46.8 23.3,46.8 22.6,46.1 L22.6,46.1 L18.8,42.3 C18.1,41.6 18.1,40.5 18.8,39.8 L18.8,39.8 C19.5,39.1 20.6,39.1 21.3,39.8 L21.3,39.8 L25.1,43.6 C25.5,44 25.5,44.5 25.5,44.9 L25.5,44.9 C25.5,45.2 25.5,45.7 25.1,46.1 L25.1,46.1 Z" id="Shape"></path>
                        <path d="M17.5,38.3 C16.8,39 15.7,39 15,38.3 L15,38.3 L11.2,34.5 C10.5,33.8 10.5,32.7 11.2,32 L11.2,32 C11.9,31.3 13,31.3 13.7,32 L13.7,32 L17.5,35.8 C17.9,36.2 17.9,36.7 17.9,37.1 L17.9,37.1 C17.9,37.6 17.7,38.1 17.5,38.3 L17.5,38.3 Z" id="Shape"></path>
                        <path d="M9.6,30.7 C8.9,31.4 7.8,31.4 7.1,30.7 L7.1,30.7 L3.3,26.9 C2.6,26.2 2.6,25.1 3.3,24.4 L3.3,24.4 C4,23.7 5.1,23.7 5.8,24.4 L5.8,24.4 L9.6,28.2 C10,28.6 10,29.1 10,29.5 L10,29.5 C10.3,29.8 10.1,30.2 9.6,30.7 L9.6,30.7 Z" id="Shape"></path>
                        <path d="M39,47.7 C38.3,48.4 37.2,48.4 36.5,47.7 L36.5,47.7 L32.7,43.9 C32,43.2 32,42.1 32.7,41.4 L32.7,41.4 C33.4,40.7 34.5,40.7 35.4,41.4 L35.4,41.4 L39.2,45.2 C39.6,45.6 39.6,46.1 39.6,46.5 L39.6,46.5 C39.4,46.8 39.2,47.3 39,47.7 L39,47.7 Z" id="Shape"></path>
                        <path d="M31.1,39.9 C30.4,40.6 29.3,40.6 28.4,39.9 L28.4,39.9 L24.6,36.1 C23.9,35.4 23.9,34.3 24.6,33.6 L24.6,33.6 C25.3,32.9 26.4,32.9 27.1,33.6 L27.1,33.6 L30.9,37.4 C31.3,37.8 31.3,38.3 31.3,38.7 L31.3,38.7 C31.8,39.2 31.6,39.6 31.1,39.9 L31.1,39.9 Z" id="Shape"></path>
                        <path d="M23.5,32.2 C22.8,32.9 21.7,32.9 21,32.2 L21,32.2 L17.2,28.4 C16.5,27.7 16.5,26.6 17.2,25.9 L17.2,25.9 C17.9,25.2 19,25.2 19.7,25.9 L19.7,25.9 L23.5,29.7 C23.9,30.1 23.9,30.6 23.9,31 L23.9,31 C24,31.3 24,31.8 23.5,32.2 L23.5,32.2 Z" id="Shape"></path>
                        <path d="M15.9,24.6 C15.2,25.3 14.1,25.3 13.4,24.6 L13.4,24.6 L9.6,20.8 C8.9,20.1 8.9,19 9.6,18.3 L9.6,18.3 C10.3,17.6 11.4,17.6 12.1,18.3 L12.1,18.3 L15.9,22.1 C16.3,22.5 16.3,23 16.3,23.4 L16.3,23.4 C16.3,23.7 16.1,24.2 15.9,24.6 L15.9,24.6 Z" id="Shape"></path>
                        <path d="M8.1,16.8 C7.4,17.5 6.3,17.5 5.6,16.8 L5.6,16.8 L1.8,13 C1.1,12.3 1.1,11.2 1.8,10.5 L1.8,10.5 C2.5,9.8 3.6,9.8 4.3,10.5 L4.3,10.5 L8.1,14.3 C8.5,14.7 8.5,15.2 8.5,15.6 L8.5,15.6 C8.7,16.1 8.5,16.6 8.1,16.8 L8.1,16.8 Z" id="Shape"></path>
                        <path d="M45,41.4 C44.3,42.1 43.2,42.1 42.5,41.4 L42.5,41.4 L38.7,37.6 C38,36.9 38,35.8 38.7,35.1 L38.7,35.1 C39.4,34.4 40.5,34.4 41.2,35.1 L41.2,35.1 L45,39 C45.4,39.4 45.4,39.9 45.4,40.3 L45.4,40.3 C45.7,40.8 45.5,41.2 45,41.4 L45,41.4 Z" id="Shape"></path>
                        <path d="M37.4,33.8 C36.7,34.5 35.6,34.5 34.9,33.8 L34.9,33.8 L31.1,30 C30.4,29.3 30.4,28.2 31.1,27.5 L31.1,27.5 C31.8,26.8 32.9,26.8 33.6,27.5 L33.6,27.5 L37.4,31.3 C37.8,31.7 37.8,32.2 37.8,32.6 L37.8,32.6 C37.8,32.9 37.6,33.4 37.4,33.8 L37.4,33.8 Z" id="Shape"></path>
                        <path d="M29.6,26.2 C28.9,26.9 27.8,26.9 27.1,26.2 L27.1,26.2 L23.3,22.4 C22.6,21.7 22.6,20.6 23.3,19.9 L23.3,19.9 C24,19.2 25.1,19.2 25.8,19.9 L25.8,19.9 L29.6,23.7 C30,24.1 30,24.6 30,25 L30,25 C30.2,25.3 30,25.7 29.6,26.2 L29.6,26.2 Z" id="Shape"></path>
                        <path d="M21.9,18.3 C21.2,19 20.1,19 19.4,18.3 L19.4,18.3 L15.6,14.5 C14.9,13.8 14.9,12.7 15.6,12 L15.6,12 C16.3,11.3 17.4,11.3 18.1,12 L18.1,12 L21.9,15.8 C22.3,16.2 22.3,16.7 22.3,17.1 L22.3,17.1 C22.4,17.7 22.4,18.1 21.9,18.3 L21.9,18.3 Z" id="Shape"></path>
                        <path d="M14.3,10.7 C13.6,11.4 12.5,11.4 11.8,10.7 L11.8,10.7 L8,6.9 C7.3,6.2 7.3,5.1 8,4.4 L8,4.4 C8.7,3.7 9.8,3.7 10.5,4.4 L10.5,4.4 L14.3,8.2 C14.7,8.6 14.7,9.1 14.7,9.5 L14.7,9.5 C14.8,9.8 14.6,10.3 14.3,10.7 L14.3,10.7 Z" id="Shape"></path>
                        <path d="M43.4,27.8 C42.7,28.5 41.6,28.5 40.9,27.8 L40.9,27.8 L37.1,24 C36.4,23.3 36.4,22.2 37.1,21.5 L37.1,21.5 C37.8,20.8 38.9,20.8 39.6,21.5 L39.6,21.5 L43.4,25.3 C43.8,25.7 43.8,26.2 43.8,26.6 L43.8,26.6 C44.1,26.9 43.9,27.3 43.4,27.8 L43.4,27.8 Z" id="Shape"></path>
                        <path d="M35.8,19.9 C35.1,20.6 34,20.6 33.3,19.9 L33.3,19.9 L29.5,16.1 C28.8,15.4 28.8,14.3 29.5,13.6 L29.5,13.6 C30.2,12.9 31.3,12.9 32,13.6 L32,13.6 L35.8,17.4 C36.2,17.8 36.2,18.3 36.2,18.7 L36.2,18.7 C36.3,19.2 36.3,19.7 35.8,19.9 L35.8,19.9 Z" id="Shape"></path>
                        <path d="M28.2,12.3 C27.5,13 26.4,13 25.7,12.3 L25.7,12.3 L21.9,8.5 C21.2,7.8 21.2,6.7 21.9,6 L21.9,6 C22.6,5.3 23.7,5.3 24.4,6 L24.4,6 L28.2,9.8 C28.6,10.2 28.6,10.7 28.6,11.1 L28.6,11.1 C28.7,11.4 28.4,11.8 28.2,12.3 L28.2,12.3 Z" id="Shape"></path>
                        <path d="M41.9,13.9 C41.2,14.6 40.1,14.6 39.4,13.9 L39.4,13.9 L35.6,10.1 C34.9,9.4 34.9,8.3 35.6,7.6 L35.6,7.6 C36.3,6.9 37.4,6.9 38.1,7.6 L38.1,7.6 L41.9,11.4 C42.3,11.8 42.3,12.3 42.3,12.7 L42.3,12.7 C42.5,13 42.3,13.4 41.9,13.9 L41.9,13.9 Z" id="Shape"></path>
                        <path d="M44.3,199 C43.6,199.7 43.6,200.8 44.3,201.5 L45.9,203.1 L45.9,198.4 C45.2,198.3 44.8,198.5 44.3,199 Z" id="Shape"></path>
                        <path d="M45.2,185.1 C44.5,184.4 43.4,184.4 42.7,185.1 C42,185.8 42,186.9 42.7,187.6 L45.8,190.7 L45.8,185.5 L45.2,185.1 Z" id="Shape"></path>
                        <path d="M43.7,171.2 C43,170.5 41.9,170.5 41.2,171.2 C40.5,171.9 40.5,173 41.2,173.7 L45,177.5 C45.2,177.7 45.7,177.9 45.9,177.9 L45.9,173.4 L43.7,171.2 Z" id="Shape"></path>
                        <path d="M45.7,151.3 C45,152 45,153.1 45.7,153.8 L45.9,154 L45.9,151 C45.9,151.3 45.7,151.3 45.7,151.3 Z" id="Shape"></path>
                        <path d="M44.1,137.6 C43.4,138.3 43.4,139.4 44.1,140.1 L45.9,141.9 L45.9,137.2 C45.2,136.9 44.6,136.9 44.1,137.6 Z" id="Shape"></path>
                        <path d="M45.2,123.7 C44.5,123 43.4,123 42.7,123.7 C42,124.4 42,125.5 42.7,126.2 L46.1,129.6 L46.1,124.4 L45.2,123.7 Z" id="Shape"></path>
                        <path d="M43,110.5 C42.3,109.8 41.2,109.8 40.5,110.5 C39.8,111.2 39.8,112.3 40.5,113 L44.3,116.8 C44.7,117.2 45.4,117.5 46.1,117.2 L46.1,113.4 L43,110.5 Z" id="Shape"></path>
                        <path d="M45,90.5 C44.3,91.2 44.3,92.3 45,93 L45.9,93.9 L45.9,89.9 C45.5,90.1 45.2,90.3 45,90.5 Z" id="Shape"></path>
                        <path d="M45.9,76.6 C45.2,75.9 44.1,75.9 43.4,76.6 C42.7,77.3 42.7,78.4 43.4,79.1 L45.9,81.6 L45.9,76.6 L45.9,76.6 Z" id="Shape"></path>
                        <path d="M44.3,62.7 C43.6,62 42.5,62 41.8,62.7 C41.1,63.4 41.1,64.5 41.8,65.2 L45.6,69 L45.8,69.2 L45.8,64 L44.3,62.7 Z" id="Shape"></path>
                        <path d="M42.8,48.8 C42.1,48.1 41,48.1 40.3,48.8 C39.6,49.5 39.6,50.6 40.3,51.3 L44.1,55.1 C44.5,55.5 45.2,55.8 45.9,55.5 L45.9,51.7 L42.8,48.8 Z" id="Shape"></path>
                        <path d="M45.9,44.6 L45.9,43.7 C45.9,43.9 45.9,44.1 45.9,44.6 Z" id="Shape"></path>
                        <path d="M44.8,28.9 C44.1,29.6 44.1,30.7 44.8,31.4 L45.9,32.5 L45.9,28.2 C45.5,28.4 45,28.7 44.8,28.9 Z" id="Shape"></path>
                        <path d="M45.7,15 C45,14.3 43.9,14.3 43.2,15 C42.5,15.7 42.5,16.8 43.2,17.5 L45.9,20.2 L45.7,15 L45.7,15 Z" id="Shape"></path>
                        <path d="M44.3,1.3 C43.6,0.6 42.5,0.6 41.8,1.3 C41.1,2 41.1,3.1 41.8,3.8 L45.6,7.6 C45.8,7.8 45.8,7.8 46,7.8 L46,2.9 L44.3,1.3 Z" id="Shape"></path>
                        <path d="M42.1,157.5 C41.4,156.8 40.3,156.8 39.6,157.5 C38.9,158.2 38.9,159.3 39.6,160 L43.4,163.8 C44.1,164.5 45.2,164.5 45.9,163.8 L45.9,161.1 L42.1,157.5 Z" id="Shape"></path>
                        <path d="M13,202.1 C12.3,201.4 11.2,201.4 10.5,202.1 C9.8,202.8 9.8,203.9 10.5,204.6 L15.7,204.6 L13,202.1 Z" id="Shape"></path>
                        <path d="M26.9,203.5 C26.2,202.8 25.1,202.8 24.4,203.5 C24.2,203.7 24,204.2 24,204.4 L28,204.4 L26.9,203.5 Z" id="Shape"></path>
                        <path d="M1.3,192.9 C1.7,192.5 1.7,192 1.7,191.6 C1.7,191.2 1.5,190.7 1.3,190.3 L0.6,189.6 L0.6,193.2 C1.1,193.4 1.3,193.2 1.3,192.9 Z" id="Shape"></path>
                        <path d="M3.4,173 C4.1,173.7 5.2,173.7 5.9,173 C6.3,172.6 6.3,172.1 6.3,171.7 C6.3,171.3 6.1,170.8 5.9,170.4 L2.3,166.8 C1.9,166.4 1.4,166.4 1,166.4 L1,170.7 L3.4,173 Z" id="Shape"></path>
                        <path d="M1.8,159.1 C2.5,159.8 3.6,159.8 4.3,159.1 C4.7,158.7 4.7,158.2 4.7,157.8 C4.7,157.4 4.5,156.9 4.3,156.5 L0.7,152.9 L0.7,158.1 L1.8,159.1 Z" id="Shape"></path>
                        <path d="M2.9,145.4 C3.3,145 3.3,144.5 3.3,144.1 C3.3,143.7 3.1,143.2 2.9,142.8 L0.9,140.8 L0.9,145.7 C1.6,146.1 2.2,145.9 2.9,145.4 Z" id="Shape"></path>
                        <path d="M1.3,131.5 C1.7,131.1 1.7,130.6 1.7,130.2 C1.7,129.8 1.5,129.3 1.3,128.9 L0.9,128.5 L0.9,131.9 C1.1,131.8 1.1,131.8 1.3,131.5 Z" id="Shape"></path>
                        <path d="M3.4,111.6 C4.1,112.3 5.2,112.3 5.9,111.6 C6.3,111.2 6.3,110.7 6.3,110.3 C6.3,109.9 6.1,109.4 5.9,109 L2.1,105.2 C1.9,105 1.4,104.8 1,104.8 L1,109.3 L3.4,111.6 Z" id="Shape"></path>
                        <path d="M1.8,97.7 C2.5,98.4 3.6,98.4 4.3,97.7 C4.7,97.3 4.7,96.8 4.7,96.4 C4.7,96 4.5,95.5 4.3,95.1 L0.7,91.5 L0.7,96.7 L1.8,97.7 Z" id="Shape"></path>
                        <path d="M2.7,83.8 C3.1,83.4 3.1,82.9 3.1,82.5 C3.1,82.1 2.9,81.6 2.7,81.2 L0.7,79.2 L0.7,84 C1.6,84.5 2.2,84.2 2.7,83.8 Z" id="Shape"></path>
                        <path d="M1.1,69.4 C1.1,69.2 1.1,68.7 0.9,68.5 L0.9,70.3 C0.9,69.9 1.1,69.7 1.1,69.4 Z" id="Shape"></path>
                        <path d="M4,64.5 C4.7,65.2 5.8,65.2 6.5,64.5 C6.9,64.1 6.9,63.6 6.9,63.2 C6.9,62.8 6.7,62.3 6.5,61.9 L2.7,58.1 C2.3,57.7 1.4,57.4 0.7,57.7 L0.7,61.3 L4,64.5 Z" id="Shape"></path>
                        <path d="M2.5,50.6 C3.2,51.3 4.3,51.3 5,50.6 C5.4,50.2 5.4,49.7 5.4,49.3 C5.4,48.9 5.2,48.4 5,48 L1.2,44.2 C1,44 1,44 0.8,44 L0.8,48.9 L2.5,50.6 Z" id="Shape"></path>
                        <path d="M0.9,36.7 C1.6,37.4 2.7,37.4 3.4,36.7 C3.8,36.3 3.8,35.8 3.8,35.4 C3.8,35 3.6,34.5 3.4,34.1 L0.7,31.4 L0.9,36.7 L0.9,36.7 Z" id="Shape"></path>
                        <path d="M2,23.1 C2.4,22.7 2.4,22.2 2.4,21.8 C2.4,21.4 2.2,20.9 2,20.5 L0.9,19.4 L0.9,23.7 C1.3,23.5 1.6,23.3 2,23.1 Z" id="Shape"></path>
                        <path d="M0.9,7.8 C0.9,7.6 0.9,7.4 0.7,7.1 L0.7,8.4 C0.9,8.3 0.9,8 0.9,7.8 Z" id="Shape"></path>
                        <path d="M3.1,204.6 C3.1,204.6 3.1,204.4 2.9,204.4 L0.7,202.2 L0.7,204.7 L3.1,204.7 L3.1,204.6 Z" id="Shape"></path>
                        <path d="M7.4,122.8 L3.6,119 C2.9,118.3 1.8,118.3 1.1,119 C1.1,119 0.9,119.2 0.9,119.4 L0.9,121.2 C0.9,121.4 1.1,121.4 1.1,121.4 L4.9,125.2 C5.6,125.9 6.7,125.9 7.4,125.2 C7.8,124.8 7.8,124.3 7.8,123.9 C8.1,123.7 7.8,123.2 7.4,122.8 Z" id="Shape"></path>
                        <path d="M0.9,121.2 L0.9,119.4 C0.4,119.9 0.4,120.6 0.9,121.2 Z" id="Shape"></path>
                        <path d="M14.1,0.6 L17.9,4.4 C18.6,5.1 19.7,5.1 20.4,4.4 C20.8,4 20.8,3.5 20.8,3.1 C20.8,2.7 20.6,2.2 20.4,1.8 L18.8,0.2 L13.9,0.2 C13.9,0.4 13.9,0.6 14.1,0.6 Z" id="Shape"></path>
                        <path d="M27.8,2.2 L31.6,6 C32.3,6.7 33.4,6.7 34.1,6 C34.5,5.6 34.5,5.1 34.5,4.7 C34.5,4.3 34.3,3.8 34.1,3.4 L31,0.3 L27.4,0.3 C27.1,0.9 27.3,1.8 27.8,2.2 Z" id="Shape"></path>
                        <path d="M4,2.9 C4.7,3.6 5.8,3.6 6.5,2.9 C6.9,2.5 6.9,2 6.9,1.6 C6.9,1.2 6.7,0.7 6.5,0.3 L6.5,0.3 L1.3,0.3 L4,2.9 Z" id="Shape"></path>
                    </g>
                </g>
                <path d="M155.964,111.792 C155.193329,112.517337 154.694668,113.695992 154.468,115.328 L154.264,116.688 L162.56,116.688 L159.84,125.8 L152.972,125.8 L149.912,147.832 C149.095996,153.725363 147.06735,158.213318 143.826,161.296 C140.58465,164.378682 136.312027,166.758658 131.008,168.436 L127.812,158.848 C130.577347,157.895995 132.639993,156.649341 134,155.108 C135.360007,153.566659 136.243998,151.368014 136.652,148.512 L139.78,125.8 L135.02,125.8 L136.244,116.688 L141.072,116.688 L141.344,114.512 C141.888003,110.56798 143.576652,107.338013 146.41,104.822 C149.243347,102.305987 153.039976,101.048 157.8,101.048 C160.066678,101.048 162.140657,101.353997 164.022,101.966 C165.903343,102.578003 167.501327,103.337329 168.816,104.244 L164.328,112.064 C162.741325,111.157329 160.99601,110.704 159.092,110.704 C157.777327,110.704 156.734671,111.066663 155.964,111.792 Z M188.808,116.144 L185.068,129.132 C183.843994,128.769332 182.801338,128.588 181.94,128.588 C179.945323,128.588 178.358673,129.381325 177.18,130.968 C176.001327,132.554675 174.913338,134.798652 173.916,137.7 L171.74,153 L158.548,153 L163.58,116.688 L175.072,116.688 L175.14,123.148 C176.318673,120.699988 177.791991,118.818673 179.56,117.504 C181.328009,116.189327 183.209323,115.532 185.204,115.532 C186.47334,115.532 187.674661,115.735998 188.808,116.144 Z M203.904,116.688 L198.872,153 L185.68,153 L190.712,116.688 L203.904,116.688 Z M193.466,109.276 C192.264661,108.097327 191.664,106.578676 191.664,104.72 C191.664,102.407988 192.468659,100.481341 194.078,98.94 C195.687341,97.398659 197.670655,96.628 200.028,96.628 C202.022677,96.628 203.620661,97.2173274 204.822,98.396 C206.023339,99.5746726 206.624,101.093324 206.624,102.952 C206.624,105.264012 205.819341,107.190659 204.21,108.732 C202.600659,110.273341 200.617345,111.044 198.26,111.044 C196.265323,111.044 194.667339,110.454673 193.466,109.276 Z M234.606,135.864 C230.185978,138.040011 224.712033,139.422664 218.184,140.012 C218.501335,143.230683 220.337317,144.84 223.692,144.84 C225.142674,144.84 226.547993,144.568003 227.908,144.024 C229.268007,143.479997 230.854658,142.641339 232.668,141.508 L237.224,149.192 C232.50931,152.637351 227.409361,154.36 221.924,154.36 C216.302639,154.36 212.075348,152.943348 209.242,150.11 C206.408653,147.276653 204.992,143.457357 204.992,138.652 C204.992,135.025315 205.728659,131.421351 207.202,127.84 C208.675341,124.258649 211.03265,121.278012 214.274,118.898 C217.51535,116.517988 221.651975,115.328 226.684,115.328 C231.26269,115.328 234.832654,116.291324 237.394,118.218 C239.955346,120.144676 241.236,122.649318 241.236,125.732 C241.236,130.31069 239.026022,133.687989 234.606,135.864 Z M226.072,130.22 C227.386673,128.95066 228.044,127.658673 228.044,126.344 C228.044,124.666658 227.160009,123.828 225.392,123.828 C223.623991,123.828 222.196005,124.632659 221.108,126.242 C220.019995,127.851341 219.226669,129.925321 218.728,132.464 C222.309351,132.237332 224.757327,131.48934 226.072,130.22 Z M275.916,117.572 C277.32134,119.068007 278.024,121.175986 278.024,123.896 C278.024,124.938672 277.978667,125.731997 277.888,126.276 L274.148,153 L260.956,153 L264.22,129.812 C264.310667,128.995996 264.356,128.474668 264.356,128.248 C264.356,126.933327 263.948004,126.276 263.132,126.276 C262.315996,126.276 261.432005,126.921994 260.48,128.214 C259.527995,129.506006 258.440006,131.466654 257.216,134.096 L254.496,153 L241.304,153 L246.336,116.688 L257.828,116.688 L257.896,122.672 C259.346674,120.450656 261.159989,118.67134 263.336,117.334 C265.512011,115.99666 267.755988,115.328 270.068,115.328 C272.561346,115.328 274.51066,116.075993 275.916,117.572 Z M320.66,102.408 L313.588,153 L301.824,153 L301.892,148.308 C298.945319,152.342687 295.386688,154.36 291.216,154.36 C287.453315,154.36 284.62001,153.079346 282.716,150.518 C280.81199,147.956654 279.86,144.31869 279.86,139.604 C279.86,135.931982 280.505994,132.214685 281.798,128.452 C283.090006,124.689315 285.061987,121.561346 287.714,119.068 C290.366013,116.574654 293.641314,115.328 297.54,115.328 C299.126675,115.328 300.577327,115.588664 301.892,116.11 C303.206673,116.631336 304.317329,117.345329 305.224,118.252 L307.604,101.048 L320.66,102.408 Z M295.126,129.54 C294.015328,132.622682 293.46,135.931982 293.46,139.468 C293.46,141.50801 293.697998,142.890663 294.174,143.616 C294.650002,144.341337 295.318662,144.704 296.18,144.704 C297.948009,144.704 299.987988,142.822685 302.3,139.06 L304.068,126.412 C303.070662,125.414662 301.892007,124.916 300.532,124.916 C298.038654,124.916 296.236672,126.457318 295.126,129.54 Z M321.476,134.64 L323.788,105.672 L337.66,105.672 L331.812,134.64 L321.476,134.64 Z M320.048,152.592 C318.914661,151.413327 318.348,149.894676 318.348,148.036 C318.348,145.950656 319.107326,144.148674 320.626,142.63 C322.144674,141.111326 323.991989,140.352 326.168,140.352 C327.936009,140.352 329.386661,140.929994 330.52,142.086 C331.653339,143.242006 332.22,144.726658 332.22,146.54 C332.22,148.670677 331.472007,150.506659 329.976,152.048 C328.479993,153.589341 326.644011,154.36 324.468,154.36 C322.654658,154.36 321.181339,153.770673 320.048,152.592 Z" id="friend!" fill="#A5256F"></path>
            </g>
        </g>
    </g>
</svg>