<svg width="42" height="42" viewBox="0 0 42 42" fill="none" xmlns="http://www.w3.org/2000/svg">
<g clip-path="url(#clip0)">
<path fill-rule="evenodd" clip-rule="evenodd" d="M37.2397 25.8283L37.3016 8.60411L19.8762 7.06804L17.9219 4.95654L39.2408 6.83601L39.1652 27.9086L37.2397 25.8283Z" fill="#0068B4"/>
<path fill-rule="evenodd" clip-rule="evenodd" d="M31.0366 31.5705L31.0985 14.3463L13.673 12.8102L11.7188 10.6987L33.0376 12.5782L32.9621 33.6508L31.0366 31.5705Z" fill="#0068B4"/>
<path fill-rule="evenodd" clip-rule="evenodd" d="M23.939 38.2053L24.0009 20.9811L6.57539 19.445L4.62109 17.3335L25.94 19.213L25.8644 40.2856L23.939 38.2053Z" fill="#0068B4"/>
<path fill-rule="evenodd" clip-rule="evenodd" d="M33.4209 19.9457L31.04 20.495V28.0267C31.04 30.3897 28.3351 32.4785 21.2459 32.4785C14.1568 32.4785 11.4519 30.3897 11.4519 28.0267V20.495L9.07011 19.9457C7.85208 19.6643 7 18.5941 7 17.3422C7 16.0904 7.85119 15.0201 9.071 14.7388L20.6449 12.0677C20.8515 12.0214 21.0492 12 21.2459 12C21.4427 12 21.6404 12.0214 21.8345 12.065L33.4209 14.7388C34.6398 15.0201 35.4919 16.0904 35.4919 17.3422C35.4919 18.5941 34.6398 19.6643 33.4209 19.9457ZM29.2588 20.9066L21.8455 22.617C21.6408 22.6633 21.4422 22.6846 21.2454 22.6846C21.0487 22.6846 20.8501 22.6633 20.656 22.6196L13.2321 20.9066V28.0269C13.2321 29.0107 15.9032 30.698 21.2454 30.698C26.5877 30.698 29.2588 29.0107 29.2588 28.0269V20.9066ZM33.7103 17.3414C33.7103 17.7563 33.4236 18.1161 33.0203 18.2095L21.4455 20.8807L21.2451 20.9029L21.0448 20.8807L9.46999 18.2095C9.06576 18.1161 8.77995 17.7563 8.77995 17.3414C8.77995 16.9265 9.06576 16.5668 9.46999 16.4733L21.0448 13.8022L21.2451 13.7799L21.4455 13.8022L33.0203 16.4733C33.4236 16.5668 33.7103 16.9265 33.7103 17.3414Z" fill="#232323"/>
<rect x="8.52734" y="30.9316" width="1.52802" height="2.29204" rx="0.4" fill="#232323"/>
<rect x="8.52734" y="21" width="1.52802" height="6.87611" rx="0.4" fill="#232323"/>
</g>
<defs>
<clipPath id="clip0">
<rect width="42" height="42" fill="white"/>
</clipPath>
</defs>
</svg>
